<?xml version="1.0" encoding="UTF-8" standalone="no"?><svg xmlns="http://www.w3.org/2000/svg" xmlns:xlink="http://www.w3.org/1999/xlink" contentScriptType="application/ecmascript" contentStyleType="text/css" height="175px" preserveAspectRatio="none" style="width:203px;height:175px;" version="1.1" viewBox="0 0 203 175" width="203px" zoomAndPan="magnify"><defs><filter height="300%" id="f13r0kwgxagg9i" width="300%" x="-1" y="-1"><feGaussianBlur result="blurOut" stdDeviation="2.0"/><feColorMatrix in="blurOut" result="blurOut2" type="matrix" values="0 0 0 0 0 0 0 0 0 0 0 0 0 0 0 0 0 0 .4 0"/><feOffset dx="4.0" dy="4.0" in="blurOut2" result="blurOut3"/><feBlend in="SourceGraphic" in2="blurOut3" mode="normal"/></filter></defs><g><!--class Component--><rect fill="#FEFECE" filter="url(#f13r0kwgxagg9i)" height="48" id="Component" style="stroke: #A80036; stroke-width: 1.5;" width="97" x="95.5" y="8"/><ellipse cx="110.5" cy="24" fill="#A9DCDF" rx="11" ry="11" style="stroke: #A80036; stroke-width: 1.0;"/><path d="M112.6875,25.7656 L108.5469,25.7656 L108.125,26.7969 L108.5469,26.7969 Q109.1563,26.7969 109.4219,27.0313 Q109.6875,27.2656 109.6875,27.6563 Q109.6875,28.0313 109.4219,28.2656 Q109.1563,28.5 108.5469,28.5 L106.25,28.5 Q105.6406,28.5 105.3906,28.2656 Q105.125,28.0313 105.125,27.6406 Q105.125,27.2656 105.4063,27.0313 Q105.6719,26.7813 106.2969,26.7969 L108.9688,20.1406 L107.8594,20.1406 Q107.25,20.1406 106.9844,19.9063 Q106.7188,19.6719 106.7188,19.2813 Q106.7188,18.9063 106.9844,18.6719 Q107.25,18.4375 107.8594,18.4375 L111.5313,18.4375 L114.9219,26.7969 Q115.5156,26.7969 115.7031,26.9375 Q116.0938,27.2031 116.0938,27.6563 Q116.0938,28.0313 115.8281,28.2656 Q115.5781,28.5 114.9688,28.5 L112.6719,28.5 Q112.0625,28.5 111.7969,28.2656 Q111.5313,28.0313 111.5313,27.6406 Q111.5313,27.2656 111.7969,27.0313 Q112.0625,26.7969 112.6719,26.7969 L113.0938,26.7969 L112.6875,25.7656 Z M111.9688,24.0625 L110.6094,20.6875 L109.2344,24.0625 L111.9688,24.0625 Z "/><text fill="#000000" font-family="sans-serif" font-size="12" font-style="italic" lengthAdjust="spacingAndGlyphs" textLength="65" x="124.5" y="28.9102">Component</text><line style="stroke: #A80036; stroke-width: 1.5;" x1="96.5" x2="191.5" y1="40" y2="40"/><line style="stroke: #A80036; stroke-width: 1.5;" x1="96.5" x2="191.5" y1="48" y2="48"/><!--class Leaf--><rect fill="#FEFECE" filter="url(#f13r0kwgxagg9i)" height="48" id="Leaf" style="stroke: #A80036; stroke-width: 1.5;" width="56" x="6" y="116"/><ellipse cx="21" cy="132" fill="#ADD1B2" rx="11" ry="11" style="stroke: #A80036; stroke-width: 1.0;"/><path d="M23.7656,127.875 Q23.9219,127.6563 24.1094,127.5469 Q24.2969,127.4375 24.5156,127.4375 Q24.8906,127.4375 25.125,127.7031 Q25.3594,127.9531 25.3594,128.5625 L25.3594,130.0156 Q25.3594,130.625 25.125,130.8906 Q24.8906,131.1563 24.5156,131.1563 Q24.1719,131.1563 23.9688,130.9531 Q23.7656,130.7656 23.6563,130.25 Q23.6094,129.8906 23.4219,129.7031 Q23.0938,129.3281 22.4844,129.1094 Q21.875,128.8906 21.25,128.8906 Q20.4844,128.8906 19.8438,129.2188 Q19.2188,129.5469 18.7188,130.2969 Q18.2344,131.0469 18.2344,132.0781 L18.2344,133.1719 Q18.2344,134.4063 19.125,135.2344 Q20.0156,136.0469 21.6094,136.0469 Q22.5469,136.0469 23.2031,135.7969 Q23.5938,135.6406 24.0156,135.2031 Q24.2813,134.9375 24.4219,134.8594 Q24.5781,134.7813 24.7813,134.7813 Q25.1094,134.7813 25.3594,135.0469 Q25.625,135.2969 25.625,135.6406 Q25.625,135.9844 25.2813,136.3906 Q24.7813,136.9688 23.9844,137.2969 Q22.9063,137.75 21.6094,137.75 Q20.0938,137.75 18.8906,137.125 Q17.9063,136.625 17.2188,135.5625 Q16.5313,134.4844 16.5313,133.2031 L16.5313,132.0469 Q16.5313,130.7188 17.1406,129.5781 Q17.7656,128.4219 18.8594,127.8125 Q19.9531,127.1875 21.1875,127.1875 Q21.9219,127.1875 22.5625,127.3594 Q23.2188,127.5156 23.7656,127.875 Z "/><text fill="#000000" font-family="sans-serif" font-size="12" lengthAdjust="spacingAndGlyphs" textLength="24" x="35" y="136.9102">Leaf</text><line style="stroke: #A80036; stroke-width: 1.5;" x1="7" x2="61" y1="148" y2="148"/><line style="stroke: #A80036; stroke-width: 1.5;" x1="7" x2="61" y1="156" y2="156"/><!--class Composite--><rect fill="#FEFECE" filter="url(#f13r0kwgxagg9i)" height="48" id="Composite" style="stroke: #A80036; stroke-width: 1.5;" width="93" x="97.5" y="116"/><ellipse cx="112.5" cy="132" fill="#ADD1B2" rx="11" ry="11" style="stroke: #A80036; stroke-width: 1.0;"/><path d="M115.2656,127.875 Q115.4219,127.6563 115.6094,127.5469 Q115.7969,127.4375 116.0156,127.4375 Q116.3906,127.4375 116.625,127.7031 Q116.8594,127.9531 116.8594,128.5625 L116.8594,130.0156 Q116.8594,130.625 116.625,130.8906 Q116.3906,131.1563 116.0156,131.1563 Q115.6719,131.1563 115.4688,130.9531 Q115.2656,130.7656 115.1563,130.25 Q115.1094,129.8906 114.9219,129.7031 Q114.5938,129.3281 113.9844,129.1094 Q113.375,128.8906 112.75,128.8906 Q111.9844,128.8906 111.3438,129.2188 Q110.7188,129.5469 110.2188,130.2969 Q109.7344,131.0469 109.7344,132.0781 L109.7344,133.1719 Q109.7344,134.4063 110.625,135.2344 Q111.5156,136.0469 113.1094,136.0469 Q114.0469,136.0469 114.7031,135.7969 Q115.0938,135.6406 115.5156,135.2031 Q115.7813,134.9375 115.9219,134.8594 Q116.0781,134.7813 116.2813,134.7813 Q116.6094,134.7813 116.8594,135.0469 Q117.125,135.2969 117.125,135.6406 Q117.125,135.9844 116.7813,136.3906 Q116.2813,136.9688 115.4844,137.2969 Q114.4063,137.75 113.1094,137.75 Q111.5938,137.75 110.3906,137.125 Q109.4063,136.625 108.7188,135.5625 Q108.0313,134.4844 108.0313,133.2031 L108.0313,132.0469 Q108.0313,130.7188 108.6406,129.5781 Q109.2656,128.4219 110.3594,127.8125 Q111.4531,127.1875 112.6875,127.1875 Q113.4219,127.1875 114.0625,127.3594 Q114.7188,127.5156 115.2656,127.875 Z "/><text fill="#000000" font-family="sans-serif" font-size="12" lengthAdjust="spacingAndGlyphs" textLength="61" x="126.5" y="136.9102">Composite</text><line style="stroke: #A80036; stroke-width: 1.5;" x1="98.5" x2="189.5" y1="148" y2="148"/><line style="stroke: #A80036; stroke-width: 1.5;" x1="98.5" x2="189.5" y1="156" y2="156"/><!--link Component to Composite--><path d="M131.453,76.0236 C130.896,89.5792 131.486,104.0381 133.226,115.6784 " fill="none" id="Component-Composite" style="stroke: #A80036; stroke-width: 1.0;"/><polygon fill="none" points="124.491,75.2841,133.274,56,138.434,76.5523,124.491,75.2841" style="stroke: #A80036; stroke-width: 1.0;"/><!--link Component to Composite--><path d="M156.889,69.3383 C157.705,80.1263 156.7666,103.7556 156.7666,103.7556 " fill="none" id="Component-Composite-1" style="stroke: #A80036; stroke-width: 1.0;"/><polygon fill="#FFFFFF" points="155.408,115.6784,160.0616,110.1698,156.7666,103.7556,152.113,109.2641,155.408,115.6784" style="stroke: #A80036; stroke-width: 1.0;"/><polygon fill="#A80036" points="155.357,56,152.4101,65.3976,155.9275,60.9673,160.3578,64.4848,155.357,56" style="stroke: #A80036; stroke-width: 1.0;"/><line style="stroke: #A80036; stroke-width: 1.0;" x1="155.9275" x2="156.8405" y1="60.9673" y2="68.9155"/><text fill="#000000" font-family="sans-serif" font-size="13" lengthAdjust="spacingAndGlyphs" textLength="5" x="152.5159" y="77.338">*</text><!--link Component to Leaf--><path d="M105.313,70.2802 C89.6325,85.3905 72.0069,102.3752 58.2016,115.6784 " fill="none" id="Component-Leaf" style="stroke: #A80036; stroke-width: 1.0;"/><polygon fill="none" points="100.8728,64.8378,120.132,56,110.587,74.9189,100.8728,64.8378" style="stroke: #A80036; stroke-width: 1.0;"/><!--
@startuml composite
abstract class Component

class Leaf 
class Composite  
Component <|- - Composite
Component "*" <- -o Composite 

Component <|- - Leaf

@enduml

PlantUML version 1.2019.06(Sat May 25 03:10:25 AEST 2019)
(GPL source distribution)
Java Runtime: OpenJDK Runtime Environment
JVM: OpenJDK 64-Bit Server VM
Java Version: 11.0.3+7
Operating System: Windows 10
OS Version: 10.0
Default Encoding: Cp1252
Language: en
Country: AU
--></g></svg>