<?xml version="1.0" encoding="UTF-8" standalone="no"?><svg xmlns="http://www.w3.org/2000/svg" xmlns:xlink="http://www.w3.org/1999/xlink" contentScriptType="application/ecmascript" contentStyleType="text/css" height="175px" preserveAspectRatio="none" style="width:211px;height:175px;" version="1.1" viewBox="0 0 211 175" width="211px" zoomAndPan="magnify"><defs><filter height="300%" id="f13r0kwgxagg9i" width="300%" x="-1" y="-1"><feGaussianBlur result="blurOut" stdDeviation="2.0"/><feColorMatrix in="blurOut" result="blurOut2" type="matrix" values="0 0 0 0 0 0 0 0 0 0 0 0 0 0 0 0 0 0 .4 0"/><feOffset dx="4.0" dy="4.0" in="blurOut2" result="blurOut3"/><feBlend in="SourceGraphic" in2="blurOut3" mode="normal"/></filter></defs><g><!--class Component--><rect fill="#FEFECE" filter="url(#f13r0kwgxagg9i)" height="48" id="Component" style="stroke: #A80036; stroke-width: 1.5;" width="104" x="96" y="8"/><ellipse cx="111" cy="24" fill="#A9DCDF" rx="11" ry="11" style="stroke: #A80036; stroke-width: 1.0;"/><path d="M111.1094,19.3438 L109.9531,24.4219 L112.2813,24.4219 L111.1094,19.3438 Z M109.625,17.1094 L112.6094,17.1094 L115.9688,29.5 L113.5156,29.5 L112.75,26.4375 L109.4688,26.4375 L108.7188,29.5 L106.2813,29.5 L109.625,17.1094 Z "/><text fill="#000000" font-family="sans-serif" font-size="12" font-style="italic" lengthAdjust="spacingAndGlyphs" textLength="72" x="125" y="28.1543">Component</text><line style="stroke: #A80036; stroke-width: 1.5;" x1="97" x2="199" y1="40" y2="40"/><line style="stroke: #A80036; stroke-width: 1.5;" x1="97" x2="199" y1="48" y2="48"/><!--class Leaf--><rect fill="#FEFECE" filter="url(#f13r0kwgxagg9i)" height="48" id="Leaf" style="stroke: #A80036; stroke-width: 1.5;" width="58" x="6" y="116"/><ellipse cx="21" cy="132" fill="#ADD1B2" rx="11" ry="11" style="stroke: #A80036; stroke-width: 1.0;"/><path d="M23.9688,137.6406 Q23.3906,137.9375 22.75,138.0781 Q22.1094,138.2344 21.4063,138.2344 Q18.9063,138.2344 17.5781,136.5938 Q16.2656,134.9375 16.2656,131.8125 Q16.2656,128.6875 17.5781,127.0313 Q18.9063,125.375 21.4063,125.375 Q22.1094,125.375 22.75,125.5313 Q23.4063,125.6875 23.9688,125.9844 L23.9688,128.7031 Q23.3438,128.125 22.75,127.8594 Q22.1563,127.5781 21.5313,127.5781 Q20.1875,127.5781 19.5,128.6563 Q18.8125,129.7188 18.8125,131.8125 Q18.8125,133.9063 19.5,134.9844 Q20.1875,136.0469 21.5313,136.0469 Q22.1563,136.0469 22.75,135.7813 Q23.3438,135.5 23.9688,134.9219 L23.9688,137.6406 Z "/><text fill="#000000" font-family="sans-serif" font-size="12" lengthAdjust="spacingAndGlyphs" textLength="26" x="35" y="136.1543">Leaf</text><line style="stroke: #A80036; stroke-width: 1.5;" x1="7" x2="63" y1="148" y2="148"/><line style="stroke: #A80036; stroke-width: 1.5;" x1="7" x2="63" y1="156" y2="156"/><!--class Composite--><rect fill="#FEFECE" filter="url(#f13r0kwgxagg9i)" height="48" id="Composite" style="stroke: #A80036; stroke-width: 1.5;" width="98" x="99" y="116"/><ellipse cx="114" cy="132" fill="#ADD1B2" rx="11" ry="11" style="stroke: #A80036; stroke-width: 1.0;"/><path d="M116.9688,137.6406 Q116.3906,137.9375 115.75,138.0781 Q115.1094,138.2344 114.4063,138.2344 Q111.9063,138.2344 110.5781,136.5938 Q109.2656,134.9375 109.2656,131.8125 Q109.2656,128.6875 110.5781,127.0313 Q111.9063,125.375 114.4063,125.375 Q115.1094,125.375 115.75,125.5313 Q116.4063,125.6875 116.9688,125.9844 L116.9688,128.7031 Q116.3438,128.125 115.75,127.8594 Q115.1563,127.5781 114.5313,127.5781 Q113.1875,127.5781 112.5,128.6563 Q111.8125,129.7188 111.8125,131.8125 Q111.8125,133.9063 112.5,134.9844 Q113.1875,136.0469 114.5313,136.0469 Q115.1563,136.0469 115.75,135.7813 Q116.3438,135.5 116.9688,134.9219 L116.9688,137.6406 Z "/><text fill="#000000" font-family="sans-serif" font-size="12" lengthAdjust="spacingAndGlyphs" textLength="66" x="128" y="136.1543">Composite</text><line style="stroke: #A80036; stroke-width: 1.5;" x1="100" x2="196" y1="148" y2="148"/><line style="stroke: #A80036; stroke-width: 1.5;" x1="100" x2="196" y1="156" y2="156"/><!--link Component to Composite--><path d="M135.435,76.2911 C134.9145,89.8171 135.4923,104.1835 137.1684,115.8436 " fill="none" id="Component-Composite" style="stroke: #A80036; stroke-width: 1.0;"/><polygon fill="none" points="128.4714,75.5651,137.1568,56.2373,142.4201,76.7628,128.4714,75.5651" style="stroke: #A80036; stroke-width: 1.0;"/><!--link Component to Composite--><path d="M160.9317,69.6145 C161.7017,80.3995 160.7826,103.9157 160.7826,103.9157 " fill="none" id="Component-Composite-1" style="stroke: #A80036; stroke-width: 1.0;"/><polygon fill="#FFFFFF" points="159.4688,115.8436,164.1017,110.3176,160.7826,103.9157,156.1497,109.4417,159.4688,115.8436" style="stroke: #A80036; stroke-width: 1.0;"/><polygon fill="#A80036" points="159.4811,56.2373,156.4747,65.6161,160.0202,61.2082,164.4281,64.7536,159.4811,56.2373" style="stroke: #A80036; stroke-width: 1.0;"/><line style="stroke: #A80036; stroke-width: 1.0;" x1="160.0202" x2="160.8827" y1="61.2082" y2="69.1616"/><text fill="#000000" font-family="sans-serif" font-size="13" lengthAdjust="spacingAndGlyphs" textLength="7" x="154.4265" y="76.0563">*</text><!--link Component to Leaf--><path d="M108.1522,70.0847 C92.2266,85.3056 74.3627,102.379 60.2748,115.8436 " fill="none" id="Component-Leaf" style="stroke: #A80036; stroke-width: 1.0;"/><polygon fill="none" points="103.3456,64.9955,122.6406,56.2373,113.0187,75.1164,103.3456,64.9955" style="stroke: #A80036; stroke-width: 1.0;"/><!--
@startuml composite
abstract class Component

class Leaf 
class Composite  
Component <|- - Composite
Component "*" <- -o Composite 

Component <|- - Leaf

@enduml

PlantUML version 1.2019.06(Sat May 25 03:10:25 AEST 2019)
(GPL source distribution)
Java Runtime: OpenJDK Runtime Environment
JVM: OpenJDK 64-Bit Server VM
Java Version: 11.0.4+11
Operating System: Linux
OS Version: 5.2.8-200.fc30.x86_64
Default Encoding: UTF-8
Language: en
Country: AU
--></g></svg>