<?xml version="1.0" encoding="UTF-8" standalone="no"?><svg xmlns="http://www.w3.org/2000/svg" xmlns:xlink="http://www.w3.org/1999/xlink" contentScriptType="application/ecmascript" contentStyleType="text/css" height="321px" preserveAspectRatio="none" style="width:393px;height:321px;" version="1.1" viewBox="0 0 393 321" width="393px" zoomAndPan="magnify"><defs><filter height="300%" id="f1xgorkx519mnt" width="300%" x="-1" y="-1"><feGaussianBlur result="blurOut" stdDeviation="2.0"/><feColorMatrix in="blurOut" result="blurOut2" type="matrix" values="0 0 0 0 0 0 0 0 0 0 0 0 0 0 0 0 0 0 .4 0"/><feOffset dx="4.0" dy="4.0" in="blurOut2" result="blurOut3"/><feBlend in="SourceGraphic" in2="blurOut3" mode="normal"/></filter></defs><g><!--class Component--><rect fill="#FEFECE" filter="url(#f1xgorkx519mnt)" height="60.8047" id="Component" style="stroke: #A80036; stroke-width: 1.5;" width="104" x="197.5" y="8"/><ellipse cx="212.5" cy="24" fill="#A9DCDF" rx="11" ry="11" style="stroke: #A80036; stroke-width: 1.0;"/><path d="M212.6094,19.3438 L211.4531,24.4219 L213.7813,24.4219 L212.6094,19.3438 Z M211.125,17.1094 L214.1094,17.1094 L217.4688,29.5 L215.0156,29.5 L214.25,26.4375 L210.9688,26.4375 L210.2188,29.5 L207.7813,29.5 L211.125,17.1094 Z "/><text fill="#000000" font-family="sans-serif" font-size="12" font-style="italic" lengthAdjust="spacingAndGlyphs" textLength="72" x="226.5" y="28.1543">Component</text><line style="stroke: #A80036; stroke-width: 1.5;" x1="198.5" x2="300.5" y1="40" y2="40"/><line style="stroke: #A80036; stroke-width: 1.5;" x1="198.5" x2="300.5" y1="48" y2="48"/><ellipse cx="208.5" cy="59.9023" fill="#84BE84" rx="3" ry="3" style="stroke: #038048; stroke-width: 1.0;"/><text fill="#000000" font-family="sans-serif" font-size="11" lengthAdjust="spacingAndGlyphs" textLength="62" x="217.5" y="62.2104">operation()</text><!--class ConcreteComponent--><rect fill="#FEFECE" filter="url(#f1xgorkx519mnt)" height="60.8047" id="ConcreteComponent" style="stroke: #A80036; stroke-width: 1.5;" width="161" x="6" y="129"/><ellipse cx="21" cy="145" fill="#ADD1B2" rx="11" ry="11" style="stroke: #A80036; stroke-width: 1.0;"/><path d="M23.9688,150.6406 Q23.3906,150.9375 22.75,151.0781 Q22.1094,151.2344 21.4063,151.2344 Q18.9063,151.2344 17.5781,149.5938 Q16.2656,147.9375 16.2656,144.8125 Q16.2656,141.6875 17.5781,140.0313 Q18.9063,138.375 21.4063,138.375 Q22.1094,138.375 22.75,138.5313 Q23.4063,138.6875 23.9688,138.9844 L23.9688,141.7031 Q23.3438,141.125 22.75,140.8594 Q22.1563,140.5781 21.5313,140.5781 Q20.1875,140.5781 19.5,141.6563 Q18.8125,142.7188 18.8125,144.8125 Q18.8125,146.9063 19.5,147.9844 Q20.1875,149.0469 21.5313,149.0469 Q22.1563,149.0469 22.75,148.7813 Q23.3438,148.5 23.9688,147.9219 L23.9688,150.6406 Z "/><text fill="#000000" font-family="sans-serif" font-size="12" lengthAdjust="spacingAndGlyphs" textLength="129" x="35" y="149.1543">ConcreteComponent</text><line style="stroke: #A80036; stroke-width: 1.5;" x1="7" x2="166" y1="161" y2="161"/><line style="stroke: #A80036; stroke-width: 1.5;" x1="7" x2="166" y1="169" y2="169"/><ellipse cx="17" cy="180.9023" fill="#84BE84" rx="3" ry="3" style="stroke: #038048; stroke-width: 1.0;"/><text fill="#000000" font-family="sans-serif" font-size="11" lengthAdjust="spacingAndGlyphs" textLength="62" x="26" y="183.2104">operation()</text><!--class Decorator--><rect fill="#FEFECE" filter="url(#f1xgorkx519mnt)" height="60.8047" id="Decorator" style="stroke: #A80036; stroke-width: 1.5;" width="95" x="202" y="129"/><ellipse cx="217" cy="145" fill="#A9DCDF" rx="11" ry="11" style="stroke: #A80036; stroke-width: 1.0;"/><path d="M217.1094,140.3438 L215.9531,145.4219 L218.2813,145.4219 L217.1094,140.3438 Z M215.625,138.1094 L218.6094,138.1094 L221.9688,150.5 L219.5156,150.5 L218.75,147.4375 L215.4688,147.4375 L214.7188,150.5 L212.2813,150.5 L215.625,138.1094 Z "/><text fill="#000000" font-family="sans-serif" font-size="12" font-style="italic" lengthAdjust="spacingAndGlyphs" textLength="63" x="231" y="149.1543">Decorator</text><line style="stroke: #A80036; stroke-width: 1.5;" x1="203" x2="296" y1="161" y2="161"/><line style="stroke: #A80036; stroke-width: 1.5;" x1="203" x2="296" y1="169" y2="169"/><ellipse cx="213" cy="180.9023" fill="#84BE84" rx="3" ry="3" style="stroke: #038048; stroke-width: 1.0;"/><text fill="#000000" font-family="sans-serif" font-size="11" lengthAdjust="spacingAndGlyphs" textLength="62" x="222" y="183.2104">operation()</text><!--class SuperpowerA--><rect fill="#FEFECE" filter="url(#f1xgorkx519mnt)" height="60.8047" id="SuperpowerA" style="stroke: #A80036; stroke-width: 1.5;" width="115" x="117" y="250"/><ellipse cx="132" cy="266" fill="#ADD1B2" rx="11" ry="11" style="stroke: #A80036; stroke-width: 1.0;"/><path d="M134.9688,271.6406 Q134.3906,271.9375 133.75,272.0781 Q133.1094,272.2344 132.4063,272.2344 Q129.9063,272.2344 128.5781,270.5938 Q127.2656,268.9375 127.2656,265.8125 Q127.2656,262.6875 128.5781,261.0313 Q129.9063,259.375 132.4063,259.375 Q133.1094,259.375 133.75,259.5313 Q134.4063,259.6875 134.9688,259.9844 L134.9688,262.7031 Q134.3438,262.125 133.75,261.8594 Q133.1563,261.5781 132.5313,261.5781 Q131.1875,261.5781 130.5,262.6563 Q129.8125,263.7188 129.8125,265.8125 Q129.8125,267.9063 130.5,268.9844 Q131.1875,270.0469 132.5313,270.0469 Q133.1563,270.0469 133.75,269.7813 Q134.3438,269.5 134.9688,268.9219 L134.9688,271.6406 Z "/><text fill="#000000" font-family="sans-serif" font-size="12" lengthAdjust="spacingAndGlyphs" textLength="83" x="146" y="270.1543">SuperpowerA</text><line style="stroke: #A80036; stroke-width: 1.5;" x1="118" x2="231" y1="282" y2="282"/><line style="stroke: #A80036; stroke-width: 1.5;" x1="118" x2="231" y1="290" y2="290"/><ellipse cx="128" cy="301.9023" fill="#84BE84" rx="3" ry="3" style="stroke: #038048; stroke-width: 1.0;"/><text fill="#000000" font-family="sans-serif" font-size="11" lengthAdjust="spacingAndGlyphs" textLength="62" x="137" y="304.2104">operation()</text><!--class SuperpowerB--><rect fill="#FEFECE" filter="url(#f1xgorkx519mnt)" height="60.8047" id="SuperpowerB" style="stroke: #A80036; stroke-width: 1.5;" width="115" x="267" y="250"/><ellipse cx="282" cy="266" fill="#ADD1B2" rx="11" ry="11" style="stroke: #A80036; stroke-width: 1.0;"/><path d="M284.9688,271.6406 Q284.3906,271.9375 283.75,272.0781 Q283.1094,272.2344 282.4063,272.2344 Q279.9063,272.2344 278.5781,270.5938 Q277.2656,268.9375 277.2656,265.8125 Q277.2656,262.6875 278.5781,261.0313 Q279.9063,259.375 282.4063,259.375 Q283.1094,259.375 283.75,259.5313 Q284.4063,259.6875 284.9688,259.9844 L284.9688,262.7031 Q284.3438,262.125 283.75,261.8594 Q283.1563,261.5781 282.5313,261.5781 Q281.1875,261.5781 280.5,262.6563 Q279.8125,263.7188 279.8125,265.8125 Q279.8125,267.9063 280.5,268.9844 Q281.1875,270.0469 282.5313,270.0469 Q283.1563,270.0469 283.75,269.7813 Q284.3438,269.5 284.9688,268.9219 L284.9688,271.6406 Z "/><text fill="#000000" font-family="sans-serif" font-size="12" lengthAdjust="spacingAndGlyphs" textLength="83" x="296" y="270.1543">SuperpowerB</text><line style="stroke: #A80036; stroke-width: 1.5;" x1="268" x2="381" y1="282" y2="282"/><line style="stroke: #A80036; stroke-width: 1.5;" x1="268" x2="381" y1="290" y2="290"/><ellipse cx="278" cy="301.9023" fill="#84BE84" rx="3" ry="3" style="stroke: #038048; stroke-width: 1.0;"/><text fill="#000000" font-family="sans-serif" font-size="11" lengthAdjust="spacingAndGlyphs" textLength="62" x="287" y="304.2104">operation()</text><!--link Component to ConcreteComponent--><path d="M192.2872,80.9709 C170.9689,96.7961 147.2107,114.4326 127.6186,128.9764 " fill="none" id="Component-ConcreteComponent" style="stroke: #A80036; stroke-width: 1.0;"/><polygon fill="none" points="188.1369,75.3339,208.3682,69.0334,196.4817,86.5751,188.1369,75.3339" style="stroke: #A80036; stroke-width: 1.0;"/><!--link Component to Decorator--><path d="M236.897,89.2927 C236.4851,102.7857 236.9387,116.9401 238.2577,128.9764 " fill="none" id="Component-Decorator" style="stroke: #A80036; stroke-width: 1.0;"/><polygon fill="none" points="229.933,88.5198,238.2566,69.0334,243.9016,89.4573,229.933,88.5198" style="stroke: #A80036; stroke-width: 1.0;"/><!--link Decorator to Component--><path d="M262.4196,117.0195 C262.4196,117.0195 263.1556,93.0556 262.5231,82.1434 " fill="none" id="Decorator-Component" style="stroke: #A80036; stroke-width: 1.0;"/><polygon fill="#A80036" points="261.4048,69.0334,258.1843,78.3408,261.8298,74.0153,266.1553,77.6608,261.4048,69.0334" style="stroke: #A80036; stroke-width: 1.0;"/><line style="stroke: #A80036; stroke-width: 1.0;" x1="261.8298" x2="262.5098" y1="74.0153" y2="81.9864"/><polygon fill="#FFFFFF" points="261.4037,128.9764,265.8973,123.3366,262.4196,117.0195,257.926,122.6593,261.4037,128.9764" style="stroke: #A80036; stroke-width: 1.0;"/><text fill="#000000" font-family="sans-serif" font-size="13" lengthAdjust="spacingAndGlyphs" textLength="8" x="255.0352" y="88.9785">1</text><!--link Decorator to SuperpowerA--><path d="M219.8022,207.4125 C210.9135,221.7528 201.413,237.0804 193.4196,249.9764 " fill="none" id="Decorator-SuperpowerA" style="stroke: #A80036; stroke-width: 1.0;"/><polygon fill="none" points="214.0878,203.3449,230.5743,190.0334,225.9873,210.7206,214.0878,203.3449" style="stroke: #A80036; stroke-width: 1.0;"/><!--link Decorator to SuperpowerB--><path d="M279.1978,207.4125 C288.0865,221.7528 297.587,237.0804 305.5804,249.9764 " fill="none" id="Decorator-SuperpowerB" style="stroke: #A80036; stroke-width: 1.0;"/><polygon fill="none" points="273.0127,210.7206,268.4257,190.0334,284.9122,203.3449,273.0127,210.7206" style="stroke: #A80036; stroke-width: 1.0;"/><!--
@startuml decorator

abstract class Component {
  + operation()
}
class ConcreteComponent {
    + operation()
}
Component <|- - ConcreteComponent
abstract class Decorator {
    + operation()
}
Component <|- - Decorator
Decorator o- -> "1" Component


class SuperpowerA extends Decorator {
    + operation()
}

class SuperpowerB extends Decorator {
    + operation()
}

@enduml

PlantUML version 1.2019.06(Sat May 25 03:10:25 AEST 2019)
(GPL source distribution)
Java Runtime: OpenJDK Runtime Environment
JVM: OpenJDK 64-Bit Server VM
Java Version: 11.0.4+11
Operating System: Linux
OS Version: 5.2.8-200.fc30.x86_64
Default Encoding: UTF-8
Language: en
Country: AU
--></g></svg>