<?xml version="1.0" encoding="UTF-8" standalone="no"?><svg xmlns="http://www.w3.org/2000/svg" xmlns:xlink="http://www.w3.org/1999/xlink" contentScriptType="application/ecmascript" contentStyleType="text/css" height="207px" preserveAspectRatio="none" style="width:551px;height:207px;" version="1.1" viewBox="0 0 551 207" width="551px" zoomAndPan="magnify"><defs><filter height="300%" id="f1igxfdvjvh67t" width="300%" x="-1" y="-1"><feGaussianBlur result="blurOut" stdDeviation="2.0"/><feColorMatrix in="blurOut" result="blurOut2" type="matrix" values="0 0 0 0 0 0 0 0 0 0 0 0 0 0 0 0 0 0 .4 0"/><feOffset dx="4.0" dy="4.0" in="blurOut2" result="blurOut3"/><feBlend in="SourceGraphic" in2="blurOut3" mode="normal"/></filter></defs><g><!--class Mediator--><rect fill="#FEFECE" filter="url(#f1igxfdvjvh67t)" height="60.8047" id="Mediator" style="stroke: #A80036; stroke-width: 1.5;" width="157" x="6" y="8"/><ellipse cx="52.75" cy="24" fill="#B4A7E5" rx="11" ry="11" style="stroke: #A80036; stroke-width: 1.0;"/><path d="M48.6719,19.7656 L48.6719,17.6094 L56.0625,17.6094 L56.0625,19.7656 L53.5938,19.7656 L53.5938,27.8438 L56.0625,27.8438 L56.0625,30 L48.6719,30 L48.6719,27.8438 L51.1406,27.8438 L51.1406,19.7656 L48.6719,19.7656 Z "/><text fill="#000000" font-family="sans-serif" font-size="12" font-style="italic" lengthAdjust="spacingAndGlyphs" textLength="55" x="73.25" y="28.1543">Mediator</text><line style="stroke: #A80036; stroke-width: 1.5;" x1="7" x2="162" y1="40" y2="40"/><line style="stroke: #A80036; stroke-width: 1.5;" x1="7" x2="162" y1="48" y2="48"/><ellipse cx="17" cy="59.9023" fill="#84BE84" rx="3" ry="3" style="stroke: #038048; stroke-width: 1.0;"/><text fill="#000000" font-family="sans-serif" font-size="11" lengthAdjust="spacingAndGlyphs" textLength="131" x="26" y="62.2104">send(target, message)</text><!--class Colleague--><rect fill="#FEFECE" filter="url(#f1igxfdvjvh67t)" height="60.8047" id="Colleague" style="stroke: #A80036; stroke-width: 1.5;" width="128" x="202.5" y="8"/><ellipse cx="232.8" cy="24" fill="#B4A7E5" rx="11" ry="11" style="stroke: #A80036; stroke-width: 1.0;"/><path d="M228.7219,19.7656 L228.7219,17.6094 L236.1125,17.6094 L236.1125,19.7656 L233.6438,19.7656 L233.6438,27.8438 L236.1125,27.8438 L236.1125,30 L228.7219,30 L228.7219,27.8438 L231.1906,27.8438 L231.1906,19.7656 L228.7219,19.7656 Z "/><text fill="#000000" font-family="sans-serif" font-size="12" font-style="italic" lengthAdjust="spacingAndGlyphs" textLength="62" x="250.2" y="28.1543">Colleague</text><line style="stroke: #A80036; stroke-width: 1.5;" x1="203.5" x2="329.5" y1="40" y2="40"/><line style="stroke: #A80036; stroke-width: 1.5;" x1="203.5" x2="329.5" y1="48" y2="48"/><ellipse cx="213.5" cy="59.9023" fill="#84BE84" rx="3" ry="3" style="stroke: #038048; stroke-width: 1.0;"/><text fill="#000000" font-family="sans-serif" font-size="11" lengthAdjust="spacingAndGlyphs" textLength="102" x="222.5" y="62.2104">receive(message)</text><!--class ConcreteColleague1--><rect fill="#FEFECE" filter="url(#f1igxfdvjvh67t)" height="48" id="ConcreteColleague1" style="stroke: #A80036; stroke-width: 1.5;" width="159" x="381" y="129"/><ellipse cx="396" cy="145" fill="#ADD1B2" rx="11" ry="11" style="stroke: #A80036; stroke-width: 1.0;"/><path d="M398.9688,150.6406 Q398.3906,150.9375 397.75,151.0781 Q397.1094,151.2344 396.4063,151.2344 Q393.9063,151.2344 392.5781,149.5938 Q391.2656,147.9375 391.2656,144.8125 Q391.2656,141.6875 392.5781,140.0313 Q393.9063,138.375 396.4063,138.375 Q397.1094,138.375 397.75,138.5313 Q398.4063,138.6875 398.9688,138.9844 L398.9688,141.7031 Q398.3438,141.125 397.75,140.8594 Q397.1563,140.5781 396.5313,140.5781 Q395.1875,140.5781 394.5,141.6563 Q393.8125,142.7188 393.8125,144.8125 Q393.8125,146.9063 394.5,147.9844 Q395.1875,149.0469 396.5313,149.0469 Q397.1563,149.0469 397.75,148.7813 Q398.3438,148.5 398.9688,147.9219 L398.9688,150.6406 Z "/><text fill="#000000" font-family="sans-serif" font-size="12" lengthAdjust="spacingAndGlyphs" textLength="127" x="410" y="149.1543">ConcreteColleague1</text><line style="stroke: #A80036; stroke-width: 1.5;" x1="382" x2="539" y1="161" y2="161"/><line style="stroke: #A80036; stroke-width: 1.5;" x1="382" x2="539" y1="169" y2="169"/><!--class ConcreteColleague2--><rect fill="#FEFECE" filter="url(#f1igxfdvjvh67t)" height="48" id="ConcreteColleague2" style="stroke: #A80036; stroke-width: 1.5;" width="159" x="187" y="129"/><ellipse cx="202" cy="145" fill="#ADD1B2" rx="11" ry="11" style="stroke: #A80036; stroke-width: 1.0;"/><path d="M204.9688,150.6406 Q204.3906,150.9375 203.75,151.0781 Q203.1094,151.2344 202.4063,151.2344 Q199.9063,151.2344 198.5781,149.5938 Q197.2656,147.9375 197.2656,144.8125 Q197.2656,141.6875 198.5781,140.0313 Q199.9063,138.375 202.4063,138.375 Q203.1094,138.375 203.75,138.5313 Q204.4063,138.6875 204.9688,138.9844 L204.9688,141.7031 Q204.3438,141.125 203.75,140.8594 Q203.1563,140.5781 202.5313,140.5781 Q201.1875,140.5781 200.5,141.6563 Q199.8125,142.7188 199.8125,144.8125 Q199.8125,146.9063 200.5,147.9844 Q201.1875,149.0469 202.5313,149.0469 Q203.1563,149.0469 203.75,148.7813 Q204.3438,148.5 204.9688,147.9219 L204.9688,150.6406 Z "/><text fill="#000000" font-family="sans-serif" font-size="12" lengthAdjust="spacingAndGlyphs" textLength="127" x="216" y="149.1543">ConcreteColleague2</text><line style="stroke: #A80036; stroke-width: 1.5;" x1="188" x2="345" y1="161" y2="161"/><line style="stroke: #A80036; stroke-width: 1.5;" x1="188" x2="345" y1="169" y2="169"/><!--class ConcreteMediator--><rect fill="#FEFECE" filter="url(#f1igxfdvjvh67t)" height="48" id="ConcreteMediator" style="stroke: #A80036; stroke-width: 1.5;" width="144" x="7.5" y="129"/><ellipse cx="22.5" cy="145" fill="#ADD1B2" rx="11" ry="11" style="stroke: #A80036; stroke-width: 1.0;"/><path d="M25.4688,150.6406 Q24.8906,150.9375 24.25,151.0781 Q23.6094,151.2344 22.9063,151.2344 Q20.4063,151.2344 19.0781,149.5938 Q17.7656,147.9375 17.7656,144.8125 Q17.7656,141.6875 19.0781,140.0313 Q20.4063,138.375 22.9063,138.375 Q23.6094,138.375 24.25,138.5313 Q24.9063,138.6875 25.4688,138.9844 L25.4688,141.7031 Q24.8438,141.125 24.25,140.8594 Q23.6563,140.5781 23.0313,140.5781 Q21.6875,140.5781 21,141.6563 Q20.3125,142.7188 20.3125,144.8125 Q20.3125,146.9063 21,147.9844 Q21.6875,149.0469 23.0313,149.0469 Q23.6563,149.0469 24.25,148.7813 Q24.8438,148.5 25.4688,147.9219 L25.4688,150.6406 Z "/><text fill="#000000" font-family="sans-serif" font-size="12" lengthAdjust="spacingAndGlyphs" textLength="112" x="36.5" y="149.1543">ConcreteMediator</text><line style="stroke: #A80036; stroke-width: 1.5;" x1="8.5" x2="150.5" y1="161" y2="161"/><line style="stroke: #A80036; stroke-width: 1.5;" x1="8.5" x2="150.5" y1="169" y2="169"/><!--link Colleague to ConcreteColleague1--><path d="M350.5605,39 C350.5605,39 460.5,39 460.5,39 C460.5,39 460.5,95.3599 460.5,128.8235 " fill="none" id="Colleague-ConcreteColleague1" style="stroke: #A80036; stroke-width: 1.0;"/><polygon fill="none" points="350.5605,45.9999,330.5605,39,350.5605,31.9999,350.5605,45.9999" style="stroke: #A80036; stroke-width: 1.0;"/><!--link Colleague to ConcreteColleague2--><path d="M266.5,89.1839 C266.5,89.1839 266.5,128.7634 266.5,128.7634 " fill="none" id="Colleague-ConcreteColleague2" style="stroke: #A80036; stroke-width: 1.0;"/><polygon fill="none" points="259.5001,89.1839,266.5,69.1839,273.5001,89.1839,259.5001,89.1839" style="stroke: #A80036; stroke-width: 1.0;"/><!--link Mediator to ConcreteMediator--><path d="M79.5,89.1839 C79.5,89.1839 79.5,128.7634 79.5,128.7634 " fill="none" id="Mediator-ConcreteMediator" style="stroke: #A80036; stroke-width: 1.0;"/><polygon fill="none" points="72.5001,89.1839,79.5,69.1839,86.5001,89.1839,72.5001,89.1839" style="stroke: #A80036; stroke-width: 1.0;"/><!--link ConcreteMediator to ConcreteColleague1--><path d="M79.5,189.4316 C79.5,189.4316 79.5,195 79.5,195 C79.5,195 460.5,195 460.5,195 C460.5,195 460.5,190.4316 460.5,190.4316 " fill="none" id="ConcreteMediator-ConcreteColleague1" style="stroke: #A80036; stroke-width: 1.0;"/><polygon fill="#A80036" points="460.5,177.4316,456.5,186.4316,460.5,182.4316,464.5,186.4316,460.5,177.4316" style="stroke: #A80036; stroke-width: 1.0;"/><line style="stroke: #A80036; stroke-width: 1.0;" x1="460.5" x2="460.5001" y1="182.4316" y2="190.4316"/><polygon fill="#FFFFFF" points="79.5,177.4316,75.5,183.4316,79.5,189.4316,83.5,183.4316,79.5,177.4316" style="stroke: #A80036; stroke-width: 1.0;"/><!--link ConcreteMediator to ConcreteColleague2--><path d="M163.5316,153 C163.5316,153 173.7291,153 173.7291,153 " fill="none" id="ConcreteMediator-ConcreteColleague2" style="stroke: #A80036; stroke-width: 1.0;"/><polygon fill="#A80036" points="186.7291,153,177.7291,149,181.7291,153,177.7291,157,186.7291,153" style="stroke: #A80036; stroke-width: 1.0;"/><line style="stroke: #A80036; stroke-width: 1.0;" x1="181.7291" x2="173.7291" y1="153" y2="152.9999"/><polygon fill="#FFFFFF" points="151.5316,153,157.5316,157,163.5316,153,157.5316,149,151.5316,153" style="stroke: #A80036; stroke-width: 1.0;"/><!--link Mediator to Colleague--><path d="M168.0049,39 C168.0049,39 202.4811,39 202.4811,39 " fill="none" id="Mediator-Colleague" style="stroke: #A80036; stroke-width: 1.0;"/><polygon fill="#A80036" points="163.0049,39,172.0049,43,168.0049,39,172.0049,35,163.0049,39" style="stroke: #A80036; stroke-width: 1.0;"/><!--
@startuml mediator
skinparam Linetype ortho

interface Mediator {
    + send(target, message)
}

interface Colleague {
    + receive(message)
}



class ConcreteColleague1 extends Colleague
class ConcreteColleague2 extends Colleague

class ConcreteMediator extends Mediator
ConcreteMediator o-> ConcreteColleague1
ConcreteMediator o-> ConcreteColleague2

Mediator <- Colleague

@enduml

PlantUML version 1.2019.06(Sat May 25 03:10:25 AEST 2019)
(GPL source distribution)
Java Runtime: OpenJDK Runtime Environment
JVM: OpenJDK 64-Bit Server VM
Java Version: 11.0.4+11
Operating System: Linux
OS Version: 5.2.8-200.fc30.x86_64
Default Encoding: UTF-8
Language: en
Country: AU
--></g></svg>