<?xml version="1.0" encoding="UTF-8" standalone="no"?><svg xmlns="http://www.w3.org/2000/svg" xmlns:xlink="http://www.w3.org/1999/xlink" contentScriptType="application/ecmascript" contentStyleType="text/css" height="208px" preserveAspectRatio="none" style="width:508px;height:208px;" version="1.1" viewBox="0 0 508 208" width="508px" zoomAndPan="magnify"><defs><filter height="300%" id="f1igxfdvjvh67t" width="300%" x="-1" y="-1"><feGaussianBlur result="blurOut" stdDeviation="2.0"/><feColorMatrix in="blurOut" result="blurOut2" type="matrix" values="0 0 0 0 0 0 0 0 0 0 0 0 0 0 0 0 0 0 .4 0"/><feOffset dx="4.0" dy="4.0" in="blurOut2" result="blurOut3"/><feBlend in="SourceGraphic" in2="blurOut3" mode="normal"/></filter></defs><g><!--class Mediator--><rect fill="#FEFECE" filter="url(#f1igxfdvjvh67t)" height="61.8359" id="Mediator" style="stroke: #A80036; stroke-width: 1.5;" width="136" x="8.5" y="8"/><ellipse cx="49.15" cy="24" fill="#B4A7E5" rx="11" ry="11" style="stroke: #A80036; stroke-width: 1.0;"/><path d="M50.1031,20.6406 L50.1031,27.2969 L51.8219,27.2969 Q52.4313,27.2969 52.6969,27.5313 Q52.9625,27.7656 52.9625,28.1563 Q52.9625,28.5313 52.6969,28.7656 Q52.4313,29 51.8219,29 L46.6813,29 Q46.0719,29 45.8063,28.7656 Q45.5406,28.5313 45.5406,28.1406 Q45.5406,27.7656 45.8063,27.5313 Q46.0719,27.2969 46.6813,27.2969 L48.4,27.2969 L48.4,20.6406 L46.6813,20.6406 Q46.0719,20.6406 45.8063,20.4063 Q45.5406,20.1719 45.5406,19.7813 Q45.5406,19.4063 45.8063,19.1719 Q46.0719,18.9375 46.6813,18.9375 L51.8219,18.9375 Q52.4313,18.9375 52.6969,19.1719 Q52.9625,19.4063 52.9625,19.7813 Q52.9625,20.1719 52.6969,20.4063 Q52.4313,20.6406 51.8219,20.6406 L50.1031,20.6406 Z "/><text fill="#000000" font-family="sans-serif" font-size="12" font-style="italic" lengthAdjust="spacingAndGlyphs" textLength="47" x="68.85" y="28.9102">Mediator</text><line style="stroke: #A80036; stroke-width: 1.5;" x1="9.5" x2="143.5" y1="40" y2="40"/><line style="stroke: #A80036; stroke-width: 1.5;" x1="9.5" x2="143.5" y1="48" y2="48"/><ellipse cx="19.5" cy="60.418" fill="#84BE84" rx="3" ry="3" style="stroke: #038048; stroke-width: 1.0;"/><text fill="#000000" font-family="sans-serif" font-size="11" lengthAdjust="spacingAndGlyphs" textLength="110" x="28.5" y="63.4189">send(target, message)</text><!--class Colleague--><rect fill="#FEFECE" filter="url(#f1igxfdvjvh67t)" height="61.8359" id="Colleague" style="stroke: #A80036; stroke-width: 1.5;" width="114" x="186.5" y="8"/><ellipse cx="212.75" cy="24" fill="#B4A7E5" rx="11" ry="11" style="stroke: #A80036; stroke-width: 1.0;"/><path d="M213.7031,20.6406 L213.7031,27.2969 L215.4219,27.2969 Q216.0313,27.2969 216.2969,27.5313 Q216.5625,27.7656 216.5625,28.1563 Q216.5625,28.5313 216.2969,28.7656 Q216.0313,29 215.4219,29 L210.2813,29 Q209.6719,29 209.4063,28.7656 Q209.1406,28.5313 209.1406,28.1406 Q209.1406,27.7656 209.4063,27.5313 Q209.6719,27.2969 210.2813,27.2969 L212,27.2969 L212,20.6406 L210.2813,20.6406 Q209.6719,20.6406 209.4063,20.4063 Q209.1406,20.1719 209.1406,19.7813 Q209.1406,19.4063 209.4063,19.1719 Q209.6719,18.9375 210.2813,18.9375 L215.4219,18.9375 Q216.0313,18.9375 216.2969,19.1719 Q216.5625,19.4063 216.5625,19.7813 Q216.5625,20.1719 216.2969,20.4063 Q216.0313,20.6406 215.4219,20.6406 L213.7031,20.6406 Z "/><text fill="#000000" font-family="sans-serif" font-size="12" font-style="italic" lengthAdjust="spacingAndGlyphs" textLength="57" x="229.25" y="28.9102">Colleague</text><line style="stroke: #A80036; stroke-width: 1.5;" x1="187.5" x2="299.5" y1="40" y2="40"/><line style="stroke: #A80036; stroke-width: 1.5;" x1="187.5" x2="299.5" y1="48" y2="48"/><ellipse cx="197.5" cy="60.418" fill="#84BE84" rx="3" ry="3" style="stroke: #038048; stroke-width: 1.0;"/><text fill="#000000" font-family="sans-serif" font-size="11" lengthAdjust="spacingAndGlyphs" textLength="88" x="206.5" y="63.4189">receive(message)</text><!--class ConcreteColleague1--><rect fill="#FEFECE" filter="url(#f1igxfdvjvh67t)" height="48" id="ConcreteColleague1" style="stroke: #A80036; stroke-width: 1.5;" width="146" x="351.5" y="130"/><ellipse cx="366.5" cy="146" fill="#ADD1B2" rx="11" ry="11" style="stroke: #A80036; stroke-width: 1.0;"/><path d="M369.2656,141.875 Q369.4219,141.6563 369.6094,141.5469 Q369.7969,141.4375 370.0156,141.4375 Q370.3906,141.4375 370.625,141.7031 Q370.8594,141.9531 370.8594,142.5625 L370.8594,144.0156 Q370.8594,144.625 370.625,144.8906 Q370.3906,145.1563 370.0156,145.1563 Q369.6719,145.1563 369.4688,144.9531 Q369.2656,144.7656 369.1563,144.25 Q369.1094,143.8906 368.9219,143.7031 Q368.5938,143.3281 367.9844,143.1094 Q367.375,142.8906 366.75,142.8906 Q365.9844,142.8906 365.3438,143.2188 Q364.7188,143.5469 364.2188,144.2969 Q363.7344,145.0469 363.7344,146.0781 L363.7344,147.1719 Q363.7344,148.4063 364.625,149.2344 Q365.5156,150.0469 367.1094,150.0469 Q368.0469,150.0469 368.7031,149.7969 Q369.0938,149.6406 369.5156,149.2031 Q369.7813,148.9375 369.9219,148.8594 Q370.0781,148.7813 370.2813,148.7813 Q370.6094,148.7813 370.8594,149.0469 Q371.125,149.2969 371.125,149.6406 Q371.125,149.9844 370.7813,150.3906 Q370.2813,150.9688 369.4844,151.2969 Q368.4063,151.75 367.1094,151.75 Q365.5938,151.75 364.3906,151.125 Q363.4063,150.625 362.7188,149.5625 Q362.0313,148.4844 362.0313,147.2031 L362.0313,146.0469 Q362.0313,144.7188 362.6406,143.5781 Q363.2656,142.4219 364.3594,141.8125 Q365.4531,141.1875 366.6875,141.1875 Q367.4219,141.1875 368.0625,141.3594 Q368.7188,141.5156 369.2656,141.875 Z "/><text fill="#000000" font-family="sans-serif" font-size="12" lengthAdjust="spacingAndGlyphs" textLength="114" x="380.5" y="150.9102">ConcreteColleague1</text><line style="stroke: #A80036; stroke-width: 1.5;" x1="352.5" x2="496.5" y1="162" y2="162"/><line style="stroke: #A80036; stroke-width: 1.5;" x1="352.5" x2="496.5" y1="170" y2="170"/><!--class ConcreteColleague2--><rect fill="#FEFECE" filter="url(#f1igxfdvjvh67t)" height="48" id="ConcreteColleague2" style="stroke: #A80036; stroke-width: 1.5;" width="146" x="170.5" y="130"/><ellipse cx="185.5" cy="146" fill="#ADD1B2" rx="11" ry="11" style="stroke: #A80036; stroke-width: 1.0;"/><path d="M188.2656,141.875 Q188.4219,141.6563 188.6094,141.5469 Q188.7969,141.4375 189.0156,141.4375 Q189.3906,141.4375 189.625,141.7031 Q189.8594,141.9531 189.8594,142.5625 L189.8594,144.0156 Q189.8594,144.625 189.625,144.8906 Q189.3906,145.1563 189.0156,145.1563 Q188.6719,145.1563 188.4688,144.9531 Q188.2656,144.7656 188.1563,144.25 Q188.1094,143.8906 187.9219,143.7031 Q187.5938,143.3281 186.9844,143.1094 Q186.375,142.8906 185.75,142.8906 Q184.9844,142.8906 184.3438,143.2188 Q183.7188,143.5469 183.2188,144.2969 Q182.7344,145.0469 182.7344,146.0781 L182.7344,147.1719 Q182.7344,148.4063 183.625,149.2344 Q184.5156,150.0469 186.1094,150.0469 Q187.0469,150.0469 187.7031,149.7969 Q188.0938,149.6406 188.5156,149.2031 Q188.7813,148.9375 188.9219,148.8594 Q189.0781,148.7813 189.2813,148.7813 Q189.6094,148.7813 189.8594,149.0469 Q190.125,149.2969 190.125,149.6406 Q190.125,149.9844 189.7813,150.3906 Q189.2813,150.9688 188.4844,151.2969 Q187.4063,151.75 186.1094,151.75 Q184.5938,151.75 183.3906,151.125 Q182.4063,150.625 181.7188,149.5625 Q181.0313,148.4844 181.0313,147.2031 L181.0313,146.0469 Q181.0313,144.7188 181.6406,143.5781 Q182.2656,142.4219 183.3594,141.8125 Q184.4531,141.1875 185.6875,141.1875 Q186.4219,141.1875 187.0625,141.3594 Q187.7188,141.5156 188.2656,141.875 Z "/><text fill="#000000" font-family="sans-serif" font-size="12" lengthAdjust="spacingAndGlyphs" textLength="114" x="199.5" y="150.9102">ConcreteColleague2</text><line style="stroke: #A80036; stroke-width: 1.5;" x1="171.5" x2="315.5" y1="162" y2="162"/><line style="stroke: #A80036; stroke-width: 1.5;" x1="171.5" x2="315.5" y1="170" y2="170"/><!--class ConcreteMediator--><rect fill="#FEFECE" filter="url(#f1igxfdvjvh67t)" height="48" id="ConcreteMediator" style="stroke: #A80036; stroke-width: 1.5;" width="129" x="6" y="130"/><ellipse cx="21" cy="146" fill="#ADD1B2" rx="11" ry="11" style="stroke: #A80036; stroke-width: 1.0;"/><path d="M23.7656,141.875 Q23.9219,141.6563 24.1094,141.5469 Q24.2969,141.4375 24.5156,141.4375 Q24.8906,141.4375 25.125,141.7031 Q25.3594,141.9531 25.3594,142.5625 L25.3594,144.0156 Q25.3594,144.625 25.125,144.8906 Q24.8906,145.1563 24.5156,145.1563 Q24.1719,145.1563 23.9688,144.9531 Q23.7656,144.7656 23.6563,144.25 Q23.6094,143.8906 23.4219,143.7031 Q23.0938,143.3281 22.4844,143.1094 Q21.875,142.8906 21.25,142.8906 Q20.4844,142.8906 19.8438,143.2188 Q19.2188,143.5469 18.7188,144.2969 Q18.2344,145.0469 18.2344,146.0781 L18.2344,147.1719 Q18.2344,148.4063 19.125,149.2344 Q20.0156,150.0469 21.6094,150.0469 Q22.5469,150.0469 23.2031,149.7969 Q23.5938,149.6406 24.0156,149.2031 Q24.2813,148.9375 24.4219,148.8594 Q24.5781,148.7813 24.7813,148.7813 Q25.1094,148.7813 25.3594,149.0469 Q25.625,149.2969 25.625,149.6406 Q25.625,149.9844 25.2813,150.3906 Q24.7813,150.9688 23.9844,151.2969 Q22.9063,151.75 21.6094,151.75 Q20.0938,151.75 18.8906,151.125 Q17.9063,150.625 17.2188,149.5625 Q16.5313,148.4844 16.5313,147.2031 L16.5313,146.0469 Q16.5313,144.7188 17.1406,143.5781 Q17.7656,142.4219 18.8594,141.8125 Q19.9531,141.1875 21.1875,141.1875 Q21.9219,141.1875 22.5625,141.3594 Q23.2188,141.5156 23.7656,141.875 Z "/><text fill="#000000" font-family="sans-serif" font-size="12" lengthAdjust="spacingAndGlyphs" textLength="97" x="35" y="150.9102">ConcreteMediator</text><line style="stroke: #A80036; stroke-width: 1.5;" x1="7" x2="134" y1="162" y2="162"/><line style="stroke: #A80036; stroke-width: 1.5;" x1="7" x2="134" y1="170" y2="170"/><!--link Colleague to ConcreteColleague1--><path d="M320.77,39 C320.77,39 424.5,39 424.5,39 C424.5,39 424.5,96.1705 424.5,129.8922 " fill="none" id="Colleague-ConcreteColleague1" style="stroke: #A80036; stroke-width: 1.0;"/><polygon fill="none" points="320.77,46,300.77,39,320.769,32,320.77,46" style="stroke: #A80036; stroke-width: 1.0;"/><!--link Colleague to ConcreteColleague2--><path d="M243.5,90.121 C243.5,90.121 243.5,129.7838 243.5,129.7838 " fill="none" id="Colleague-ConcreteColleague2" style="stroke: #A80036; stroke-width: 1.0;"/><polygon fill="none" points="236.5,90.121,243.5,70.121,250.5,90.121,236.5,90.121" style="stroke: #A80036; stroke-width: 1.0;"/><!--link Mediator to ConcreteMediator--><path d="M71.75,90.121 C71.75,90.121 71.75,129.7838 71.75,129.7838 " fill="none" id="Mediator-ConcreteMediator" style="stroke: #A80036; stroke-width: 1.0;"/><polygon fill="none" points="64.7501,90.121,71.75,70.121,78.7501,90.121,64.7501,90.121" style="stroke: #A80036; stroke-width: 1.0;"/><!--link ConcreteMediator to ConcreteColleague1--><path d="M70.5,190.4316 C70.5,190.4316 70.5,196 70.5,196 C70.5,196 424.5,196 424.5,196 C424.5,196 424.5,191.4316 424.5,191.4316 " fill="none" id="ConcreteMediator-ConcreteColleague1" style="stroke: #A80036; stroke-width: 1.0;"/><polygon fill="#A80036" points="424.5,178.4316,420.5,187.4316,424.5,183.4316,428.5,187.4316,424.5,178.4316" style="stroke: #A80036; stroke-width: 1.0;"/><line style="stroke: #A80036; stroke-width: 1.0;" x1="424.5" x2="424.5" y1="183.4316" y2="191.4316"/><polygon fill="#FFFFFF" points="70.5,178.4316,66.5,184.4316,70.5,190.4316,74.5,184.4316,70.5,178.4316" style="stroke: #A80036; stroke-width: 1.0;"/><!--link ConcreteMediator to ConcreteColleague2--><path d="M147.411,154 C147.411,154 157.38,154 157.38,154 " fill="none" id="ConcreteMediator-ConcreteColleague2" style="stroke: #A80036; stroke-width: 1.0;"/><polygon fill="#A80036" points="170.38,154,161.38,150,165.38,154,161.38,158,170.38,154" style="stroke: #A80036; stroke-width: 1.0;"/><line style="stroke: #A80036; stroke-width: 1.0;" x1="165.38" x2="157.38" y1="154" y2="153.9999"/><polygon fill="#FFFFFF" points="135.411,154,141.411,158,147.411,154,141.411,150,135.411,154" style="stroke: #A80036; stroke-width: 1.0;"/><!--link Mediator to Colleague--><path d="M149.907,39 C149.907,39 186.385,39 186.385,39 " fill="none" id="Mediator-Colleague" style="stroke: #A80036; stroke-width: 1.0;"/><polygon fill="#A80036" points="144.907,39,153.907,43,149.907,39,153.907,35,144.907,39" style="stroke: #A80036; stroke-width: 1.0;"/><!--
@startuml mediator
skinparam Linetype ortho

interface Mediator {
    + send(target, message)
}

interface Colleague {
    + receive(message)
}



class ConcreteColleague1 extends Colleague
class ConcreteColleague2 extends Colleague

class ConcreteMediator extends Mediator
ConcreteMediator o-> ConcreteColleague1
ConcreteMediator o-> ConcreteColleague2

Mediator <- Colleague

@enduml

PlantUML version 1.2019.06(Sat May 25 03:10:25 AEST 2019)
(GPL source distribution)
Java Runtime: OpenJDK Runtime Environment
JVM: OpenJDK 64-Bit Server VM
Java Version: 11.0.3+7
Operating System: Windows 10
OS Version: 10.0
Default Encoding: Cp1252
Language: en
Country: AU
--></g></svg>