<?xml version="1.0" encoding="UTF-8" standalone="no"?><svg xmlns="http://www.w3.org/2000/svg" xmlns:xlink="http://www.w3.org/1999/xlink" contentScriptType="application/ecmascript" contentStyleType="text/css" height="345px" preserveAspectRatio="none" style="width:406px;height:345px;" version="1.1" viewBox="0 0 406 345" width="406px" zoomAndPan="magnify"><defs><filter height="300%" id="fcv8ayh1tx4eb" width="300%" x="-1" y="-1"><feGaussianBlur result="blurOut" stdDeviation="2.0"/><feColorMatrix in="blurOut" result="blurOut2" type="matrix" values="0 0 0 0 0 0 0 0 0 0 0 0 0 0 0 0 0 0 .4 0"/><feOffset dx="4.0" dy="4.0" in="blurOut2" result="blurOut3"/><feBlend in="SourceGraphic" in2="blurOut3" mode="normal"/></filter></defs><g><rect fill="#FEFECE" filter="url(#fcv8ayh1tx4eb)" height="50" rx="12.5" ry="12.5" style="stroke: #A80036; stroke-width: 1.5;" width="79" x="61.5" y="8"/><line style="stroke: #A80036; stroke-width: 1.5;" x1="61.5" x2="140.5" y1="35.6094" y2="35.6094"/><text fill="#000000" font-family="sans-serif" font-size="14" lengthAdjust="spacingAndGlyphs" textLength="59" x="71.5" y="27.5332">Patrolling</text><rect fill="#FEFECE" filter="url(#fcv8ayh1tx4eb)" height="50" rx="12.5" ry="12.5" style="stroke: #A80036; stroke-width: 1.5;" width="84" x="297" y="8"/><line style="stroke: #A80036; stroke-width: 1.5;" x1="297" x2="381" y1="35.6094" y2="35.6094"/><text fill="#000000" font-family="sans-serif" font-size="14" lengthAdjust="spacingAndGlyphs" textLength="64" x="307" y="27.5332">Searching</text><rect fill="#FEFECE" filter="url(#fcv8ayh1tx4eb)" height="52.7031" rx="12.5" ry="12.5" style="stroke: #A80036; stroke-width: 1.5;" width="85" x="194.5" y="136"/><line style="stroke: #A80036; stroke-width: 1.5;" x1="194.5" x2="279.5" y1="163.6094" y2="163.6094"/><text fill="#000000" font-family="sans-serif" font-size="14" lengthAdjust="spacingAndGlyphs" textLength="52" x="211" y="155.5332">Chasing</text><text fill="#000000" font-family="sans-serif" font-size="12" lengthAdjust="spacingAndGlyphs" textLength="65" x="199.5" y="181.0664">entry / roar()</text><rect fill="#FEFECE" filter="url(#fcv8ayh1tx4eb)" height="67.7969" rx="12.5" ry="12.5" style="stroke: #A80036; stroke-width: 1.5;" width="105" x="41.5" y="267"/><line style="stroke: #A80036; stroke-width: 1.5;" x1="41.5" x2="146.5" y1="294.6094" y2="294.6094"/><text fill="#000000" font-family="sans-serif" font-size="14" lengthAdjust="spacingAndGlyphs" textLength="47" x="70.5" y="286.5332">Fleeing</text><text fill="#000000" font-family="sans-serif" font-size="12" lengthAdjust="spacingAndGlyphs" textLength="85" x="46.5" y="312.0664">entry / scream()</text><text fill="#000000" font-family="sans-serif" font-size="12" lengthAdjust="spacingAndGlyphs" textLength="59" x="46.5" y="327.1602">exit / pant()</text><ellipse cx="16" cy="33" fill="#000000" filter="url(#fcv8ayh1tx4eb)" rx="10" ry="10" style="stroke: none; stroke-width: 1.0;"/><!--link *start to Patrolling--><path d="M26.293,33 C36.2332,33 46.1735,33 56.1138,33 " fill="none" id="*start-Patrolling" style="stroke: #A80036; stroke-width: 1.0;"/><polygon fill="#A80036" points="61.3119,33,52.3119,29,56.3119,33,52.3119,37,61.3119,33" style="stroke: #A80036; stroke-width: 1.0;"/><!--link Patrolling to Searching--><path d="M140.695,45.399 C153.791,48.912 168.52,52.254 182.25,54 C214.435,58.092 223.05,57.975 255.25,54 C267.226,52.521 279.952,49.896 291.771,46.992 " fill="none" id="Patrolling-Searching" style="stroke: #A80036; stroke-width: 1.0;"/><polygon fill="#A80036" points="296.776,45.732,287.0721,44.0484,291.9271,46.9517,289.0237,51.8067,296.776,45.732" style="stroke: #A80036; stroke-width: 1.0;"/><text fill="#000000" font-family="sans-serif" font-size="13" lengthAdjust="spacingAndGlyphs" textLength="71" x="183.25" y="50.4951">hears player</text><!--link Searching to Patrolling--><path d="M296.93,33 C254.47,33 189.14,33 145.748,33 " fill="none" id="Searching-Patrolling" style="stroke: #A80036; stroke-width: 1.0;"/><polygon fill="#A80036" points="140.568,33,149.568,37,145.568,33,149.568,29,140.568,33" style="stroke: #A80036; stroke-width: 1.0;"/><text fill="#000000" font-family="sans-serif" font-size="13" lengthAdjust="spacingAndGlyphs" textLength="120" x="158.75" y="26.4951">tick [ player.isDead ]</text><!--link Patrolling to Chasing--><path d="M140.515,46.043 C162.88,54.614 189.908,68.171 208,88 C218.87,99.913 225.872,116.385 230.266,130.717 " fill="none" id="Patrolling-Chasing" style="stroke: #A80036; stroke-width: 1.0;"/><polygon fill="#A80036" points="231.77,135.887,233.0961,126.1278,230.373,131.0861,225.4147,128.363,231.77,135.887" style="stroke: #A80036; stroke-width: 1.0;"/><text fill="#000000" font-family="sans-serif" font-size="13" lengthAdjust="spacingAndGlyphs" textLength="67" x="222" y="102.4951">sees player</text><!--link Chasing to Patrolling--><path d="M194.402,147.977 C148.519,133.211 81.5443,110.991 78,106 C68.9215,93.215 73.3291,76.679 80.611,62.678 " fill="none" id="Chasing-Patrolling" style="stroke: #A80036; stroke-width: 1.0;"/><polygon fill="#A80036" points="83.1754,58.037,75.3212,63.9794,80.757,62.4132,82.3232,67.8489,83.1754,58.037" style="stroke: #A80036; stroke-width: 1.0;"/><text fill="#000000" font-family="sans-serif" font-size="13" lengthAdjust="spacingAndGlyphs" textLength="120" x="79" y="102.4951">tick [ player.isDead ]</text><!--link Searching to Chasing--><path d="M335.741,58.167 C332.785,73.072 327.247,91.958 317,106 C308.303,117.918 296.237,128.161 284.11,136.485 " fill="none" id="Searching-Chasing" style="stroke: #A80036; stroke-width: 1.0;"/><polygon fill="#A80036" points="279.646,139.465,289.3526,137.7971,283.8052,136.6899,284.9124,131.1424,279.646,139.465" style="stroke: #A80036; stroke-width: 1.0;"/><text fill="#000000" font-family="sans-serif" font-size="13" lengthAdjust="spacingAndGlyphs" textLength="67" x="327" y="102.4951">sees player</text><!--link Chasing to Fleeing--><path d="M210.103,189.175 C188.216,210.067 157.044,239.8214 132.51,263.2403 " fill="none" id="Chasing-Fleeing" style="stroke: #A80036; stroke-width: 1.0;"/><polygon fill="#A80036" points="128.632,266.9422,137.9039,263.6208,132.2486,263.4896,132.3798,257.8343,128.632,266.9422" style="stroke: #A80036; stroke-width: 1.0;"/><text fill="#000000" font-family="sans-serif" font-size="13" lengthAdjust="spacingAndGlyphs" textLength="99" x="180" y="233.4951">hit [ health &lt; 10 ]</text><!--link Fleeing to Patrolling--><path d="M79.0056,266.7824 C70.0717,245.1286 59.602,215.981 55,189 C51.0394,165.78 52.5851,159.431 55,136 C57.234,114.323 56.5803,108.099 65,88 C68.6732,79.231 73.8358,70.377 79.1069,62.446 " fill="none" id="Fleeing-Patrolling" style="stroke: #A80036; stroke-width: 1.0;"/><polygon fill="#A80036" points="82.0377,58.141,73.6659,63.3288,79.2235,62.2738,80.2785,67.8315,82.0377,58.141" style="stroke: #A80036; stroke-width: 1.0;"/><text fill="#000000" font-family="sans-serif" font-size="13" lengthAdjust="spacingAndGlyphs" textLength="120" x="56" y="167.9951">tick [ distance &gt; 10 ]</text><!--
@startuml monster_entry_exit

state Patrolling
state Searching
state Chasing
Chasing : entry / roar()
state Fleeing
Fleeing : entry / scream()
Fleeing : exit / pant()

[*] -> Patrolling

Patrolling -> Searching : hears player
Searching -> Patrolling : tick [ player.isDead ]

Patrolling - -> Chasing : sees player
Searching - -> Chasing : sees player
Chasing - -> Patrolling : tick [ player.isDead ]
Chasing - -> Fleeing : hit [ health < 10 ] 
Fleeing -> Patrolling : tick [ distance > 10 ]

@enduml

PlantUML version 1.2019.06(Sat May 25 03:10:25 AEST 2019)
(GPL source distribution)
Java Runtime: OpenJDK Runtime Environment
JVM: OpenJDK 64-Bit Server VM
Java Version: 11.0.3+7
Operating System: Windows 10
OS Version: 10.0
Default Encoding: Cp1252
Language: en
Country: AU
--></g></svg>