<?xml version="1.0" encoding="UTF-8" standalone="no"?><svg xmlns="http://www.w3.org/2000/svg" xmlns:xlink="http://www.w3.org/1999/xlink" contentScriptType="application/ecmascript" contentStyleType="text/css" height="213px" preserveAspectRatio="none" style="width:403px;height:213px;" version="1.1" viewBox="0 0 403 213" width="403px" zoomAndPan="magnify"><defs><filter height="300%" id="f12eozw5ifsq1m" width="300%" x="-1" y="-1"><feGaussianBlur result="blurOut" stdDeviation="2.0"/><feColorMatrix in="blurOut" result="blurOut2" type="matrix" values="0 0 0 0 0 0 0 0 0 0 0 0 0 0 0 0 0 0 .4 0"/><feOffset dx="4.0" dy="4.0" in="blurOut2" result="blurOut3"/><feBlend in="SourceGraphic" in2="blurOut3" mode="normal"/></filter></defs><g><!--class Subject--><rect fill="#FEFECE" filter="url(#f12eozw5ifsq1m)" height="86.4141" id="Subject" style="stroke: #A80036; stroke-width: 1.5;" width="198" x="6" y="8"/><ellipse cx="72.25" cy="24" fill="#A9DCDF" rx="11" ry="11" style="stroke: #A80036; stroke-width: 1.0;"/><path d="M72.3594,19.3438 L71.2031,24.4219 L73.5313,24.4219 L72.3594,19.3438 Z M70.875,17.1094 L73.8594,17.1094 L77.2188,29.5 L74.7656,29.5 L74,26.4375 L70.7188,26.4375 L69.9688,29.5 L67.5313,29.5 L70.875,17.1094 Z "/><text fill="#000000" font-family="sans-serif" font-size="16" font-style="italic" lengthAdjust="spacingAndGlyphs" textLength="57" x="92.75" y="29.5391">Subject</text><line style="stroke: #A80036; stroke-width: 1.5;" x1="7" x2="203" y1="40" y2="40"/><line style="stroke: #A80036; stroke-width: 1.5;" x1="7" x2="203" y1="48" y2="48"/><ellipse cx="17" cy="59.9023" fill="#84BE84" rx="3" ry="3" style="stroke: #038048; stroke-width: 1.0;"/><text fill="#000000" font-family="sans-serif" font-size="11" lengthAdjust="spacingAndGlyphs" textLength="150" x="26" y="62.2104">addObserver(o: Observer)</text><ellipse cx="17" cy="72.707" fill="#84BE84" rx="3" ry="3" style="stroke: #038048; stroke-width: 1.0;"/><text fill="#000000" font-family="sans-serif" font-size="11" lengthAdjust="spacingAndGlyphs" textLength="172" x="26" y="75.0151">removeObserver(o: Observer)</text><polygon fill="#FFFF44" points="17,80.5117,21,84.5117,17,88.5117,13,84.5117" style="stroke: #B38D22; stroke-width: 1.0;"/><text fill="#000000" font-family="sans-serif" font-size="11" lengthAdjust="spacingAndGlyphs" textLength="39" x="26" y="87.8198">notify()</text><!--class Observer--><rect fill="#FEFECE" filter="url(#f12eozw5ifsq1m)" height="60.8047" id="Observer" style="stroke: #A80036; stroke-width: 1.5;" width="104" x="247" y="20.5"/><ellipse cx="262" cy="36.5" fill="#B4A7E5" rx="11" ry="11" style="stroke: #A80036; stroke-width: 1.0;"/><path d="M257.9219,32.2656 L257.9219,30.1094 L265.3125,30.1094 L265.3125,32.2656 L262.8438,32.2656 L262.8438,40.3438 L265.3125,40.3438 L265.3125,42.5 L257.9219,42.5 L257.9219,40.3438 L260.3906,40.3438 L260.3906,32.2656 L257.9219,32.2656 Z "/><text fill="#000000" font-family="sans-serif" font-size="16" font-style="italic" lengthAdjust="spacingAndGlyphs" textLength="72" x="276" y="42.0391">Observer</text><line style="stroke: #A80036; stroke-width: 1.5;" x1="248" x2="350" y1="52.5" y2="52.5"/><line style="stroke: #A80036; stroke-width: 1.5;" x1="248" x2="350" y1="60.5" y2="60.5"/><ellipse cx="258" cy="72.4023" fill="#84BE84" rx="3" ry="3" style="stroke: #038048; stroke-width: 1.0;"/><text fill="#000000" font-family="sans-serif" font-size="11" lengthAdjust="spacingAndGlyphs" textLength="47" x="267" y="74.7104">update()</text><!--class ConcreteSubject--><rect fill="#FEFECE" filter="url(#f12eozw5ifsq1m)" height="48" id="ConcreteSubject" style="stroke: #A80036; stroke-width: 1.5;" width="160" x="21" y="154"/><ellipse cx="36" cy="170" fill="#ADD1B2" rx="11" ry="11" style="stroke: #A80036; stroke-width: 1.0;"/><path d="M38.9688,175.6406 Q38.3906,175.9375 37.75,176.0781 Q37.1094,176.2344 36.4063,176.2344 Q33.9063,176.2344 32.5781,174.5938 Q31.2656,172.9375 31.2656,169.8125 Q31.2656,166.6875 32.5781,165.0313 Q33.9063,163.375 36.4063,163.375 Q37.1094,163.375 37.75,163.5313 Q38.4063,163.6875 38.9688,163.9844 L38.9688,166.7031 Q38.3438,166.125 37.75,165.8594 Q37.1563,165.5781 36.5313,165.5781 Q35.1875,165.5781 34.5,166.6563 Q33.8125,167.7188 33.8125,169.8125 Q33.8125,171.9063 34.5,172.9844 Q35.1875,174.0469 36.5313,174.0469 Q37.1563,174.0469 37.75,173.7813 Q38.3438,173.5 38.9688,172.9219 L38.9688,175.6406 Z "/><text fill="#000000" font-family="sans-serif" font-size="16" lengthAdjust="spacingAndGlyphs" textLength="128" x="50" y="175.5391">ConcreteSubject</text><line style="stroke: #A80036; stroke-width: 1.5;" x1="22" x2="180" y1="186" y2="186"/><line style="stroke: #A80036; stroke-width: 1.5;" x1="22" x2="180" y1="194" y2="194"/><!--class ConcreteObserver--><rect fill="#FEFECE" filter="url(#f12eozw5ifsq1m)" height="48" id="ConcreteObserver" style="stroke: #A80036; stroke-width: 1.5;" width="176" x="216" y="154"/><ellipse cx="231" cy="170" fill="#ADD1B2" rx="11" ry="11" style="stroke: #A80036; stroke-width: 1.0;"/><path d="M233.9688,175.6406 Q233.3906,175.9375 232.75,176.0781 Q232.1094,176.2344 231.4063,176.2344 Q228.9063,176.2344 227.5781,174.5938 Q226.2656,172.9375 226.2656,169.8125 Q226.2656,166.6875 227.5781,165.0313 Q228.9063,163.375 231.4063,163.375 Q232.1094,163.375 232.75,163.5313 Q233.4063,163.6875 233.9688,163.9844 L233.9688,166.7031 Q233.3438,166.125 232.75,165.8594 Q232.1563,165.5781 231.5313,165.5781 Q230.1875,165.5781 229.5,166.6563 Q228.8125,167.7188 228.8125,169.8125 Q228.8125,171.9063 229.5,172.9844 Q230.1875,174.0469 231.5313,174.0469 Q232.1563,174.0469 232.75,173.7813 Q233.3438,173.5 233.9688,172.9219 L233.9688,175.6406 Z "/><text fill="#000000" font-family="sans-serif" font-size="16" lengthAdjust="spacingAndGlyphs" textLength="144" x="245" y="175.5391">ConcreteObserver</text><line style="stroke: #A80036; stroke-width: 1.5;" x1="217" x2="391" y1="186" y2="186"/><line style="stroke: #A80036; stroke-width: 1.5;" x1="217" x2="391" y1="194" y2="194"/><!--link Subject to Observer--><path d="M216.2734,51 C216.2734,51 228.2372,51 233.5701,51 " fill="none" id="Subject-Observer" style="stroke: #A80036; stroke-width: 1.0;"/><polygon fill="#A80036" points="246.8264,51,237.8264,47,241.8264,51,237.8264,55,246.8264,51" style="stroke: #A80036; stroke-width: 1.0;"/><line style="stroke: #A80036; stroke-width: 1.0;" x1="241.8264" x2="233.8264" y1="51" y2="50.9999"/><polygon fill="#FFFFFF" points="204.2734,51,210.2734,55,216.2734,51,210.2734,47,204.2734,51" style="stroke: #A80036; stroke-width: 1.0;"/><text fill="#000000" font-family="sans-serif" font-size="13" lengthAdjust="spacingAndGlyphs" textLength="7" x="231.9973" y="47.0353">*</text><!--link Subject to ConcreteSubject--><path d="M102.9999,114.5036 C102.5599,128.4734 102.1199,142.4431 101.7651,153.7079 " fill="none" id="Subject-ConcreteSubject" style="stroke: #A80036; stroke-width: 1.0;"/><polygon fill="none" points="96.0084,114.1207,103.6346,94.351,110.0014,114.5615,96.0084,114.1207" style="stroke: #A80036; stroke-width: 1.0;"/><!--link Observer to ConcreteObserver--><path d="M301.001,101.8257 C301.7085,119.7955 302.4715,139.177 303.0509,153.8929 " fill="none" id="Observer-ConcreteObserver" style="stroke: #A80036; stroke-width: 1.0; stroke-dasharray: 7.0,7.0;"/><polygon fill="none" points="294.0027,102.0031,300.2104,81.7432,307.9918,101.4523,294.0027,102.0031" style="stroke: #A80036; stroke-width: 1.0;"/><!--
@startuml observer
skinparam classFontSize 16

abstract class Subject {
    + addObserver(o: Observer)
    + removeObserver(o: Observer)
    # notify()    
}

interface Observer {
    + update()
}

Subject o-> "*" Observer

class ConcreteSubject extends Subject

class ConcreteObserver implements Observer

@enduml

PlantUML version 1.2019.06(Sat May 25 03:10:25 AEST 2019)
(GPL source distribution)
Java Runtime: OpenJDK Runtime Environment
JVM: OpenJDK 64-Bit Server VM
Java Version: 11.0.4+11
Operating System: Linux
OS Version: 5.2.8-200.fc30.x86_64
Default Encoding: UTF-8
Language: en
Country: AU
--></g></svg>