<?xml version="1.0" encoding="UTF-8" standalone="no"?><svg xmlns="http://www.w3.org/2000/svg" xmlns:xlink="http://www.w3.org/1999/xlink" contentScriptType="application/ecmascript" contentStyleType="text/css" height="403px" preserveAspectRatio="none" style="width:350px;height:403px;" version="1.1" viewBox="0 0 350 403" width="350px" zoomAndPan="magnify"><defs><filter height="300%" id="f36b7j88242w5" width="300%" x="-1" y="-1"><feGaussianBlur result="blurOut" stdDeviation="2.0"/><feColorMatrix in="blurOut" result="blurOut2" type="matrix" values="0 0 0 0 0 0 0 0 0 0 0 0 0 0 0 0 0 0 .4 0"/><feOffset dx="4.0" dy="4.0" in="blurOut2" result="blurOut3"/><feBlend in="SourceGraphic" in2="blurOut3" mode="normal"/></filter></defs><g><rect fill="#FFFFFF" filter="url(#f36b7j88242w5)" height="14" style="stroke: #A80036; stroke-width: 1.0;" width="10" x="42" y="274.9609"/><rect fill="#FFFFFF" filter="url(#f36b7j88242w5)" height="14" style="stroke: #A80036; stroke-width: 1.0;" width="10" x="130" y="318.0938"/><rect fill="#FFFFFF" filter="url(#f36b7j88242w5)" height="14" style="stroke: #A80036; stroke-width: 1.0;" width="10" x="236" y="117.4297"/><rect fill="#FFFFFF" filter="url(#f36b7j88242w5)" height="14" style="stroke: #A80036; stroke-width: 1.0;" width="10" x="236" y="160.5625"/><rect fill="#FFFFFF" filter="url(#f36b7j88242w5)" height="169.3984" style="stroke: #A80036; stroke-width: 1.0;" width="10" x="236" y="203.6953"/><rect fill="#FFFFFF" filter="url(#f36b7j88242w5)" height="111.2656" style="stroke: #A80036; stroke-width: 1.0;" width="10" x="241" y="240.8281"/><rect fill="#FFFFFF" filter="url(#f36b7j88242w5)" height="207.5313" style="stroke: #A80036; stroke-width: 1.0;" width="10" x="309.5" y="174.5625"/><line style="stroke: #A80036; stroke-width: 1.0; stroke-dasharray: 5.0,5.0;" x1="47" x2="47" y1="86.2969" y2="391.0938"/><line style="stroke: #A80036; stroke-width: 1.0; stroke-dasharray: 5.0,5.0;" x1="135" x2="135" y1="86.2969" y2="391.0938"/><line style="stroke: #A80036; stroke-width: 1.0; stroke-dasharray: 5.0,5.0;" x1="241" x2="241" y1="86.2969" y2="391.0938"/><line style="stroke: #A80036; stroke-width: 1.0; stroke-dasharray: 5.0,5.0;" x1="314" x2="314" y1="86.2969" y2="391.0938"/><text fill="#000000" font-family="sans-serif" font-size="14" lengthAdjust="spacingAndGlyphs" textLength="72" x="8" y="82.9951">Observer1</text><ellipse cx="47" cy="13" fill="#FEFECE" filter="url(#f36b7j88242w5)" rx="8" ry="8" style="stroke: #A80036; stroke-width: 2.0;"/><path d="M47,21 L47,48 M34,29 L60,29 M47,48 L34,63 M47,48 L60,63 " fill="none" filter="url(#f36b7j88242w5)" style="stroke: #A80036; stroke-width: 2.0;"/><text fill="#000000" font-family="sans-serif" font-size="14" lengthAdjust="spacingAndGlyphs" textLength="72" x="96" y="82.9951">Observer2</text><ellipse cx="135" cy="13" fill="#FEFECE" filter="url(#f36b7j88242w5)" rx="8" ry="8" style="stroke: #A80036; stroke-width: 2.0;"/><path d="M135,21 L135,48 M122,29 L148,29 M135,48 L122,63 M135,48 L148,63 " fill="none" filter="url(#f36b7j88242w5)" style="stroke: #A80036; stroke-width: 2.0;"/><rect fill="#FEFECE" filter="url(#f36b7j88242w5)" height="30.2969" style="stroke: #A80036; stroke-width: 1.5;" width="66" x="206" y="51"/><text fill="#000000" font-family="sans-serif" font-size="14" lengthAdjust="spacingAndGlyphs" textLength="52" x="213" y="70.9951">Subject</text><rect fill="#FEFECE" filter="url(#f36b7j88242w5)" height="30.2969" style="stroke: #A80036; stroke-width: 1.5;" width="53" x="286" y="51"/><text fill="#000000" font-family="sans-serif" font-size="14" lengthAdjust="spacingAndGlyphs" textLength="39" x="293" y="70.9951">Client</text><rect fill="#FFFFFF" filter="url(#f36b7j88242w5)" height="14" style="stroke: #A80036; stroke-width: 1.0;" width="10" x="42" y="274.9609"/><rect fill="#FFFFFF" filter="url(#f36b7j88242w5)" height="14" style="stroke: #A80036; stroke-width: 1.0;" width="10" x="130" y="318.0938"/><rect fill="#FFFFFF" filter="url(#f36b7j88242w5)" height="14" style="stroke: #A80036; stroke-width: 1.0;" width="10" x="236" y="117.4297"/><rect fill="#FFFFFF" filter="url(#f36b7j88242w5)" height="14" style="stroke: #A80036; stroke-width: 1.0;" width="10" x="236" y="160.5625"/><rect fill="#FFFFFF" filter="url(#f36b7j88242w5)" height="169.3984" style="stroke: #A80036; stroke-width: 1.0;" width="10" x="236" y="203.6953"/><rect fill="#FFFFFF" filter="url(#f36b7j88242w5)" height="111.2656" style="stroke: #A80036; stroke-width: 1.0;" width="10" x="241" y="240.8281"/><rect fill="#FFFFFF" filter="url(#f36b7j88242w5)" height="207.5313" style="stroke: #A80036; stroke-width: 1.0;" width="10" x="309.5" y="174.5625"/><polygon fill="#A80036" points="224,113.4297,234,117.4297,224,121.4297,228,117.4297" style="stroke: #A80036; stroke-width: 1.0;"/><line style="stroke: #A80036; stroke-width: 1.0;" x1="47" x2="230" y1="117.4297" y2="117.4297"/><text fill="#000000" font-family="sans-serif" font-size="13" lengthAdjust="spacingAndGlyphs" textLength="82" x="54" y="112.3638">addObserver</text><polygon fill="#A80036" points="58,127.4297,48,131.4297,58,135.4297,54,131.4297" style="stroke: #A80036; stroke-width: 1.0;"/><line style="stroke: #A80036; stroke-width: 1.0; stroke-dasharray: 2.0,2.0;" x1="52" x2="240" y1="131.4297" y2="131.4297"/><polygon fill="#A80036" points="224,156.5625,234,160.5625,224,164.5625,228,160.5625" style="stroke: #A80036; stroke-width: 1.0;"/><line style="stroke: #A80036; stroke-width: 1.0;" x1="135" x2="230" y1="160.5625" y2="160.5625"/><text fill="#000000" font-family="sans-serif" font-size="13" lengthAdjust="spacingAndGlyphs" textLength="82" x="142" y="155.4966">addObserver</text><polygon fill="#A80036" points="146,170.5625,136,174.5625,146,178.5625,142,174.5625" style="stroke: #A80036; stroke-width: 1.0;"/><line style="stroke: #A80036; stroke-width: 1.0; stroke-dasharray: 2.0,2.0;" x1="140" x2="240" y1="174.5625" y2="174.5625"/><polygon fill="#A80036" points="257,199.6953,247,203.6953,257,207.6953,253,203.6953" style="stroke: #A80036; stroke-width: 1.0;"/><line style="stroke: #A80036; stroke-width: 1.0;" x1="251" x2="308.5" y1="203.6953" y2="203.6953"/><text fill="#000000" font-family="sans-serif" font-size="13" lengthAdjust="spacingAndGlyphs" textLength="43" x="263" y="198.6294">modify</text><line style="stroke: #A80036; stroke-width: 1.0;" x1="246" x2="293" y1="227.8281" y2="227.8281"/><line style="stroke: #A80036; stroke-width: 1.0;" x1="293" x2="293" y1="227.8281" y2="240.8281"/><line style="stroke: #A80036; stroke-width: 1.0;" x1="252" x2="293" y1="240.8281" y2="240.8281"/><polygon fill="#A80036" points="262,236.8281,252,240.8281,262,244.8281,258,240.8281" style="stroke: #A80036; stroke-width: 1.0;"/><text fill="#000000" font-family="sans-serif" font-size="13" lengthAdjust="spacingAndGlyphs" textLength="35" x="258" y="222.7622">notify</text><polygon fill="#A80036" points="63,270.9609,53,274.9609,63,278.9609,59,274.9609" style="stroke: #A80036; stroke-width: 1.0;"/><line style="stroke: #A80036; stroke-width: 1.0;" x1="57" x2="240" y1="274.9609" y2="274.9609"/><text fill="#000000" font-family="sans-serif" font-size="13" lengthAdjust="spacingAndGlyphs" textLength="55" x="69" y="269.895">update()</text><polygon fill="#A80036" points="229,284.9609,239,288.9609,229,292.9609,233,288.9609" style="stroke: #A80036; stroke-width: 1.0;"/><line style="stroke: #A80036; stroke-width: 1.0; stroke-dasharray: 2.0,2.0;" x1="47" x2="235" y1="288.9609" y2="288.9609"/><polygon fill="#A80036" points="151,314.0938,141,318.0938,151,322.0938,147,318.0938" style="stroke: #A80036; stroke-width: 1.0;"/><line style="stroke: #A80036; stroke-width: 1.0;" x1="145" x2="240" y1="318.0938" y2="318.0938"/><text fill="#000000" font-family="sans-serif" font-size="13" lengthAdjust="spacingAndGlyphs" textLength="55" x="157" y="313.0278">update()</text><polygon fill="#A80036" points="229,328.0938,239,332.0938,229,336.0938,233,332.0938" style="stroke: #A80036; stroke-width: 1.0;"/><line style="stroke: #A80036; stroke-width: 1.0; stroke-dasharray: 2.0,2.0;" x1="135" x2="235" y1="332.0938" y2="332.0938"/><line style="stroke: #A80036; stroke-width: 1.0; stroke-dasharray: 2.0,2.0;" x1="251" x2="293" y1="351.0938" y2="351.0938"/><line style="stroke: #A80036; stroke-width: 1.0; stroke-dasharray: 2.0,2.0;" x1="293" x2="293" y1="351.0938" y2="364.0938"/><line style="stroke: #A80036; stroke-width: 1.0; stroke-dasharray: 2.0,2.0;" x1="246" x2="293" y1="364.0938" y2="364.0938"/><polygon fill="#A80036" points="256,360.0938,246,364.0938,256,368.0938,252,364.0938" style="stroke: #A80036; stroke-width: 1.0;"/><polygon fill="#A80036" points="297.5,369.0938,307.5,373.0938,297.5,377.0938,301.5,373.0938" style="stroke: #A80036; stroke-width: 1.0;"/><line style="stroke: #A80036; stroke-width: 1.0; stroke-dasharray: 2.0,2.0;" x1="241" x2="303.5" y1="373.0938" y2="373.0938"/><!--
@startuml observer_seq 
hide footbox

actor Observer1
actor Observer2
participant Subject 


Observer1 -> Subject : addObserver
activate Subject
return
Observer2 -> Subject : addObserver
activate Subject
return

activate Client
Subject <- Client : modify
activate Subject
Subject -> Subject : notify
activate Subject

Subject -> Observer1 : update()
activate Observer1
return 

Subject -> Observer2 : update()
activate Observer2
return 

return
return

@enduml

PlantUML version 1.2019.06(Sat May 25 03:10:25 AEST 2019)
(GPL source distribution)
Java Runtime: OpenJDK Runtime Environment
JVM: OpenJDK 64-Bit Server VM
Java Version: 11.0.4+11
Operating System: Linux
OS Version: 5.2.8-200.fc30.x86_64
Default Encoding: UTF-8
Language: en
Country: AU
--></g></svg>