<?xml version="1.0" encoding="UTF-8" standalone="no"?><svg xmlns="http://www.w3.org/2000/svg" xmlns:xlink="http://www.w3.org/1999/xlink" contentScriptType="application/ecmascript" contentStyleType="text/css" height="325px" preserveAspectRatio="none" style="width:306px;height:325px;" version="1.1" viewBox="0 0 306 325" width="306px" zoomAndPan="magnify"><defs><filter height="300%" id="f11aq1wngsx1lu" width="300%" x="-1" y="-1"><feGaussianBlur result="blurOut" stdDeviation="2.0"/><feColorMatrix in="blurOut" result="blurOut2" type="matrix" values="0 0 0 0 0 0 0 0 0 0 0 0 0 0 0 0 0 0 .4 0"/><feOffset dx="4.0" dy="4.0" in="blurOut2" result="blurOut3"/><feBlend in="SourceGraphic" in2="blurOut3" mode="normal"/></filter></defs><g><rect fill="#FEFECE" filter="url(#f11aq1wngsx1lu)" height="50" rx="12.5" ry="12.5" style="stroke: #A80036; stroke-width: 1.5;" width="64" x="61" y="8"/><line style="stroke: #A80036; stroke-width: 1.5;" x1="61" x2="125" y1="35.6094" y2="35.6094"/><text fill="#000000" font-family="sans-serif" font-size="14" lengthAdjust="spacingAndGlyphs" textLength="44" x="71" y="27.5332">Frozen</text><rect fill="#FEFECE" filter="url(#f11aq1wngsx1lu)" height="50" rx="12.5" ry="12.5" style="stroke: #A80036; stroke-width: 1.5;" width="70" x="58" y="136"/><line style="stroke: #A80036; stroke-width: 1.5;" x1="58" x2="128" y1="163.6094" y2="163.6094"/><text fill="#000000" font-family="sans-serif" font-size="14" lengthAdjust="spacingAndGlyphs" textLength="50" x="68" y="155.5332">Thawed</text><rect fill="#FEFECE" filter="url(#f11aq1wngsx1lu)" height="50" rx="12.5" ry="12.5" style="stroke: #A80036; stroke-width: 1.5;" width="69" x="58.5" y="264"/><line style="stroke: #A80036; stroke-width: 1.5;" x1="58.5" x2="127.5" y1="291.6094" y2="291.6094"/><text fill="#000000" font-family="sans-serif" font-size="14" lengthAdjust="spacingAndGlyphs" textLength="49" x="68.5" y="283.5332">Cooked</text><rect fill="#FEFECE" filter="url(#f11aq1wngsx1lu)" height="50" rx="12.5" ry="12.5" style="stroke: #A80036; stroke-width: 1.5;" width="57" x="182.5" y="264"/><line style="stroke: #A80036; stroke-width: 1.5;" x1="182.5" x2="239.5" y1="291.6094" y2="291.6094"/><text fill="#000000" font-family="sans-serif" font-size="14" lengthAdjust="spacingAndGlyphs" textLength="37" x="192.5" y="283.5332">Eaten</text><ellipse cx="16" cy="33" fill="#000000" filter="url(#f11aq1wngsx1lu)" rx="10" ry="10" style="stroke: none; stroke-width: 1.0;"/><ellipse cx="285" cy="289" fill="none" filter="url(#f11aq1wngsx1lu)" rx="10" ry="10" style="stroke: #000000; stroke-width: 1.0;"/><ellipse cx="285.5" cy="289.5" fill="#000000" rx="6" ry="6" style="stroke: none; stroke-width: 1.0;"/><!--link *start to Frozen--><path d="M26.2266,33 C36.0737,33 45.9209,33 55.768,33 " fill="none" id="*start-Frozen" style="stroke: #A80036; stroke-width: 1.0;"/><polygon fill="#A80036" points="60.9174,33,51.9174,29,55.9174,33,51.9174,37,60.9174,33" style="stroke: #A80036; stroke-width: 1.0;"/><!--link Frozen to Thawed--><path d="M65.5239,58.089 C57.6777,66.654 50.1384,76.942 46,88 C40.1679,103.584 48.3256,119.247 59.3959,131.967 " fill="none" id="Frozen-Thawed" style="stroke: #A80036; stroke-width: 1.0;"/><polygon fill="#A80036" points="62.9127,135.816,59.7949,126.4737,59.54,132.1248,53.8889,131.8699,62.9127,135.816" style="stroke: #A80036; stroke-width: 1.0;"/><text fill="#000000" font-family="sans-serif" font-size="13" lengthAdjust="spacingAndGlyphs" textLength="39" x="47" y="102.4951">defrost</text><!--link Thawed to Frozen--><path d="M94.2356,135.674 C94.804,121.722 95.2939,103.878 95,88 C94.8533,80.074 94.5855,71.497 94.2926,63.562 " fill="none" id="Thawed-Frozen" style="stroke: #A80036; stroke-width: 1.0;"/><polygon fill="#A80036" points="94.087,58.188,90.4345,67.3345,94.2784,63.1843,98.4286,67.0283,94.087,58.188" style="stroke: #A80036; stroke-width: 1.0;"/><text fill="#000000" font-family="sans-serif" font-size="13" lengthAdjust="spacingAndGlyphs" textLength="35" x="96" y="102.4951">freeze</text><!--link Thawed to Cooked--><path d="M93,186.294 C93,206.95 93,236.669 93,258.6514 " fill="none" id="Thawed-Cooked" style="stroke: #A80036; stroke-width: 1.0;"/><polygon fill="#A80036" points="93,263.7805,97,254.7805,93,258.7805,89,254.7805,93,263.7805" style="stroke: #A80036; stroke-width: 1.0;"/><text fill="#000000" font-family="sans-serif" font-size="13" lengthAdjust="spacingAndGlyphs" textLength="28" x="94" y="230.4951">cook</text><!--link Cooked to Eaten--><path d="M127.766,289 C143.402,289 161.786,289 177.295,289 " fill="none" id="Cooked-Eaten" style="stroke: #A80036; stroke-width: 1.0;"/><polygon fill="#A80036" points="182.435,289,173.435,285,177.435,289,173.435,293,182.435,289" style="stroke: #A80036; stroke-width: 1.0;"/><text fill="#000000" font-family="sans-serif" font-size="13" lengthAdjust="spacingAndGlyphs" textLength="18" x="146" y="282.4951">eat</text><!--link Eaten to *end--><path d="M239.617,289 C249.581,289 259.544,289 269.508,289 " fill="none" id="Eaten-*end" style="stroke: #A80036; stroke-width: 1.0;"/><polygon fill="#A80036" points="274.718,289,265.718,285,269.718,289,265.718,293,274.718,289" style="stroke: #A80036; stroke-width: 1.0;"/><!--
@startuml sandwich_states
state Frozen
state Thawed
state Cooked
state Eaten

[*] -> Frozen

Frozen - -> Thawed : defrost
Thawed - -> Cooked : cook
Thawed -> Frozen : freeze
Cooked -> Eaten : eat
Eaten -> [*]
@enduml

PlantUML version 1.2019.06(Sat May 25 03:10:25 AEST 2019)
(GPL source distribution)
Java Runtime: OpenJDK Runtime Environment
JVM: OpenJDK 64-Bit Server VM
Java Version: 11.0.3+7
Operating System: Windows 10
OS Version: 10.0
Default Encoding: Cp1252
Language: en
Country: AU
--></g></svg>