<?xml version="1.0" encoding="UTF-8" standalone="no"?><svg xmlns="http://www.w3.org/2000/svg" xmlns:xlink="http://www.w3.org/1999/xlink" contentScriptType="application/ecmascript" contentStyleType="text/css" height="94px" preserveAspectRatio="none" style="width:154px;height:94px;" version="1.1" viewBox="0 0 154 94" width="154px" zoomAndPan="magnify"><defs><filter height="300%" id="fpmtie4t2cckc" width="300%" x="-1" y="-1"><feGaussianBlur result="blurOut" stdDeviation="2.0"/><feColorMatrix in="blurOut" result="blurOut2" type="matrix" values="0 0 0 0 0 0 0 0 0 0 0 0 0 0 0 0 0 0 .4 0"/><feOffset dx="4.0" dy="4.0" in="blurOut2" result="blurOut3"/><feBlend in="SourceGraphic" in2="blurOut3" mode="normal"/></filter></defs><g><!--class Singleton--><rect fill="#FEFECE" filter="url(#fpmtie4t2cckc)" height="75.6719" id="Singleton" style="stroke: #A80036; stroke-width: 1.5;" width="137" x="6" y="8"/><ellipse cx="39" cy="24" fill="#ADD1B2" rx="11" ry="11" style="stroke: #A80036; stroke-width: 1.0;"/><path d="M41.7656,19.875 Q41.9219,19.6563 42.1094,19.5469 Q42.2969,19.4375 42.5156,19.4375 Q42.8906,19.4375 43.125,19.7031 Q43.3594,19.9531 43.3594,20.5625 L43.3594,22.0156 Q43.3594,22.625 43.125,22.8906 Q42.8906,23.1563 42.5156,23.1563 Q42.1719,23.1563 41.9688,22.9531 Q41.7656,22.7656 41.6563,22.25 Q41.6094,21.8906 41.4219,21.7031 Q41.0938,21.3281 40.4844,21.1094 Q39.875,20.8906 39.25,20.8906 Q38.4844,20.8906 37.8438,21.2188 Q37.2188,21.5469 36.7188,22.2969 Q36.2344,23.0469 36.2344,24.0781 L36.2344,25.1719 Q36.2344,26.4063 37.125,27.2344 Q38.0156,28.0469 39.6094,28.0469 Q40.5469,28.0469 41.2031,27.7969 Q41.5938,27.6406 42.0156,27.2031 Q42.2813,26.9375 42.4219,26.8594 Q42.5781,26.7813 42.7813,26.7813 Q43.1094,26.7813 43.3594,27.0469 Q43.625,27.2969 43.625,27.6406 Q43.625,27.9844 43.2813,28.3906 Q42.7813,28.9688 41.9844,29.2969 Q40.9063,29.75 39.6094,29.75 Q38.0938,29.75 36.8906,29.125 Q35.9063,28.625 35.2188,27.5625 Q34.5313,26.4844 34.5313,25.2031 L34.5313,24.0469 Q34.5313,22.7188 35.1406,21.5781 Q35.7656,20.4219 36.8594,19.8125 Q37.9531,19.1875 39.1875,19.1875 Q39.9219,19.1875 40.5625,19.3594 Q41.2188,19.5156 41.7656,19.875 Z "/><text fill="#000000" font-family="sans-serif" font-size="16" lengthAdjust="spacingAndGlyphs" textLength="65" x="57" y="30.5469">Singleton</text><line style="stroke: #A80036; stroke-width: 1.5;" x1="7" x2="142" y1="40" y2="40"/><rect fill="none" height="6" style="stroke: #C82930; stroke-width: 1.0;" width="6" x="14" y="49.418"/><text fill="#000000" font-family="sans-serif" font-size="11" lengthAdjust="spacingAndGlyphs" text-decoration="underline" textLength="88" x="26" y="55.4189">instance:Singleton</text><line style="stroke: #A80036; stroke-width: 1.5;" x1="7" x2="142" y1="61.8359" y2="61.8359"/><ellipse cx="17" cy="74.2539" fill="#84BE84" rx="3" ry="3" style="stroke: #038048; stroke-width: 1.0;"/><text fill="#000000" font-family="sans-serif" font-size="11" lengthAdjust="spacingAndGlyphs" text-decoration="underline" textLength="111" x="26" y="77.2549">getInstance():Singleton</text><!--
@startuml singleton
skinparam classFontSize 16

class Singleton {
        
    - {static} instance:Singleton

    + {static} getInstance():Singleton
}
@enduml

PlantUML version 1.2019.06(Sat May 25 03:10:25 AEST 2019)
(GPL source distribution)
Java Runtime: OpenJDK Runtime Environment
JVM: OpenJDK 64-Bit Server VM
Java Version: 11.0.3+7
Operating System: Windows 10
OS Version: 10.0
Default Encoding: Cp1252
Language: en
Country: AU
--></g></svg>