<?xml version="1.0" encoding="UTF-8" standalone="no"?><svg xmlns="http://www.w3.org/2000/svg" xmlns:xlink="http://www.w3.org/1999/xlink" contentScriptType="application/ecmascript" contentStyleType="text/css" height="92px" preserveAspectRatio="none" style="width:174px;height:92px;" version="1.1" viewBox="0 0 174 92" width="174px" zoomAndPan="magnify"><defs><filter height="300%" id="fpmtie4t2cckc" width="300%" x="-1" y="-1"><feGaussianBlur result="blurOut" stdDeviation="2.0"/><feColorMatrix in="blurOut" result="blurOut2" type="matrix" values="0 0 0 0 0 0 0 0 0 0 0 0 0 0 0 0 0 0 .4 0"/><feOffset dx="4.0" dy="4.0" in="blurOut2" result="blurOut3"/><feBlend in="SourceGraphic" in2="blurOut3" mode="normal"/></filter></defs><g><!--class Singleton--><rect fill="#FEFECE" filter="url(#fpmtie4t2cckc)" height="73.6094" id="Singleton" style="stroke: #A80036; stroke-width: 1.5;" width="157" x="6" y="8"/><ellipse cx="45.3" cy="24" fill="#ADD1B2" rx="11" ry="11" style="stroke: #A80036; stroke-width: 1.0;"/><path d="M48.2688,29.6406 Q47.6906,29.9375 47.05,30.0781 Q46.4094,30.2344 45.7063,30.2344 Q43.2063,30.2344 41.8781,28.5938 Q40.5656,26.9375 40.5656,23.8125 Q40.5656,20.6875 41.8781,19.0313 Q43.2063,17.375 45.7063,17.375 Q46.4094,17.375 47.05,17.5313 Q47.7063,17.6875 48.2688,17.9844 L48.2688,20.7031 Q47.6438,20.125 47.05,19.8594 Q46.4563,19.5781 45.8313,19.5781 Q44.4875,19.5781 43.8,20.6563 Q43.1125,21.7188 43.1125,23.8125 Q43.1125,25.9063 43.8,26.9844 Q44.4875,28.0469 45.8313,28.0469 Q46.4563,28.0469 47.05,27.7813 Q47.6438,27.5 48.2688,26.9219 L48.2688,29.6406 Z "/><text fill="#000000" font-family="sans-serif" font-size="16" lengthAdjust="spacingAndGlyphs" textLength="71" x="64.7" y="29.5391">Singleton</text><line style="stroke: #A80036; stroke-width: 1.5;" x1="7" x2="162" y1="40" y2="40"/><rect fill="none" height="6" style="stroke: #C82930; stroke-width: 1.0;" width="6" x="14" y="48.9023"/><text fill="#000000" font-family="sans-serif" font-size="11" lengthAdjust="spacingAndGlyphs" text-decoration="underline" textLength="105" x="26" y="54.2104">instance:Singleton</text><line style="stroke: #A80036; stroke-width: 1.5;" x1="7" x2="162" y1="60.8047" y2="60.8047"/><ellipse cx="17" cy="72.707" fill="#84BE84" rx="3" ry="3" style="stroke: #038048; stroke-width: 1.0;"/><text fill="#000000" font-family="sans-serif" font-size="11" lengthAdjust="spacingAndGlyphs" text-decoration="underline" textLength="131" x="26" y="75.0151">getInstance():Singleton</text><!--
@startuml singleton
skinparam classFontSize 16

class Singleton {
        
    - {static} instance:Singleton

    + {static} getInstance():Singleton
}
@enduml

PlantUML version 1.2019.06(Sat May 25 03:10:25 AEST 2019)
(GPL source distribution)
Java Runtime: OpenJDK Runtime Environment
JVM: OpenJDK 64-Bit Server VM
Java Version: 11.0.4+11
Operating System: Linux
OS Version: 5.2.8-200.fc30.x86_64
Default Encoding: UTF-8
Language: en
Country: AU
--></g></svg>