<?xml version="1.0" encoding="UTF-8" standalone="no"?><svg xmlns="http://www.w3.org/2000/svg" xmlns:xlink="http://www.w3.org/1999/xlink" contentScriptType="application/ecmascript" contentStyleType="text/css" height="188px" preserveAspectRatio="none" style="width:259px;height:188px;" version="1.1" viewBox="0 0 259 188" width="259px" zoomAndPan="magnify"><defs><filter height="300%" id="fhj7dswofqx9x" width="300%" x="-1" y="-1"><feGaussianBlur result="blurOut" stdDeviation="2.0"/><feColorMatrix in="blurOut" result="blurOut2" type="matrix" values="0 0 0 0 0 0 0 0 0 0 0 0 0 0 0 0 0 0 .4 0"/><feOffset dx="4.0" dy="4.0" in="blurOut2" result="blurOut3"/><feBlend in="SourceGraphic" in2="blurOut3" mode="normal"/></filter></defs><g><!--class Context--><rect fill="#FEFECE" filter="url(#fhj7dswofqx9x)" height="60.8047" id="Context" style="stroke: #A80036; stroke-width: 1.5;" width="80" x="6" y="8"/><ellipse cx="21" cy="24" fill="#ADD1B2" rx="11" ry="11" style="stroke: #A80036; stroke-width: 1.0;"/><path d="M23.9688,29.6406 Q23.3906,29.9375 22.75,30.0781 Q22.1094,30.2344 21.4063,30.2344 Q18.9063,30.2344 17.5781,28.5938 Q16.2656,26.9375 16.2656,23.8125 Q16.2656,20.6875 17.5781,19.0313 Q18.9063,17.375 21.4063,17.375 Q22.1094,17.375 22.75,17.5313 Q23.4063,17.6875 23.9688,17.9844 L23.9688,20.7031 Q23.3438,20.125 22.75,19.8594 Q22.1563,19.5781 21.5313,19.5781 Q20.1875,19.5781 19.5,20.6563 Q18.8125,21.7188 18.8125,23.8125 Q18.8125,25.9063 19.5,26.9844 Q20.1875,28.0469 21.5313,28.0469 Q22.1563,28.0469 22.75,27.7813 Q23.3438,27.5 23.9688,26.9219 L23.9688,29.6406 Z "/><text fill="#000000" font-family="sans-serif" font-size="12" lengthAdjust="spacingAndGlyphs" textLength="48" x="35" y="28.1543">Context</text><line style="stroke: #A80036; stroke-width: 1.5;" x1="7" x2="85" y1="40" y2="40"/><line style="stroke: #A80036; stroke-width: 1.5;" x1="7" x2="85" y1="48" y2="48"/><ellipse cx="17" cy="59.9023" fill="#84BE84" rx="3" ry="3" style="stroke: #038048; stroke-width: 1.0;"/><text fill="#000000" font-family="sans-serif" font-size="11" lengthAdjust="spacingAndGlyphs" textLength="42" x="26" y="62.2104">action()</text><!--class State--><rect fill="#FEFECE" filter="url(#fhj7dswofqx9x)" height="60.8047" id="State" style="stroke: #A80036; stroke-width: 1.5;" width="72" x="121" y="8"/><ellipse cx="138.7" cy="24" fill="#B4A7E5" rx="11" ry="11" style="stroke: #A80036; stroke-width: 1.0;"/><path d="M134.6219,19.7656 L134.6219,17.6094 L142.0125,17.6094 L142.0125,19.7656 L139.5438,19.7656 L139.5438,27.8438 L142.0125,27.8438 L142.0125,30 L134.6219,30 L134.6219,27.8438 L137.0906,27.8438 L137.0906,19.7656 L134.6219,19.7656 Z "/><text fill="#000000" font-family="sans-serif" font-size="12" font-style="italic" lengthAdjust="spacingAndGlyphs" textLength="34" x="153.3" y="28.1543">State</text><line style="stroke: #A80036; stroke-width: 1.5;" x1="122" x2="192" y1="40" y2="40"/><line style="stroke: #A80036; stroke-width: 1.5;" x1="122" x2="192" y1="48" y2="48"/><ellipse cx="132" cy="59.9023" fill="#84BE84" rx="3" ry="3" style="stroke: #038048; stroke-width: 1.0;"/><text fill="#000000" font-family="sans-serif" font-size="11" lengthAdjust="spacingAndGlyphs" textLength="46" x="141" y="62.2104">handle()</text><!--class StateA--><rect fill="#FEFECE" filter="url(#fhj7dswofqx9x)" height="48" id="StateA" style="stroke: #A80036; stroke-width: 1.5;" width="74" x="65" y="129"/><ellipse cx="80" cy="145" fill="#ADD1B2" rx="11" ry="11" style="stroke: #A80036; stroke-width: 1.0;"/><path d="M82.9688,150.6406 Q82.3906,150.9375 81.75,151.0781 Q81.1094,151.2344 80.4063,151.2344 Q77.9063,151.2344 76.5781,149.5938 Q75.2656,147.9375 75.2656,144.8125 Q75.2656,141.6875 76.5781,140.0313 Q77.9063,138.375 80.4063,138.375 Q81.1094,138.375 81.75,138.5313 Q82.4063,138.6875 82.9688,138.9844 L82.9688,141.7031 Q82.3438,141.125 81.75,140.8594 Q81.1563,140.5781 80.5313,140.5781 Q79.1875,140.5781 78.5,141.6563 Q77.8125,142.7188 77.8125,144.8125 Q77.8125,146.9063 78.5,147.9844 Q79.1875,149.0469 80.5313,149.0469 Q81.1563,149.0469 81.75,148.7813 Q82.3438,148.5 82.9688,147.9219 L82.9688,150.6406 Z "/><text fill="#000000" font-family="sans-serif" font-size="12" lengthAdjust="spacingAndGlyphs" textLength="42" x="94" y="149.1543">StateA</text><line style="stroke: #A80036; stroke-width: 1.5;" x1="66" x2="138" y1="161" y2="161"/><line style="stroke: #A80036; stroke-width: 1.5;" x1="66" x2="138" y1="169" y2="169"/><!--class StateB--><rect fill="#FEFECE" filter="url(#fhj7dswofqx9x)" height="48" id="StateB" style="stroke: #A80036; stroke-width: 1.5;" width="74" x="174" y="129"/><ellipse cx="189" cy="145" fill="#ADD1B2" rx="11" ry="11" style="stroke: #A80036; stroke-width: 1.0;"/><path d="M191.9688,150.6406 Q191.3906,150.9375 190.75,151.0781 Q190.1094,151.2344 189.4063,151.2344 Q186.9063,151.2344 185.5781,149.5938 Q184.2656,147.9375 184.2656,144.8125 Q184.2656,141.6875 185.5781,140.0313 Q186.9063,138.375 189.4063,138.375 Q190.1094,138.375 190.75,138.5313 Q191.4063,138.6875 191.9688,138.9844 L191.9688,141.7031 Q191.3438,141.125 190.75,140.8594 Q190.1563,140.5781 189.5313,140.5781 Q188.1875,140.5781 187.5,141.6563 Q186.8125,142.7188 186.8125,144.8125 Q186.8125,146.9063 187.5,147.9844 Q188.1875,149.0469 189.5313,149.0469 Q190.1563,149.0469 190.75,148.7813 Q191.3438,148.5 191.9688,147.9219 L191.9688,150.6406 Z "/><text fill="#000000" font-family="sans-serif" font-size="12" lengthAdjust="spacingAndGlyphs" textLength="42" x="203" y="149.1543">StateB</text><line style="stroke: #A80036; stroke-width: 1.5;" x1="175" x2="247" y1="161" y2="161"/><line style="stroke: #A80036; stroke-width: 1.5;" x1="175" x2="247" y1="169" y2="169"/><!--link State to StateA--><path d="M133.5599,87.298 C126.6752,101.6307 119.4434,116.6859 113.642,128.7634 " fill="none" id="State-StateA" style="stroke: #A80036; stroke-width: 1.0; stroke-dasharray: 7.0,7.0;"/><polygon fill="none" points="127.2914,84.181,142.261,69.1839,139.911,90.2428,127.2914,84.181" style="stroke: #A80036; stroke-width: 1.0;"/><!--link State to StateB--><path d="M180.0139,87.298 C186.7734,101.6307 193.8737,116.6859 199.5697,128.7634 " fill="none" id="State-StateB" style="stroke: #A80036; stroke-width: 1.0; stroke-dasharray: 7.0,7.0;"/><polygon fill="none" points="173.671,90.259,171.471,69.1839,186.3334,84.2872,173.671,90.259" style="stroke: #A80036; stroke-width: 1.0;"/><!--link Context to State--><path d="M98.3242,38.5 C98.3242,38.5 104.8597,38.5 107.522,38.5 " fill="none" id="Context-State" style="stroke: #A80036; stroke-width: 1.0;"/><polygon fill="#A80036" points="120.8339,38.5,111.8339,34.5,115.8339,38.5,111.8339,42.5,120.8339,38.5" style="stroke: #A80036; stroke-width: 1.0;"/><line style="stroke: #A80036; stroke-width: 1.0;" x1="115.8339" x2="107.8339" y1="38.5" y2="38.4999"/><polygon fill="#FFFFFF" points="86.3242,38.5,92.3242,42.5,98.3242,38.5,92.3242,34.5,86.3242,38.5" style="stroke: #A80036; stroke-width: 1.0;"/><text fill="#000000" font-family="sans-serif" font-size="13" lengthAdjust="spacingAndGlyphs" textLength="8" x="104.9262" y="34.1226">1</text><!--
@startuml state
class Context {
    + action()
}

interface State {
    + handle()
}
State <|.. StateA
State <|.. StateB

Context o-> "1" State
@enduml

PlantUML version 1.2019.06(Sat May 25 03:10:25 AEST 2019)
(GPL source distribution)
Java Runtime: OpenJDK Runtime Environment
JVM: OpenJDK 64-Bit Server VM
Java Version: 11.0.4+11
Operating System: Linux
OS Version: 5.2.8-200.fc30.x86_64
Default Encoding: UTF-8
Language: en
Country: AU
--></g></svg>