<?xml version="1.0" encoding="UTF-8" standalone="no"?><svg xmlns="http://www.w3.org/2000/svg" xmlns:xlink="http://www.w3.org/1999/xlink" contentScriptType="application/ecmascript" contentStyleType="text/css" height="188px" preserveAspectRatio="none" style="width:286px;height:188px;" version="1.1" viewBox="0 0 286 188" width="286px" zoomAndPan="magnify"><defs><filter height="300%" id="f19k2zey1r4950" width="300%" x="-1" y="-1"><feGaussianBlur result="blurOut" stdDeviation="2.0"/><feColorMatrix in="blurOut" result="blurOut2" type="matrix" values="0 0 0 0 0 0 0 0 0 0 0 0 0 0 0 0 0 0 .4 0"/><feOffset dx="4.0" dy="4.0" in="blurOut2" result="blurOut3"/><feBlend in="SourceGraphic" in2="blurOut3" mode="normal"/></filter></defs><g><!--class Context--><rect fill="#FEFECE" filter="url(#f19k2zey1r4950)" height="60.8047" id="Context" style="stroke: #A80036; stroke-width: 1.5;" width="80" x="6" y="8"/><ellipse cx="21" cy="24" fill="#ADD1B2" rx="11" ry="11" style="stroke: #A80036; stroke-width: 1.0;"/><path d="M23.9688,29.6406 Q23.3906,29.9375 22.75,30.0781 Q22.1094,30.2344 21.4063,30.2344 Q18.9063,30.2344 17.5781,28.5938 Q16.2656,26.9375 16.2656,23.8125 Q16.2656,20.6875 17.5781,19.0313 Q18.9063,17.375 21.4063,17.375 Q22.1094,17.375 22.75,17.5313 Q23.4063,17.6875 23.9688,17.9844 L23.9688,20.7031 Q23.3438,20.125 22.75,19.8594 Q22.1563,19.5781 21.5313,19.5781 Q20.1875,19.5781 19.5,20.6563 Q18.8125,21.7188 18.8125,23.8125 Q18.8125,25.9063 19.5,26.9844 Q20.1875,28.0469 21.5313,28.0469 Q22.1563,28.0469 22.75,27.7813 Q23.3438,27.5 23.9688,26.9219 L23.9688,29.6406 Z "/><text fill="#000000" font-family="sans-serif" font-size="12" lengthAdjust="spacingAndGlyphs" textLength="48" x="35" y="28.1543">Context</text><line style="stroke: #A80036; stroke-width: 1.5;" x1="7" x2="85" y1="40" y2="40"/><line style="stroke: #A80036; stroke-width: 1.5;" x1="7" x2="85" y1="48" y2="48"/><ellipse cx="17" cy="59.9023" fill="#84BE84" rx="3" ry="3" style="stroke: #038048; stroke-width: 1.0;"/><text fill="#000000" font-family="sans-serif" font-size="11" lengthAdjust="spacingAndGlyphs" textLength="42" x="26" y="62.2104">action()</text><!--class Strategy--><rect fill="#FEFECE" filter="url(#f19k2zey1r4950)" height="60.8047" id="Strategy" style="stroke: #A80036; stroke-width: 1.5;" width="88" x="121" y="8"/><ellipse cx="136.9" cy="24" fill="#B4A7E5" rx="11" ry="11" style="stroke: #A80036; stroke-width: 1.0;"/><path d="M132.8219,19.7656 L132.8219,17.6094 L140.2125,17.6094 L140.2125,19.7656 L137.7438,19.7656 L137.7438,27.8438 L140.2125,27.8438 L140.2125,30 L132.8219,30 L132.8219,27.8438 L135.2906,27.8438 L135.2906,19.7656 L132.8219,19.7656 Z "/><text fill="#000000" font-family="sans-serif" font-size="12" font-style="italic" lengthAdjust="spacingAndGlyphs" textLength="54" x="151.1" y="28.1543">Strategy</text><line style="stroke: #A80036; stroke-width: 1.5;" x1="122" x2="208" y1="40" y2="40"/><line style="stroke: #A80036; stroke-width: 1.5;" x1="122" x2="208" y1="48" y2="48"/><ellipse cx="132" cy="59.9023" fill="#84BE84" rx="3" ry="3" style="stroke: #038048; stroke-width: 1.0;"/><text fill="#000000" font-family="sans-serif" font-size="11" lengthAdjust="spacingAndGlyphs" textLength="62" x="141" y="62.2104">algorithm()</text><!--class StrategyA--><rect fill="#FEFECE" filter="url(#f19k2zey1r4950)" height="48" id="StrategyA" style="stroke: #A80036; stroke-width: 1.5;" width="93" x="54.5" y="129"/><ellipse cx="69.5" cy="145" fill="#ADD1B2" rx="11" ry="11" style="stroke: #A80036; stroke-width: 1.0;"/><path d="M72.4688,150.6406 Q71.8906,150.9375 71.25,151.0781 Q70.6094,151.2344 69.9063,151.2344 Q67.4063,151.2344 66.0781,149.5938 Q64.7656,147.9375 64.7656,144.8125 Q64.7656,141.6875 66.0781,140.0313 Q67.4063,138.375 69.9063,138.375 Q70.6094,138.375 71.25,138.5313 Q71.9063,138.6875 72.4688,138.9844 L72.4688,141.7031 Q71.8438,141.125 71.25,140.8594 Q70.6563,140.5781 70.0313,140.5781 Q68.6875,140.5781 68,141.6563 Q67.3125,142.7188 67.3125,144.8125 Q67.3125,146.9063 68,147.9844 Q68.6875,149.0469 70.0313,149.0469 Q70.6563,149.0469 71.25,148.7813 Q71.8438,148.5 72.4688,147.9219 L72.4688,150.6406 Z "/><text fill="#000000" font-family="sans-serif" font-size="12" lengthAdjust="spacingAndGlyphs" textLength="61" x="83.5" y="149.1543">StrategyA</text><line style="stroke: #A80036; stroke-width: 1.5;" x1="55.5" x2="146.5" y1="161" y2="161"/><line style="stroke: #A80036; stroke-width: 1.5;" x1="55.5" x2="146.5" y1="169" y2="169"/><!--class StrategyB--><rect fill="#FEFECE" filter="url(#f19k2zey1r4950)" height="48" id="StrategyB" style="stroke: #A80036; stroke-width: 1.5;" width="93" x="182.5" y="129"/><ellipse cx="197.5" cy="145" fill="#ADD1B2" rx="11" ry="11" style="stroke: #A80036; stroke-width: 1.0;"/><path d="M200.4688,150.6406 Q199.8906,150.9375 199.25,151.0781 Q198.6094,151.2344 197.9063,151.2344 Q195.4063,151.2344 194.0781,149.5938 Q192.7656,147.9375 192.7656,144.8125 Q192.7656,141.6875 194.0781,140.0313 Q195.4063,138.375 197.9063,138.375 Q198.6094,138.375 199.25,138.5313 Q199.9063,138.6875 200.4688,138.9844 L200.4688,141.7031 Q199.8438,141.125 199.25,140.8594 Q198.6563,140.5781 198.0313,140.5781 Q196.6875,140.5781 196,141.6563 Q195.3125,142.7188 195.3125,144.8125 Q195.3125,146.9063 196,147.9844 Q196.6875,149.0469 198.0313,149.0469 Q198.6563,149.0469 199.25,148.7813 Q199.8438,148.5 200.4688,147.9219 L200.4688,150.6406 Z "/><text fill="#000000" font-family="sans-serif" font-size="12" lengthAdjust="spacingAndGlyphs" textLength="61" x="211.5" y="149.1543">StrategyB</text><line style="stroke: #A80036; stroke-width: 1.5;" x1="183.5" x2="274.5" y1="161" y2="161"/><line style="stroke: #A80036; stroke-width: 1.5;" x1="183.5" x2="274.5" y1="169" y2="169"/><!--link Strategy to StrategyA--><path d="M137.9941,86.8152 C129.9023,101.292 121.3737,116.5502 114.5471,128.7634 " fill="none" id="Strategy-StrategyA" style="stroke: #A80036; stroke-width: 1.0; stroke-dasharray: 7.0,7.0;"/><polygon fill="none" points="131.9807,83.2265,147.8492,69.1839,144.2013,90.0572,131.9807,83.2265" style="stroke: #A80036; stroke-width: 1.0;"/><!--link Strategy to StrategyB--><path d="M192.0059,86.8152 C200.0977,101.292 208.6263,116.5502 215.4529,128.7634 " fill="none" id="Strategy-StrategyB" style="stroke: #A80036; stroke-width: 1.0; stroke-dasharray: 7.0,7.0;"/><polygon fill="none" points="185.7987,90.0572,182.1508,69.1839,198.0193,83.2265,185.7987,90.0572" style="stroke: #A80036; stroke-width: 1.0;"/><!--link Context to Strategy--><path d="M98.4414,38.5 C98.4414,38.5 104.9015,38.5 107.5531,38.5 " fill="none" id="Context-Strategy" style="stroke: #A80036; stroke-width: 1.0;"/><polygon fill="#A80036" points="120.8108,38.5,111.8108,34.5,115.8108,38.5,111.8108,42.5,120.8108,38.5" style="stroke: #A80036; stroke-width: 1.0;"/><line style="stroke: #A80036; stroke-width: 1.0;" x1="115.8108" x2="107.8108" y1="38.5" y2="38.4999"/><polygon fill="#FFFFFF" points="86.4414,38.5,92.4414,42.5,98.4414,38.5,92.4414,34.5,86.4414,38.5" style="stroke: #A80036; stroke-width: 1.0;"/><text fill="#000000" font-family="sans-serif" font-size="13" lengthAdjust="spacingAndGlyphs" textLength="8" x="105.1306" y="34.3977">1</text><!--
@startuml strategy
class Context {
    + action()
}

interface Strategy {
    + algorithm()
}
Strategy <|.. StrategyA
Strategy <|.. StrategyB

Context o-> "1" Strategy
@enduml

PlantUML version 1.2019.06(Sat May 25 03:10:25 AEST 2019)
(GPL source distribution)
Java Runtime: OpenJDK Runtime Environment
JVM: OpenJDK 64-Bit Server VM
Java Version: 11.0.4+11
Operating System: Linux
OS Version: 5.2.8-200.fc30.x86_64
Default Encoding: UTF-8
Language: en
Country: AU
--></g></svg>