<?xml version="1.0" encoding="UTF-8" standalone="no"?><svg xmlns="http://www.w3.org/2000/svg" xmlns:xlink="http://www.w3.org/1999/xlink" contentScriptType="application/ecmascript" contentStyleType="text/css" height="296px" preserveAspectRatio="none" style="width:511px;height:296px;" version="1.1" viewBox="0 0 511 296" width="511px" zoomAndPan="magnify"><defs><filter height="300%" id="f6aawcmz2v17h" width="300%" x="-1" y="-1"><feGaussianBlur result="blurOut" stdDeviation="2.0"/><feColorMatrix in="blurOut" result="blurOut2" type="matrix" values="0 0 0 0 0 0 0 0 0 0 0 0 0 0 0 0 0 0 .4 0"/><feOffset dx="4.0" dy="4.0" in="blurOut2" result="blurOut3"/><feBlend in="SourceGraphic" in2="blurOut3" mode="normal"/></filter></defs><g><!--class Element--><rect fill="#FEFECE" filter="url(#f6aawcmz2v17h)" height="60.8047" id="Element" style="stroke: #A80036; stroke-width: 1.5;" width="121" x="202.5" y="116"/><ellipse cx="234.6" cy="132" fill="#A9DCDF" rx="11" ry="11" style="stroke: #A80036; stroke-width: 1.0;"/><path d="M234.7094,127.3438 L233.5531,132.4219 L235.8813,132.4219 L234.7094,127.3438 Z M233.225,125.1094 L236.2094,125.1094 L239.5688,137.5 L237.1156,137.5 L236.35,134.4375 L233.0688,134.4375 L232.3188,137.5 L229.8813,137.5 L233.225,125.1094 Z "/><text fill="#000000" font-family="sans-serif" font-size="12" font-style="italic" lengthAdjust="spacingAndGlyphs" textLength="51" x="252.4" y="136.1543">Element</text><line style="stroke: #A80036; stroke-width: 1.5;" x1="203.5" x2="322.5" y1="148" y2="148"/><line style="stroke: #A80036; stroke-width: 1.5;" x1="203.5" x2="322.5" y1="156" y2="156"/><ellipse cx="213.5" cy="167.9023" fill="#84BE84" rx="3" ry="3" style="stroke: #038048; stroke-width: 1.0;"/><text fill="#000000" font-family="sans-serif" font-size="11" lengthAdjust="spacingAndGlyphs" textLength="95" x="222.5" y="170.2104">accept(v: Visitor)</text><!--class ConcreteElementA--><rect fill="#FEFECE" filter="url(#f6aawcmz2v17h)" height="48" id="ConcreteElementA" style="stroke: #A80036; stroke-width: 1.5;" width="148" x="6" y="237"/><ellipse cx="21" cy="253" fill="#ADD1B2" rx="11" ry="11" style="stroke: #A80036; stroke-width: 1.0;"/><path d="M23.9688,258.6406 Q23.3906,258.9375 22.75,259.0781 Q22.1094,259.2344 21.4063,259.2344 Q18.9063,259.2344 17.5781,257.5938 Q16.2656,255.9375 16.2656,252.8125 Q16.2656,249.6875 17.5781,248.0313 Q18.9063,246.375 21.4063,246.375 Q22.1094,246.375 22.75,246.5313 Q23.4063,246.6875 23.9688,246.9844 L23.9688,249.7031 Q23.3438,249.125 22.75,248.8594 Q22.1563,248.5781 21.5313,248.5781 Q20.1875,248.5781 19.5,249.6563 Q18.8125,250.7188 18.8125,252.8125 Q18.8125,254.9063 19.5,255.9844 Q20.1875,257.0469 21.5313,257.0469 Q22.1563,257.0469 22.75,256.7813 Q23.3438,256.5 23.9688,255.9219 L23.9688,258.6406 Z "/><text fill="#000000" font-family="sans-serif" font-size="12" lengthAdjust="spacingAndGlyphs" textLength="116" x="35" y="257.1543">ConcreteElementA</text><line style="stroke: #A80036; stroke-width: 1.5;" x1="7" x2="153" y1="269" y2="269"/><line style="stroke: #A80036; stroke-width: 1.5;" x1="7" x2="153" y1="277" y2="277"/><!--class ConcreteElementB--><rect fill="#FEFECE" filter="url(#f6aawcmz2v17h)" height="48" id="ConcreteElementB" style="stroke: #A80036; stroke-width: 1.5;" width="148" x="189" y="237"/><ellipse cx="204" cy="253" fill="#ADD1B2" rx="11" ry="11" style="stroke: #A80036; stroke-width: 1.0;"/><path d="M206.9688,258.6406 Q206.3906,258.9375 205.75,259.0781 Q205.1094,259.2344 204.4063,259.2344 Q201.9063,259.2344 200.5781,257.5938 Q199.2656,255.9375 199.2656,252.8125 Q199.2656,249.6875 200.5781,248.0313 Q201.9063,246.375 204.4063,246.375 Q205.1094,246.375 205.75,246.5313 Q206.4063,246.6875 206.9688,246.9844 L206.9688,249.7031 Q206.3438,249.125 205.75,248.8594 Q205.1563,248.5781 204.5313,248.5781 Q203.1875,248.5781 202.5,249.6563 Q201.8125,250.7188 201.8125,252.8125 Q201.8125,254.9063 202.5,255.9844 Q203.1875,257.0469 204.5313,257.0469 Q205.1563,257.0469 205.75,256.7813 Q206.3438,256.5 206.9688,255.9219 L206.9688,258.6406 Z "/><text fill="#000000" font-family="sans-serif" font-size="12" lengthAdjust="spacingAndGlyphs" textLength="116" x="218" y="257.1543">ConcreteElementB</text><line style="stroke: #A80036; stroke-width: 1.5;" x1="190" x2="336" y1="269" y2="269"/><line style="stroke: #A80036; stroke-width: 1.5;" x1="190" x2="336" y1="277" y2="277"/><!--class Visitor--><rect fill="#FEFECE" filter="url(#f6aawcmz2v17h)" height="60.8047" id="Visitor" style="stroke: #A80036; stroke-width: 1.5;" width="118" x="368" y="116"/><ellipse cx="404.6" cy="132" fill="#B4A7E5" rx="11" ry="11" style="stroke: #A80036; stroke-width: 1.0;"/><path d="M400.5219,127.7656 L400.5219,125.6094 L407.9125,125.6094 L407.9125,127.7656 L405.4438,127.7656 L405.4438,135.8438 L407.9125,135.8438 L407.9125,138 L400.5219,138 L400.5219,135.8438 L402.9906,135.8438 L402.9906,127.7656 L400.5219,127.7656 Z "/><text fill="#000000" font-family="sans-serif" font-size="12" font-style="italic" lengthAdjust="spacingAndGlyphs" textLength="38" x="423.4" y="136.1543">Visitor</text><line style="stroke: #A80036; stroke-width: 1.5;" x1="369" x2="485" y1="148" y2="148"/><line style="stroke: #A80036; stroke-width: 1.5;" x1="369" x2="485" y1="156" y2="156"/><ellipse cx="379" cy="167.9023" fill="#84BE84" rx="3" ry="3" style="stroke: #038048; stroke-width: 1.0;"/><text fill="#000000" font-family="sans-serif" font-size="11" lengthAdjust="spacingAndGlyphs" textLength="92" x="388" y="170.2104">visit(e: Element)</text><!--class ConcreteVisitor--><rect fill="#FEFECE" filter="url(#f6aawcmz2v17h)" height="48" id="ConcreteVisitor" style="stroke: #A80036; stroke-width: 1.5;" width="128" x="372" y="237"/><ellipse cx="387" cy="253" fill="#ADD1B2" rx="11" ry="11" style="stroke: #A80036; stroke-width: 1.0;"/><path d="M389.9688,258.6406 Q389.3906,258.9375 388.75,259.0781 Q388.1094,259.2344 387.4063,259.2344 Q384.9063,259.2344 383.5781,257.5938 Q382.2656,255.9375 382.2656,252.8125 Q382.2656,249.6875 383.5781,248.0313 Q384.9063,246.375 387.4063,246.375 Q388.1094,246.375 388.75,246.5313 Q389.4063,246.6875 389.9688,246.9844 L389.9688,249.7031 Q389.3438,249.125 388.75,248.8594 Q388.1563,248.5781 387.5313,248.5781 Q386.1875,248.5781 385.5,249.6563 Q384.8125,250.7188 384.8125,252.8125 Q384.8125,254.9063 385.5,255.9844 Q386.1875,257.0469 387.5313,257.0469 Q388.1563,257.0469 388.75,256.7813 Q389.3438,256.5 389.9688,255.9219 L389.9688,258.6406 Z "/><text fill="#000000" font-family="sans-serif" font-size="12" lengthAdjust="spacingAndGlyphs" textLength="96" x="401" y="257.1543">ConcreteVisitor</text><line style="stroke: #A80036; stroke-width: 1.5;" x1="373" x2="499" y1="269" y2="269"/><line style="stroke: #A80036; stroke-width: 1.5;" x1="373" x2="499" y1="277" y2="277"/><!--class Client--><rect fill="#FEFECE" filter="url(#f6aawcmz2v17h)" height="48" id="Client" style="stroke: #A80036; stroke-width: 1.5;" width="67" x="306.5" y="8"/><ellipse cx="321.5" cy="24" fill="#ADD1B2" rx="11" ry="11" style="stroke: #A80036; stroke-width: 1.0;"/><path d="M324.4688,29.6406 Q323.8906,29.9375 323.25,30.0781 Q322.6094,30.2344 321.9063,30.2344 Q319.4063,30.2344 318.0781,28.5938 Q316.7656,26.9375 316.7656,23.8125 Q316.7656,20.6875 318.0781,19.0313 Q319.4063,17.375 321.9063,17.375 Q322.6094,17.375 323.25,17.5313 Q323.9063,17.6875 324.4688,17.9844 L324.4688,20.7031 Q323.8438,20.125 323.25,19.8594 Q322.6563,19.5781 322.0313,19.5781 Q320.6875,19.5781 320,20.6563 Q319.3125,21.7188 319.3125,23.8125 Q319.3125,25.9063 320,26.9844 Q320.6875,28.0469 322.0313,28.0469 Q322.6563,28.0469 323.25,27.7813 Q323.8438,27.5 324.4688,26.9219 L324.4688,29.6406 Z "/><text fill="#000000" font-family="sans-serif" font-size="12" lengthAdjust="spacingAndGlyphs" textLength="35" x="335.5" y="28.1543">Client</text><line style="stroke: #A80036; stroke-width: 1.5;" x1="307.5" x2="372.5" y1="40" y2="40"/><line style="stroke: #A80036; stroke-width: 1.5;" x1="307.5" x2="372.5" y1="48" y2="48"/><!--link Element to ConcreteElementA--><path d="M182.3178,147 C182.3178,147 80,147 80,147 C80,147 80,203.3599 80,236.8235 " fill="none" id="Element-ConcreteElementA" style="stroke: #A80036; stroke-width: 1.0;"/><polygon fill="none" points="182.3179,139.9999,202.3178,147,182.3178,153.9999,182.3179,139.9999" style="stroke: #A80036; stroke-width: 1.0;"/><!--link Element to ConcreteElementB--><path d="M263,197.1839 C263,197.1839 263,236.7634 263,236.7634 " fill="none" id="Element-ConcreteElementB" style="stroke: #A80036; stroke-width: 1.0;"/><polygon fill="none" points="256.0001,197.1839,263,177.1839,270.0001,197.1839,256.0001,197.1839" style="stroke: #A80036; stroke-width: 1.0;"/><!--link Visitor to ConcreteVisitor--><path d="M429,197.1839 C429,197.1839 429,236.7634 429,236.7634 " fill="none" id="Visitor-ConcreteVisitor" style="stroke: #A80036; stroke-width: 1.0;"/><polygon fill="none" points="422.0001,197.1839,429,177.1839,436.0001,197.1839,422.0001,197.1839" style="stroke: #A80036; stroke-width: 1.0;"/><!--link Client to Visitor--><path d="M352.5,56.1078 C352.5,89.8295 352.5,147 352.5,147 C352.5,147 362.9364,147 362.9364,147 " fill="none" id="Client-Visitor" style="stroke: #A80036; stroke-width: 1.0;"/><polygon fill="#A80036" points="367.9364,147,358.9364,143,362.9364,147,358.9364,151,367.9364,147" style="stroke: #A80036; stroke-width: 1.0;"/><!--link Client to Element--><path d="M315,56.003 C315,56.003 315,110.9818 315,110.9818 " fill="none" id="Client-Element" style="stroke: #A80036; stroke-width: 1.0;"/><polygon fill="#A80036" points="315,115.9818,319,106.9818,315,110.9818,311,106.9818,315,115.9818" style="stroke: #A80036; stroke-width: 1.0;"/><!--
@startuml visitor
skinparam Linetype ortho

abstract class Element {
    + accept(v: Visitor)
}
Element <|- - ConcreteElementA 
Element <|- - ConcreteElementB 

interface Visitor {
    + visit(e: Element)
}
Visitor <|- - ConcreteVisitor

Client - -> Visitor
Client - -> Element

@enduml

PlantUML version 1.2019.06(Sat May 25 03:10:25 AEST 2019)
(GPL source distribution)
Java Runtime: OpenJDK Runtime Environment
JVM: OpenJDK 64-Bit Server VM
Java Version: 11.0.4+11
Operating System: Linux
OS Version: 5.2.8-200.fc30.x86_64
Default Encoding: UTF-8
Language: en
Country: AU
--></g></svg>