<?xml version="1.0" encoding="UTF-8" standalone="no"?><svg xmlns="http://www.w3.org/2000/svg" xmlns:xlink="http://www.w3.org/1999/xlink" contentScriptType="application/ecmascript" contentStyleType="text/css" height="372px" preserveAspectRatio="none" style="width:580px;height:372px;" version="1.1" viewBox="0 0 580 372" width="580px" zoomAndPan="magnify"><defs><filter height="300%" id="f1f43ce6fj5529" width="300%" x="-1" y="-1"><feGaussianBlur result="blurOut" stdDeviation="2.0"/><feColorMatrix in="blurOut" result="blurOut2" type="matrix" values="0 0 0 0 0 0 0 0 0 0 0 0 0 0 0 0 0 0 .4 0"/><feOffset dx="4.0" dy="4.0" in="blurOut2" result="blurOut3"/><feBlend in="SourceGraphic" in2="blurOut3" mode="normal"/></filter></defs><g><rect fill="#FFFFFF" filter="url(#f1f43ce6fj5529)" height="302.9297" style="stroke: #A80036; stroke-width: 1.0;" width="10" x="33" y="48.2969"/><rect fill="#FFFFFF" filter="url(#f1f43ce6fj5529)" height="14" style="stroke: #A80036; stroke-width: 1.0;" width="10" x="38" y="127.6953"/><rect fill="#FFFFFF" filter="url(#f1f43ce6fj5529)" height="14" style="stroke: #A80036; stroke-width: 1.0;" width="10" x="38" y="199.9609"/><rect fill="#FFFFFF" filter="url(#f1f43ce6fj5529)" height="14" style="stroke: #A80036; stroke-width: 1.0;" width="10" x="38" y="286.2266"/><rect fill="#FFFFFF" filter="url(#f1f43ce6fj5529)" height="272.7969" style="stroke: #A80036; stroke-width: 1.0;" width="10" x="131" y="69.4297"/><rect fill="#FFFFFF" filter="url(#f1f43ce6fj5529)" height="229.6641" style="stroke: #A80036; stroke-width: 1.0;" width="10" x="251" y="98.5625"/><rect fill="#FFFFFF" filter="url(#f1f43ce6fj5529)" height="57.1328" style="stroke: #A80036; stroke-width: 1.0;" width="10" x="380" y="170.8281"/><rect fill="#FFFFFF" filter="url(#f1f43ce6fj5529)" height="57.1328" style="stroke: #A80036; stroke-width: 1.0;" width="10" x="508.5" y="257.0938"/><line style="stroke: #A80036; stroke-width: 1.0; stroke-dasharray: 5.0,5.0;" x1="38" x2="38" y1="38.2969" y2="360.2266"/><line style="stroke: #A80036; stroke-width: 1.0; stroke-dasharray: 5.0,5.0;" x1="135.5" x2="135.5" y1="38.2969" y2="360.2266"/><line style="stroke: #A80036; stroke-width: 1.0; stroke-dasharray: 5.0,5.0;" x1="256" x2="256" y1="38.2969" y2="360.2266"/><line style="stroke: #A80036; stroke-width: 1.0; stroke-dasharray: 5.0,5.0;" x1="385" x2="385" y1="38.2969" y2="360.2266"/><line style="stroke: #A80036; stroke-width: 1.0; stroke-dasharray: 5.0,5.0;" x1="513" x2="513" y1="38.2969" y2="360.2266"/><rect fill="#FEFECE" filter="url(#f1f43ce6fj5529)" height="30.2969" style="stroke: #A80036; stroke-width: 1.5;" width="56" x="8" y="3"/><text fill="#000000" font-family="sans-serif" font-size="14" lengthAdjust="spacingAndGlyphs" textLength="42" x="15" y="22.9951">Visitor</text><rect fill="#FEFECE" filter="url(#f1f43ce6fj5529)" height="30.2969" style="stroke: #A80036; stroke-width: 1.5;" width="53" x="107.5" y="3"/><text fill="#000000" font-family="sans-serif" font-size="14" lengthAdjust="spacingAndGlyphs" textLength="39" x="114.5" y="22.9951">Client</text><rect fill="#FEFECE" filter="url(#f1f43ce6fj5529)" height="30.2969" style="stroke: #A80036; stroke-width: 1.5;" width="116" x="196" y="3"/><text fill="#000000" font-family="sans-serif" font-size="14" lengthAdjust="spacingAndGlyphs" textLength="102" x="203" y="22.9951">ParentElement</text><rect fill="#FEFECE" filter="url(#f1f43ce6fj5529)" height="30.2969" style="stroke: #A80036; stroke-width: 1.5;" width="114" x="326" y="3"/><text fill="#000000" font-family="sans-serif" font-size="14" lengthAdjust="spacingAndGlyphs" textLength="100" x="333" y="22.9951">ChildElementA</text><rect fill="#FEFECE" filter="url(#f1f43ce6fj5529)" height="30.2969" style="stroke: #A80036; stroke-width: 1.5;" width="115" x="454" y="3"/><text fill="#000000" font-family="sans-serif" font-size="14" lengthAdjust="spacingAndGlyphs" textLength="101" x="461" y="22.9951">ChildElementB</text><rect fill="#FFFFFF" filter="url(#f1f43ce6fj5529)" height="302.9297" style="stroke: #A80036; stroke-width: 1.0;" width="10" x="33" y="48.2969"/><rect fill="#FFFFFF" filter="url(#f1f43ce6fj5529)" height="14" style="stroke: #A80036; stroke-width: 1.0;" width="10" x="38" y="127.6953"/><rect fill="#FFFFFF" filter="url(#f1f43ce6fj5529)" height="14" style="stroke: #A80036; stroke-width: 1.0;" width="10" x="38" y="199.9609"/><rect fill="#FFFFFF" filter="url(#f1f43ce6fj5529)" height="14" style="stroke: #A80036; stroke-width: 1.0;" width="10" x="38" y="286.2266"/><rect fill="#FFFFFF" filter="url(#f1f43ce6fj5529)" height="272.7969" style="stroke: #A80036; stroke-width: 1.0;" width="10" x="131" y="69.4297"/><rect fill="#FFFFFF" filter="url(#f1f43ce6fj5529)" height="229.6641" style="stroke: #A80036; stroke-width: 1.0;" width="10" x="251" y="98.5625"/><rect fill="#FFFFFF" filter="url(#f1f43ce6fj5529)" height="57.1328" style="stroke: #A80036; stroke-width: 1.0;" width="10" x="380" y="170.8281"/><rect fill="#FFFFFF" filter="url(#f1f43ce6fj5529)" height="57.1328" style="stroke: #A80036; stroke-width: 1.0;" width="10" x="508.5" y="257.0938"/><polygon fill="#A80036" points="119,65.4297,129,69.4297,119,73.4297,123,69.4297" style="stroke: #A80036; stroke-width: 1.0;"/><line style="stroke: #A80036; stroke-width: 1.0;" x1="43" x2="125" y1="69.4297" y2="69.4297"/><text fill="#000000" font-family="sans-serif" font-size="13" lengthAdjust="spacingAndGlyphs" textLength="69" x="50" y="64.3638">call(visitor)</text><polygon fill="#A80036" points="239,94.5625,249,98.5625,239,102.5625,243,98.5625" style="stroke: #A80036; stroke-width: 1.0;"/><line style="stroke: #A80036; stroke-width: 1.0;" x1="141" x2="245" y1="98.5625" y2="98.5625"/><text fill="#000000" font-family="sans-serif" font-size="13" lengthAdjust="spacingAndGlyphs" textLength="91" x="148" y="93.4966">accept(visitor)</text><polygon fill="#A80036" points="59,123.6953,49,127.6953,59,131.6953,55,127.6953" style="stroke: #A80036; stroke-width: 1.0;"/><line style="stroke: #A80036; stroke-width: 1.0;" x1="53" x2="250" y1="127.6953" y2="127.6953"/><text fill="#000000" font-family="sans-serif" font-size="13" lengthAdjust="spacingAndGlyphs" textLength="130" x="65" y="122.6294">visit(parentElement)</text><polygon fill="#A80036" points="239,137.6953,249,141.6953,239,145.6953,243,141.6953" style="stroke: #A80036; stroke-width: 1.0;"/><line style="stroke: #A80036; stroke-width: 1.0; stroke-dasharray: 2.0,2.0;" x1="43" x2="245" y1="141.6953" y2="141.6953"/><polygon fill="#A80036" points="368,166.8281,378,170.8281,368,174.8281,372,170.8281" style="stroke: #A80036; stroke-width: 1.0;"/><line style="stroke: #A80036; stroke-width: 1.0;" x1="261" x2="374" y1="170.8281" y2="170.8281"/><text fill="#000000" font-family="sans-serif" font-size="13" lengthAdjust="spacingAndGlyphs" textLength="91" x="268" y="165.7622">accept(visitor)</text><polygon fill="#A80036" points="59,195.9609,49,199.9609,59,203.9609,55,199.9609" style="stroke: #A80036; stroke-width: 1.0;"/><line style="stroke: #A80036; stroke-width: 1.0;" x1="53" x2="379" y1="199.9609" y2="199.9609"/><text fill="#000000" font-family="sans-serif" font-size="13" lengthAdjust="spacingAndGlyphs" textLength="126" x="65" y="194.895">visit(childElementA)</text><polygon fill="#A80036" points="368,209.9609,378,213.9609,368,217.9609,372,213.9609" style="stroke: #A80036; stroke-width: 1.0;"/><line style="stroke: #A80036; stroke-width: 1.0; stroke-dasharray: 2.0,2.0;" x1="43" x2="374" y1="213.9609" y2="213.9609"/><polygon fill="#A80036" points="272,223.9609,262,227.9609,272,231.9609,268,227.9609" style="stroke: #A80036; stroke-width: 1.0;"/><line style="stroke: #A80036; stroke-width: 1.0; stroke-dasharray: 2.0,2.0;" x1="266" x2="384" y1="227.9609" y2="227.9609"/><polygon fill="#A80036" points="496.5,253.0938,506.5,257.0938,496.5,261.0938,500.5,257.0938" style="stroke: #A80036; stroke-width: 1.0;"/><line style="stroke: #A80036; stroke-width: 1.0;" x1="261" x2="502.5" y1="257.0938" y2="257.0938"/><text fill="#000000" font-family="sans-serif" font-size="13" lengthAdjust="spacingAndGlyphs" textLength="91" x="268" y="252.0278">accept(visitor)</text><polygon fill="#A80036" points="59,282.2266,49,286.2266,59,290.2266,55,286.2266" style="stroke: #A80036; stroke-width: 1.0;"/><line style="stroke: #A80036; stroke-width: 1.0;" x1="53" x2="507.5" y1="286.2266" y2="286.2266"/><text fill="#000000" font-family="sans-serif" font-size="13" lengthAdjust="spacingAndGlyphs" textLength="126" x="65" y="281.1606">visit(childElementB)</text><polygon fill="#A80036" points="496.5,296.2266,506.5,300.2266,496.5,304.2266,500.5,300.2266" style="stroke: #A80036; stroke-width: 1.0;"/><line style="stroke: #A80036; stroke-width: 1.0; stroke-dasharray: 2.0,2.0;" x1="43" x2="502.5" y1="300.2266" y2="300.2266"/><polygon fill="#A80036" points="272,310.2266,262,314.2266,272,318.2266,268,314.2266" style="stroke: #A80036; stroke-width: 1.0;"/><line style="stroke: #A80036; stroke-width: 1.0; stroke-dasharray: 2.0,2.0;" x1="266" x2="512.5" y1="314.2266" y2="314.2266"/><polygon fill="#A80036" points="152,324.2266,142,328.2266,152,332.2266,148,328.2266" style="stroke: #A80036; stroke-width: 1.0;"/><line style="stroke: #A80036; stroke-width: 1.0; stroke-dasharray: 2.0,2.0;" x1="146" x2="255" y1="328.2266" y2="328.2266"/><polygon fill="#A80036" points="54,338.2266,44,342.2266,54,346.2266,50,342.2266" style="stroke: #A80036; stroke-width: 1.0;"/><line style="stroke: #A80036; stroke-width: 1.0; stroke-dasharray: 2.0,2.0;" x1="48" x2="135" y1="342.2266" y2="342.2266"/><!--
@startuml visitor_seq 
    hide footbox


    participant Visitor
    participant Client
    participant ParentElement
    participant ChildElementA
    participant ChildElementB

    activate Visitor
    Visitor -> Client : call(visitor)
    activate Client
    Client -> ParentElement : accept(visitor)
    activate ParentElement
    ParentElement -> Visitor : visit(parentElement)
    activate Visitor
    return
    ParentElement -> ChildElementA : accept(visitor)
    activate ChildElementA
    ChildElementA -> Visitor : visit(childElementA)
    activate Visitor
    return
    return
    ParentElement -> ChildElementB : accept(visitor)
    activate ChildElementB
    ChildElementB -> Visitor : visit(childElementB)
    activate Visitor
    return
    return
    return
    return
@enduml

PlantUML version 1.2019.06(Sat May 25 03:10:25 AEST 2019)
(GPL source distribution)
Java Runtime: OpenJDK Runtime Environment
JVM: OpenJDK 64-Bit Server VM
Java Version: 11.0.4+11
Operating System: Linux
OS Version: 5.2.8-200.fc30.x86_64
Default Encoding: UTF-8
Language: en
Country: AU
--></g></svg>