<?xml version="1.0" encoding="UTF-8" standalone="no"?><svg xmlns="http://www.w3.org/2000/svg" xmlns:xlink="http://www.w3.org/1999/xlink" contentScriptType="application/ecmascript" contentStyleType="text/css" height="153px" preserveAspectRatio="none" style="width:397px;height:153px;" version="1.1" viewBox="0 0 397 153" width="397px" zoomAndPan="magnify"><defs><filter height="300%" id="f1lccm2j72amxl" width="300%" x="-1" y="-1"><feGaussianBlur result="blurOut" stdDeviation="2.0"/><feColorMatrix in="blurOut" result="blurOut2" type="matrix" values="0 0 0 0 0 0 0 0 0 0 0 0 0 0 0 0 0 0 .4 0"/><feOffset dx="4.0" dy="4.0" in="blurOut2" result="blurOut3"/><feBlend in="SourceGraphic" in2="blurOut3" mode="normal"/></filter></defs><g><!--entity Client--><rect fill="#FEFECE" filter="url(#f1lccm2j72amxl)" height="37.6094" style="stroke: #A80036; stroke-width: 1.5;" width="56" x="9.5" y="12.5"/><rect fill="#FEFECE" height="5" style="stroke: #A80036; stroke-width: 1.5;" width="10" x="4.5" y="17.5"/><rect fill="#FEFECE" height="5" style="stroke: #A80036; stroke-width: 1.5;" width="10" x="4.5" y="40.1094"/><text fill="#000000" font-family="sans-serif" font-size="14" lengthAdjust="spacingAndGlyphs" textLength="36" x="19.5" y="37.0332">Client</text><path d="M6,115 L6,141.3516 A0,0 0 0 0 6,141.3516 L69,141.3516 A0,0 0 0 0 69,141.3516 L69,125 L59,115 L41.5,115 L37.5,50.7206 L33.5,115 L6,115 A0,0 0 0 0 6,115 " fill="#FBFB77" filter="url(#f1lccm2j72amxl)" style="stroke: #A80036; stroke-width: 1.0;"/><path d="M59,115 L59,125 L69,125 L59,115 " fill="#FBFB77" style="stroke: #A80036; stroke-width: 1.0;"/><text fill="#000000" font-family="sans-serif" font-size="13" lengthAdjust="spacingAndGlyphs" textLength="42" x="12" y="133.4951">inspect</text><!--entity Kryo--><ellipse cx="109.5" cy="31.5" fill="#FEFECE" filter="url(#f1lccm2j72amxl)" rx="8" ry="8" style="stroke: #A80036; stroke-width: 2.0;"/><text fill="#000000" font-family="sans-serif" font-size="14" lengthAdjust="spacingAndGlyphs" textLength="29" x="95" y="63.0332">Kryo</text><!--entity Server--><rect fill="#FEFECE" filter="url(#f1lccm2j72amxl)" height="37.6094" style="stroke: #A80036; stroke-width: 1.5;" width="62" x="153.5" y="12.5"/><rect fill="#FEFECE" height="5" style="stroke: #A80036; stroke-width: 1.5;" width="10" x="148.5" y="17.5"/><rect fill="#FEFECE" height="5" style="stroke: #A80036; stroke-width: 1.5;" width="10" x="148.5" y="40.1094"/><text fill="#000000" font-family="sans-serif" font-size="14" lengthAdjust="spacingAndGlyphs" textLength="42" x="163.5" y="37.0332">Server</text><path d="M153,115 L153,141.3516 A0,0 0 0 0 153,141.3516 L216,141.3516 A0,0 0 0 0 216,141.3516 L216,125 L206,115 L188.5,115 L184.5,50.7206 L180.5,115 L153,115 A0,0 0 0 0 153,115 " fill="#FBFB77" filter="url(#f1lccm2j72amxl)" style="stroke: #A80036; stroke-width: 1.0;"/><path d="M206,115 L206,125 L216,125 L206,115 " fill="#FBFB77" style="stroke: #A80036; stroke-width: 1.0;"/><text fill="#000000" font-family="sans-serif" font-size="13" lengthAdjust="spacingAndGlyphs" textLength="42" x="159" y="133.4951">inspect</text><!--entity JDBC--><ellipse cx="259.5" cy="31.5" fill="#FEFECE" filter="url(#f1lccm2j72amxl)" rx="8" ry="8" style="stroke: #A80036; stroke-width: 2.0;"/><text fill="#000000" font-family="sans-serif" font-size="14" lengthAdjust="spacingAndGlyphs" textLength="35" x="242" y="63.0332">JDBC</text><!--entity Database--><path d="M304,18 C304,8 344.5,8 344.5,8 C344.5,8 385,8 385,18 L385,44.6094 C385,54.6094 344.5,54.6094 344.5,54.6094 C344.5,54.6094 304,54.6094 304,44.6094 L304,18 " fill="#FEFECE" filter="url(#f1lccm2j72amxl)" style="stroke: #000000; stroke-width: 1.5;"/><path d="M304,18 C304,28 344.5,28 344.5,28 C344.5,28 385,28 385,18 " fill="none" style="stroke: #000000; stroke-width: 1.5;"/><text fill="#000000" font-family="sans-serif" font-size="14" lengthAdjust="spacingAndGlyphs" textLength="61" x="314" y="46.5332">Database</text><path d="M313,115 L313,141.3516 A0,0 0 0 0 313,141.3516 L376,141.3516 A0,0 0 0 0 376,141.3516 L376,125 L366,115 L348.5,115 L344.5,55.3758 L340.5,115 L313,115 A0,0 0 0 0 313,115 " fill="#FBFB77" filter="url(#f1lccm2j72amxl)" style="stroke: #A80036; stroke-width: 1.0;"/><path d="M366,115 L366,125 L376,125 L366,115 " fill="#FBFB77" style="stroke: #A80036; stroke-width: 1.0;"/><text fill="#000000" font-family="sans-serif" font-size="13" lengthAdjust="spacingAndGlyphs" textLength="42" x="319" y="133.4951">inspect</text><!--link Client to Kryo--><path d="M65.625,31.5 C73.8292,31.5 82.0335,31.5 90.2377,31.5 " fill="none" id="Client-Kryo" style="stroke: #A80036; stroke-width: 1.0;"/><path d="M97.167,23.0427 A9,9 0 0 0 97.1668 39.9572" fill="none" style="stroke: #A80036; stroke-width: 1.5;"/><!--link Kryo to Server--><path d="M128.63,31.5 C136.868,31.5 145.106,31.5 153.343,31.5 " fill="none" id="Kryo-Server" style="stroke: #A80036; stroke-width: 1.0;"/><path d="M121.6602,39.9572 A9,9 0 0 0 121.6602 23.0428" fill="none" style="stroke: #A80036; stroke-width: 1.5;"/><!--link Server to JDBC--><path d="M215.555,31.5 C223.772,31.5 231.989,31.5 240.207,31.5 " fill="none" id="Server-JDBC" style="stroke: #A80036; stroke-width: 1.0;"/><path d="M247.1518,23.0428 A9,9 0 0 0 247.1518 39.9572" fill="none" style="stroke: #A80036; stroke-width: 1.5;"/><!--link JDBC to Database--><path d="M278.969,31.5 C287.308,31.5 295.648,31.5 303.987,31.5 " fill="none" id="JDBC-Database" style="stroke: #A80036; stroke-width: 1.0;"/><path d="M271.8752,39.9572 A9,9 0 0 0 271.8752 23.0428" fill="none" style="stroke: #A80036; stroke-width: 1.5;"/><!--
@startuml debug2
component Client 
note bottom: inspect
interface Kryo

component Server
note bottom: inspect
interface JDBC

database Database
note bottom: inspect

Client -( Kryo
Kryo )- Server
Server -( JDBC
JDBC )- Database
@enduml

PlantUML version 1.2019.06(Sat May 25 03:10:25 AEST 2019)
(GPL source distribution)
Java Runtime: OpenJDK Runtime Environment
JVM: OpenJDK 64-Bit Server VM
Java Version: 11.0.4+11
Operating System: Windows 10
OS Version: 10.0
Default Encoding: Cp1252
Language: en
Country: AU
--></g></svg>