<?xml version="1.0" encoding="UTF-8" standalone="no"?><svg xmlns="http://www.w3.org/2000/svg" xmlns:xlink="http://www.w3.org/1999/xlink" contentScriptType="application/ecmascript" contentStyleType="text/css" height="247px" preserveAspectRatio="none" style="width:103px;height:247px;" version="1.1" viewBox="0 0 103 247" width="103px" zoomAndPan="magnify"><defs><filter height="300%" id="f3rzawqqv8ijm" width="300%" x="-1" y="-1"><feGaussianBlur result="blurOut" stdDeviation="2.0"/><feColorMatrix in="blurOut" result="blurOut2" type="matrix" values="0 0 0 0 0 0 0 0 0 0 0 0 0 0 0 0 0 0 .4 0"/><feOffset dx="4.0" dy="4.0" in="blurOut2" result="blurOut3"/><feBlend in="SourceGraphic" in2="blurOut3" mode="normal"/></filter></defs><g><!--entity Client--><rect fill="#FEFECE" filter="url(#f3rzawqqv8ijm)" height="36.2969" style="stroke: #A80036; stroke-width: 1.5;" width="59" x="19.5" y="8"/><rect fill="#FEFECE" height="5" style="stroke: #A80036; stroke-width: 1.5;" width="10" x="14.5" y="13"/><rect fill="#FEFECE" height="5" style="stroke: #A80036; stroke-width: 1.5;" width="10" x="14.5" y="34.2969"/><text fill="#000000" font-family="sans-serif" font-size="14" lengthAdjust="spacingAndGlyphs" textLength="39" x="29.5" y="30.9951">Client</text><!--entity Server--><rect fill="#FEFECE" filter="url(#f3rzawqqv8ijm)" height="36.2969" style="stroke: #A80036; stroke-width: 1.5;" width="64" x="17" y="104"/><rect fill="#FEFECE" height="5" style="stroke: #A80036; stroke-width: 1.5;" width="10" x="12" y="109"/><rect fill="#FEFECE" height="5" style="stroke: #A80036; stroke-width: 1.5;" width="10" x="12" y="130.2969"/><text fill="#000000" font-family="sans-serif" font-size="14" lengthAdjust="spacingAndGlyphs" textLength="44" x="27" y="126.9951">Server</text><!--entity Database--><rect fill="#FEFECE" filter="url(#f3rzawqqv8ijm)" height="36.2969" style="stroke: #A80036; stroke-width: 1.5;" width="86" x="6" y="200"/><rect fill="#FEFECE" height="5" style="stroke: #A80036; stroke-width: 1.5;" width="10" x="1" y="205"/><rect fill="#FEFECE" height="5" style="stroke: #A80036; stroke-width: 1.5;" width="10" x="1" y="226.2969"/><text fill="#000000" font-family="sans-serif" font-size="14" lengthAdjust="spacingAndGlyphs" textLength="66" x="16" y="222.9951">Database</text><!--link Client to Server--><path d="M49,44.0569 C49,61.1115 49,86.5631 49,103.6977 " fill="none" id="Client-Server" style="stroke: #A80036; stroke-width: 1.0;"/><ellipse cx="49" cy="73.8473" fill="#FFFFFF" rx="10" ry="10" style="stroke: #FFFFFF; stroke-width: 1.0;"/><path d="M41.9289,80.9184 A10,10 0 0 0 56.0711 80.9184" fill="#FFFFFF" style="stroke: #A80036; stroke-width: 1.5;"/><path d="M56.0711,66.7762 A10,10 0 0 0 41.9289 66.7762" fill="#FFFFFF" style="stroke: #A80036; stroke-width: 1.5;"/><ellipse cx="49" cy="73.8473" fill="#FFFFFF" rx="6" ry="6" style="stroke: #A80036; stroke-width: 1.5;"/><!--link Server to Database--><path d="M49,140.0569 C49,157.1115 49,182.5631 49,199.6977 " fill="none" id="Server-Database" style="stroke: #A80036; stroke-width: 1.0;"/><ellipse cx="49" cy="169.8473" fill="#FFFFFF" rx="10" ry="10" style="stroke: #FFFFFF; stroke-width: 1.0;"/><path d="M41.9289,176.9184 A10,10 0 0 0 56.0711 176.9184" fill="#FFFFFF" style="stroke: #A80036; stroke-width: 1.5;"/><path d="M56.0711,162.7762 A10,10 0 0 0 41.9289 162.7762" fill="#FFFFFF" style="stroke: #A80036; stroke-width: 1.5;"/><ellipse cx="49" cy="169.8473" fill="#FFFFFF" rx="6" ry="6" style="stroke: #A80036; stroke-width: 1.5;"/><!--
@startuml debug1
component Client
component Server
component Database

Client -(0)- Server
Server -(0)- Database
@enduml

PlantUML version 1.2019.06(Sat May 25 03:10:25 AEST 2019)
(GPL source distribution)
Java Runtime: OpenJDK Runtime Environment
JVM: OpenJDK 64-Bit Server VM
Java Version: 11.0.4+11
Operating System: Linux
OS Version: 5.2.7-200.fc30.x86_64
Default Encoding: UTF-8
Language: en
Country: AU
--></g></svg>