<?xml version="1.0" encoding="UTF-8" standalone="no"?><svg xmlns="http://www.w3.org/2000/svg" xmlns:xlink="http://www.w3.org/1999/xlink" contentScriptType="application/ecmascript" contentStyleType="text/css" height="247px" preserveAspectRatio="none" style="width:307px;height:247px;" version="1.1" viewBox="0 0 307 247" width="307px" zoomAndPan="magnify"><defs><filter height="300%" id="f9x7s8ezqa6ai" width="300%" x="-1" y="-1"><feGaussianBlur result="blurOut" stdDeviation="2.0"/><feColorMatrix in="blurOut" result="blurOut2" type="matrix" values="0 0 0 0 0 0 0 0 0 0 0 0 0 0 0 0 0 0 .4 0"/><feOffset dx="4.0" dy="4.0" in="blurOut2" result="blurOut3"/><feBlend in="SourceGraphic" in2="blurOut3" mode="normal"/></filter></defs><g><!--entity Client--><rect fill="#FEFECE" filter="url(#f9x7s8ezqa6ai)" height="36.2969" style="stroke: #A80036; stroke-width: 1.5;" width="59" x="224" y="8"/><rect fill="#FEFECE" height="5" style="stroke: #A80036; stroke-width: 1.5;" width="10" x="219" y="13"/><rect fill="#FEFECE" height="5" style="stroke: #A80036; stroke-width: 1.5;" width="10" x="219" y="34.2969"/><text fill="#000000" font-family="sans-serif" font-size="14" lengthAdjust="spacingAndGlyphs" textLength="39" x="234" y="30.9951">Client</text><path d="M122,13.5 L122,38.6328 A0,0 0 0 0 122,38.6328 L189,38.6328 A0,0 0 0 0 189,38.6328 L189,31.5 L223.856,26 L189,23.5 L189,23.5 L179,13.5 L122,13.5 A0,0 0 0 0 122,13.5 " fill="#FBFB77" filter="url(#f9x7s8ezqa6ai)" style="stroke: #A80036; stroke-width: 1.0;"/><path d="M179,13.5 L179,23.5 L189,23.5 L179,13.5 " fill="#FBFB77" style="stroke: #A80036; stroke-width: 1.0;"/><text fill="#000000" font-family="sans-serif" font-size="13" lengthAdjust="spacingAndGlyphs" textLength="46" x="128" y="30.5669">inspect</text><!--entity Server--><rect fill="#FEFECE" filter="url(#f9x7s8ezqa6ai)" height="36.2969" style="stroke: #A80036; stroke-width: 1.5;" width="64" x="221.5" y="104"/><rect fill="#FEFECE" height="5" style="stroke: #A80036; stroke-width: 1.5;" width="10" x="216.5" y="109"/><rect fill="#FEFECE" height="5" style="stroke: #A80036; stroke-width: 1.5;" width="10" x="216.5" y="130.2969"/><text fill="#000000" font-family="sans-serif" font-size="14" lengthAdjust="spacingAndGlyphs" textLength="44" x="231.5" y="126.9951">Server</text><path d="M17,109.5 L17,134.6328 L84,134.6328 L84,119.5 L74,109.5 L17,109.5 " fill="#FBFB77" filter="url(#f9x7s8ezqa6ai)" style="stroke: #A80036; stroke-width: 1.0;"/><path d="M74,109.5 L74,119.5 L84,119.5 L74,109.5 " fill="#FBFB77" style="stroke: #A80036; stroke-width: 1.0;"/><text fill="#000000" font-family="sans-serif" font-size="13" lengthAdjust="spacingAndGlyphs" textLength="46" x="23" y="126.5669">inspect</text><!--entity Database--><rect fill="#FEFECE" filter="url(#f9x7s8ezqa6ai)" height="36.2969" style="stroke: #A80036; stroke-width: 1.5;" width="86" x="210.5" y="200"/><rect fill="#FEFECE" height="5" style="stroke: #A80036; stroke-width: 1.5;" width="10" x="205.5" y="205"/><rect fill="#FEFECE" height="5" style="stroke: #A80036; stroke-width: 1.5;" width="10" x="205.5" y="226.2969"/><text fill="#000000" font-family="sans-serif" font-size="14" lengthAdjust="spacingAndGlyphs" textLength="66" x="220.5" y="222.9951">Database</text><path d="M6,205.5 L6,230.6328 L73,230.6328 L73,215.5 L63,205.5 L6,205.5 " fill="#FBFB77" filter="url(#f9x7s8ezqa6ai)" style="stroke: #A80036; stroke-width: 1.0;"/><path d="M63,205.5 L63,215.5 L73,215.5 L63,205.5 " fill="#FBFB77" style="stroke: #A80036; stroke-width: 1.0;"/><text fill="#000000" font-family="sans-serif" font-size="13" lengthAdjust="spacingAndGlyphs" textLength="46" x="12" y="222.5669">inspect</text><path d="M119,109.5 L119,134.6328 A0,0 0 0 0 119,134.6328 L186,134.6328 A0,0 0 0 0 186,134.6328 L186,127.5 L221.3488,122 L186,119.5 L186,119.5 L176,109.5 L119,109.5 A0,0 0 0 0 119,109.5 " fill="#FBFB77" filter="url(#f9x7s8ezqa6ai)" style="stroke: #A80036; stroke-width: 1.0;"/><path d="M176,109.5 L176,119.5 L186,119.5 L176,109.5 " fill="#FBFB77" style="stroke: #A80036; stroke-width: 1.0;"/><text fill="#000000" font-family="sans-serif" font-size="13" lengthAdjust="spacingAndGlyphs" textLength="46" x="125" y="126.5669">inspect</text><path d="M108,205.5 L108,230.6328 A0,0 0 0 0 108,230.6328 L175,230.6328 A0,0 0 0 0 175,230.6328 L175,223.5 L210.3669,218 L175,215.5 L175,215.5 L165,205.5 L108,205.5 A0,0 0 0 0 108,205.5 " fill="#FBFB77" filter="url(#f9x7s8ezqa6ai)" style="stroke: #A80036; stroke-width: 1.0;"/><path d="M165,205.5 L165,215.5 L175,215.5 L165,205.5 " fill="#FBFB77" style="stroke: #A80036; stroke-width: 1.0;"/><text fill="#000000" font-family="sans-serif" font-size="13" lengthAdjust="spacingAndGlyphs" textLength="46" x="114" y="222.5669">inspect</text><!--link GMN7 to Server--><path d="M63.3099,109.3179 C76.1545,97.5694 97.1192,80.9032 119,74 C147.398,65.0407 157.6332,64.9423 186,74 C204.4927,79.9048 222.2525,92.9303 234.9098,103.9242 " fill="none" id="GMN7-Server" style="stroke: #A80036; stroke-width: 1.0; stroke-dasharray: 7.0,7.0;"/><!--link GMN11 to Database--><path d="M52.3099,205.3179 C65.1545,193.5694 86.1192,176.9032 108,170 C136.398,161.0407 146.3363,161.931 175,170 C195.7585,175.8436 216.4535,188.8724 231.3791,199.8833 " fill="none" id="GMN11-Database" style="stroke: #A80036; stroke-width: 1.0; stroke-dasharray: 7.0,7.0;"/><!--link Client to Server--><path d="M253.5,44.0569 C253.5,61.1115 253.5,86.5631 253.5,103.6977 " fill="none" id="Client-Server" style="stroke: #A80036; stroke-width: 1.0;"/><ellipse cx="253.5" cy="73.8473" fill="#FFFFFF" rx="10" ry="10" style="stroke: #FFFFFF; stroke-width: 1.0;"/><path d="M246.4289,80.9184 A10,10 0 0 0 260.5711 80.9184" fill="#FFFFFF" style="stroke: #A80036; stroke-width: 1.5;"/><path d="M260.5711,66.7762 A10,10 0 0 0 246.4289 66.7762" fill="#FFFFFF" style="stroke: #A80036; stroke-width: 1.5;"/><ellipse cx="253.5" cy="73.8473" fill="#FFFFFF" rx="6" ry="6" style="stroke: #A80036; stroke-width: 1.5;"/><!--link Server to Database--><path d="M253.5,140.0569 C253.5,157.1115 253.5,182.5631 253.5,199.6977 " fill="none" id="Server-Database" style="stroke: #A80036; stroke-width: 1.0;"/><ellipse cx="253.5" cy="169.8473" fill="#FFFFFF" rx="10" ry="10" style="stroke: #FFFFFF; stroke-width: 1.0;"/><path d="M246.4289,176.9184 A10,10 0 0 0 260.5711 176.9184" fill="#FFFFFF" style="stroke: #A80036; stroke-width: 1.5;"/><path d="M260.5711,162.7762 A10,10 0 0 0 246.4289 162.7762" fill="#FFFFFF" style="stroke: #A80036; stroke-width: 1.5;"/><ellipse cx="253.5" cy="169.8473" fill="#FFFFFF" rx="6" ry="6" style="stroke: #A80036; stroke-width: 1.5;"/><!--
@startuml debug3
component Client 
note left: inspect
component Server
note left: inspect
component Database
note left: inspect

Client -(0)- Server
note left: inspect
Server -(0)- Database
note left: inspect
@enduml

PlantUML version 1.2019.06(Sat May 25 03:10:25 AEST 2019)
(GPL source distribution)
Java Runtime: OpenJDK Runtime Environment
JVM: OpenJDK 64-Bit Server VM
Java Version: 11.0.4+11
Operating System: Linux
OS Version: 5.2.7-200.fc30.x86_64
Default Encoding: UTF-8
Language: en
Country: AU
--></g></svg>