<?xml version="1.0" encoding="UTF-8" standalone="no"?><svg xmlns="http://www.w3.org/2000/svg" xmlns:xlink="http://www.w3.org/1999/xlink" contentScriptType="application/ecmascript" contentStyleType="text/css" height="153px" preserveAspectRatio="none" style="width:475px;height:153px;" version="1.1" viewBox="0 0 475 153" width="475px" zoomAndPan="magnify"><defs><filter height="300%" id="f1t85u9v0g6obi" width="300%" x="-1" y="-1"><feGaussianBlur result="blurOut" stdDeviation="2.0"/><feColorMatrix in="blurOut" result="blurOut2" type="matrix" values="0 0 0 0 0 0 0 0 0 0 0 0 0 0 0 0 0 0 .4 0"/><feOffset dx="4.0" dy="4.0" in="blurOut2" result="blurOut3"/><feBlend in="SourceGraphic" in2="blurOut3" mode="normal"/></filter></defs><g><!--entity Client--><rect fill="#FEFECE" filter="url(#f1t85u9v0g6obi)" height="37.6094" style="stroke: #A80036; stroke-width: 1.5;" width="56" x="22.5" y="12.5"/><rect fill="#FEFECE" height="5" style="stroke: #A80036; stroke-width: 1.5;" width="10" x="17.5" y="17.5"/><rect fill="#FEFECE" height="5" style="stroke: #A80036; stroke-width: 1.5;" width="10" x="17.5" y="40.1094"/><text fill="#000000" font-family="sans-serif" font-size="14" lengthAdjust="spacingAndGlyphs" textLength="36" x="32.5" y="37.0332">Client</text><path d="M6,115 L6,141.3516 A0,0 0 0 0 6,141.3516 L69,141.3516 A0,0 0 0 0 69,141.3516 L69,125 L59,115 L43.1729,115 L47.9935,50.7206 L35.1729,115 L6,115 A0,0 0 0 0 6,115 " fill="#FBFB77" filter="url(#f1t85u9v0g6obi)" style="stroke: #A80036; stroke-width: 1.0;"/><path d="M59,115 L59,125 L69,125 L59,115 " fill="#FBFB77" style="stroke: #A80036; stroke-width: 1.0;"/><text fill="#000000" font-family="sans-serif" font-size="13" lengthAdjust="spacingAndGlyphs" textLength="42" x="12" y="133.4951">inspect</text><!--entity Kryo--><ellipse cx="135.5" cy="31.5" fill="#FEFECE" filter="url(#f1t85u9v0g6obi)" rx="8" ry="8" style="stroke: #A80036; stroke-width: 2.0;"/><text fill="#000000" font-family="sans-serif" font-size="14" lengthAdjust="spacingAndGlyphs" textLength="29" x="121" y="63.0332">Kryo</text><path d="M104,115 L104,141.3516 A0,0 0 0 0 104,141.3516 L167,141.3516 A0,0 0 0 0 167,141.3516 L167,125 L157,115 L139.5,115 L135.5,40.557 L131.5,115 L104,115 A0,0 0 0 0 104,115 " fill="#FBFB77" filter="url(#f1t85u9v0g6obi)" style="stroke: #A80036; stroke-width: 1.0;"/><path d="M157,115 L157,125 L167,125 L157,115 " fill="#FBFB77" style="stroke: #A80036; stroke-width: 1.0;"/><text fill="#000000" font-family="sans-serif" font-size="13" lengthAdjust="spacingAndGlyphs" textLength="42" x="110" y="133.4951">inspect</text><!--entity Server--><rect fill="#FEFECE" filter="url(#f1t85u9v0g6obi)" height="37.6094" style="stroke: #A80036; stroke-width: 1.5;" width="62" x="202.5" y="12.5"/><rect fill="#FEFECE" height="5" style="stroke: #A80036; stroke-width: 1.5;" width="10" x="197.5" y="17.5"/><rect fill="#FEFECE" height="5" style="stroke: #A80036; stroke-width: 1.5;" width="10" x="197.5" y="40.1094"/><text fill="#000000" font-family="sans-serif" font-size="14" lengthAdjust="spacingAndGlyphs" textLength="42" x="212.5" y="37.0332">Server</text><path d="M202,115 L202,141.3516 A0,0 0 0 0 202,141.3516 L265,141.3516 A0,0 0 0 0 265,141.3516 L265,125 L255,115 L237.5,115 L233.5,50.7206 L229.5,115 L202,115 A0,0 0 0 0 202,115 " fill="#FBFB77" filter="url(#f1t85u9v0g6obi)" style="stroke: #A80036; stroke-width: 1.0;"/><path d="M255,115 L255,125 L265,125 L255,115 " fill="#FBFB77" style="stroke: #A80036; stroke-width: 1.0;"/><text fill="#000000" font-family="sans-serif" font-size="13" lengthAdjust="spacingAndGlyphs" textLength="42" x="208" y="133.4951">inspect</text><!--entity JDBC--><ellipse cx="331.5" cy="31.5" fill="#FEFECE" filter="url(#f1t85u9v0g6obi)" rx="8" ry="8" style="stroke: #A80036; stroke-width: 2.0;"/><text fill="#000000" font-family="sans-serif" font-size="14" lengthAdjust="spacingAndGlyphs" textLength="35" x="314" y="63.0332">JDBC</text><path d="M300,115 L300,141.3516 A0,0 0 0 0 300,141.3516 L363,141.3516 A0,0 0 0 0 363,141.3516 L363,125 L353,115 L335.5,115 L331.5,40.557 L327.5,115 L300,115 A0,0 0 0 0 300,115 " fill="#FBFB77" filter="url(#f1t85u9v0g6obi)" style="stroke: #A80036; stroke-width: 1.0;"/><path d="M353,115 L353,125 L363,125 L353,115 " fill="#FBFB77" style="stroke: #A80036; stroke-width: 1.0;"/><text fill="#000000" font-family="sans-serif" font-size="13" lengthAdjust="spacingAndGlyphs" textLength="42" x="306" y="133.4951">inspect</text><!--entity Database--><path d="M382,18 C382,8 422.5,8 422.5,8 C422.5,8 463,8 463,18 L463,44.6094 C463,54.6094 422.5,54.6094 422.5,54.6094 C422.5,54.6094 382,54.6094 382,44.6094 L382,18 " fill="#FEFECE" filter="url(#f1t85u9v0g6obi)" style="stroke: #000000; stroke-width: 1.5;"/><path d="M382,18 C382,28 422.5,28 422.5,28 C422.5,28 463,28 463,18 " fill="none" style="stroke: #000000; stroke-width: 1.5;"/><text fill="#000000" font-family="sans-serif" font-size="14" lengthAdjust="spacingAndGlyphs" textLength="61" x="392" y="46.5332">Database</text><path d="M398,115 L398,141.3516 A0,0 0 0 0 398,141.3516 L461,141.3516 A0,0 0 0 0 461,141.3516 L461,125 L451,115 L432.611,115 L424.195,55.3758 L424.611,115 L398,115 A0,0 0 0 0 398,115 " fill="#FBFB77" filter="url(#f1t85u9v0g6obi)" style="stroke: #A80036; stroke-width: 1.0;"/><path d="M451,115 L451,125 L461,125 L451,115 " fill="#FBFB77" style="stroke: #A80036; stroke-width: 1.0;"/><text fill="#000000" font-family="sans-serif" font-size="13" lengthAdjust="spacingAndGlyphs" textLength="42" x="404" y="133.4951">inspect</text><!--link Client to Kryo--><path d="M78.7227,31.5 C91.2062,31.5 103.6898,31.5 116.173,31.5 " fill="none" id="Client-Kryo" style="stroke: #A80036; stroke-width: 1.0;"/><path d="M123.1068,23.0428 A9,9 0 0 0 123.1068 39.9572" fill="none" style="stroke: #A80036; stroke-width: 1.5;"/><!--link Kryo to Server--><path d="M155.036,31.5 C170.783,31.5 186.53,31.5 202.277,31.5 " fill="none" id="Kryo-Server" style="stroke: #A80036; stroke-width: 1.0;"/><path d="M147.7674,39.9568 A9,9 0 0 0 147.765 23.0423" fill="none" style="stroke: #A80036; stroke-width: 1.5;"/><!--link Server to JDBC--><path d="M264.508,31.5 C280.322,31.5 296.135,31.5 311.949,31.5 " fill="none" id="Server-JDBC" style="stroke: #A80036; stroke-width: 1.0;"/><path d="M319.2628,23.0428 A9,9 0 0 0 319.2628 39.9572" fill="none" style="stroke: #A80036; stroke-width: 1.5;"/><!--link JDBC to Database--><path d="M351.042,31.5 C361.341,31.5 371.641,31.5 381.94,31.5 " fill="none" id="JDBC-Database" style="stroke: #A80036; stroke-width: 1.0;"/><path d="M343.8202,39.9572 A9,9 0 0 0 343.8202 23.0428" fill="none" style="stroke: #A80036; stroke-width: 1.5;"/><!--
@startuml debug3
component Client 
note bottom: inspect
interface Kryo
note bottom: inspect
component Server
note bottom: inspect
interface JDBC
note bottom: inspect
database Database
note bottom: inspect

Client -( Kryo
Kryo )- Server
Server -( JDBC
JDBC )- Database
@enduml

PlantUML version 1.2019.06(Sat May 25 03:10:25 AEST 2019)
(GPL source distribution)
Java Runtime: OpenJDK Runtime Environment
JVM: OpenJDK 64-Bit Server VM
Java Version: 11.0.4+11
Operating System: Windows 10
OS Version: 10.0
Default Encoding: Cp1252
Language: en
Country: AU
--></g></svg>