<?xml version="1.0" encoding="UTF-8" standalone="no"?><svg xmlns="http://www.w3.org/2000/svg" xmlns:xlink="http://www.w3.org/1999/xlink" contentScriptType="application/ecmascript" contentStyleType="text/css" height="76px" preserveAspectRatio="none" style="width:393px;height:76px;" version="1.1" viewBox="0 0 393 76" width="393px" zoomAndPan="magnify"><defs><filter height="300%" id="ffxdguiba5jyz" width="300%" x="-1" y="-1"><feGaussianBlur result="blurOut" stdDeviation="2.0"/><feColorMatrix in="blurOut" result="blurOut2" type="matrix" values="0 0 0 0 0 0 0 0 0 0 0 0 0 0 0 0 0 0 .4 0"/><feOffset dx="4.0" dy="4.0" in="blurOut2" result="blurOut3"/><feBlend in="SourceGraphic" in2="blurOut3" mode="normal"/></filter></defs><g><!--entity Client--><rect fill="#FEFECE" filter="url(#ffxdguiba5jyz)" height="37.6094" style="stroke: #A80036; stroke-width: 1.5;" width="56" x="6" y="12.5"/><rect fill="#FEFECE" height="5" style="stroke: #A80036; stroke-width: 1.5;" width="10" x="1" y="17.5"/><rect fill="#FEFECE" height="5" style="stroke: #A80036; stroke-width: 1.5;" width="10" x="1" y="40.1094"/><text fill="#000000" font-family="sans-serif" font-size="14" lengthAdjust="spacingAndGlyphs" textLength="36" x="16" y="37.0332">Client</text><!--entity Kryo--><ellipse cx="106" cy="31.5" fill="#FEFECE" filter="url(#ffxdguiba5jyz)" rx="8" ry="8" style="stroke: #A80036; stroke-width: 2.0;"/><text fill="#000000" font-family="sans-serif" font-size="14" lengthAdjust="spacingAndGlyphs" textLength="29" x="91.5" y="63.0332">Kryo</text><!--entity Server--><rect fill="#FEFECE" filter="url(#ffxdguiba5jyz)" height="37.6094" style="stroke: #A80036; stroke-width: 1.5;" width="62" x="150" y="12.5"/><rect fill="#FEFECE" height="5" style="stroke: #A80036; stroke-width: 1.5;" width="10" x="145" y="17.5"/><rect fill="#FEFECE" height="5" style="stroke: #A80036; stroke-width: 1.5;" width="10" x="145" y="40.1094"/><text fill="#000000" font-family="sans-serif" font-size="14" lengthAdjust="spacingAndGlyphs" textLength="42" x="160" y="37.0332">Server</text><!--entity JDBC--><ellipse cx="256" cy="31.5" fill="#FEFECE" filter="url(#ffxdguiba5jyz)" rx="8" ry="8" style="stroke: #A80036; stroke-width: 2.0;"/><text fill="#000000" font-family="sans-serif" font-size="14" lengthAdjust="spacingAndGlyphs" textLength="35" x="238.5" y="63.0332">JDBC</text><!--entity Database--><path d="M300.5,18 C300.5,8 341,8 341,8 C341,8 381.5,8 381.5,18 L381.5,44.6094 C381.5,54.6094 341,54.6094 341,54.6094 C341,54.6094 300.5,54.6094 300.5,44.6094 L300.5,18 " fill="#FEFECE" filter="url(#ffxdguiba5jyz)" style="stroke: #000000; stroke-width: 1.5;"/><path d="M300.5,18 C300.5,28 341,28 341,28 C341,28 381.5,28 381.5,18 " fill="none" style="stroke: #000000; stroke-width: 1.5;"/><text fill="#000000" font-family="sans-serif" font-size="14" lengthAdjust="spacingAndGlyphs" textLength="61" x="310.5" y="46.5332">Database</text><!--link Client to Kryo--><path d="M62.125,31.5 C70.3292,31.5 78.5335,31.5 86.7377,31.5 " fill="none" id="Client-Kryo" style="stroke: #A80036; stroke-width: 1.0;"/><path d="M93.667,23.0427 A9,9 0 0 0 93.6668 39.9572" fill="none" style="stroke: #A80036; stroke-width: 1.5;"/><!--link Kryo to Server--><path d="M125.13,31.5 C133.368,31.5 141.606,31.5 149.843,31.5 " fill="none" id="Kryo-Server" style="stroke: #A80036; stroke-width: 1.0;"/><path d="M118.1602,39.9572 A9,9 0 0 0 118.1602 23.0428" fill="none" style="stroke: #A80036; stroke-width: 1.5;"/><!--link Server to JDBC--><path d="M212.055,31.5 C220.272,31.5 228.489,31.5 236.707,31.5 " fill="none" id="Server-JDBC" style="stroke: #A80036; stroke-width: 1.0;"/><path d="M243.6518,23.0428 A9,9 0 0 0 243.6518 39.9572" fill="none" style="stroke: #A80036; stroke-width: 1.5;"/><!--link JDBC to Database--><path d="M275.469,31.5 C283.808,31.5 292.148,31.5 300.487,31.5 " fill="none" id="JDBC-Database" style="stroke: #A80036; stroke-width: 1.0;"/><path d="M268.3752,39.9572 A9,9 0 0 0 268.3752 23.0428" fill="none" style="stroke: #A80036; stroke-width: 1.5;"/><!--
@startuml debug1
component Client 

interface Kryo

component Server

interface JDBC

database Database


Client -( Kryo
Kryo )- Server
Server -( JDBC
JDBC )- Database
@enduml

PlantUML version 1.2019.06(Sat May 25 03:10:25 AEST 2019)
(GPL source distribution)
Java Runtime: OpenJDK Runtime Environment
JVM: OpenJDK 64-Bit Server VM
Java Version: 11.0.4+11
Operating System: Windows 10
OS Version: 10.0
Default Encoding: Cp1252
Language: en
Country: AU
--></g></svg>