<?xml version="1.0" encoding="UTF-8" standalone="no"?><svg xmlns="http://www.w3.org/2000/svg" xmlns:xlink="http://www.w3.org/1999/xlink" contentScriptType="application/ecmascript" contentStyleType="text/css" height="247px" preserveAspectRatio="none" style="width:205px;height:247px;" version="1.1" viewBox="0 0 205 247" width="205px" zoomAndPan="magnify"><defs><filter height="300%" id="fgymzjl75zvbt" width="300%" x="-1" y="-1"><feGaussianBlur result="blurOut" stdDeviation="2.0"/><feColorMatrix in="blurOut" result="blurOut2" type="matrix" values="0 0 0 0 0 0 0 0 0 0 0 0 0 0 0 0 0 0 .4 0"/><feOffset dx="4.0" dy="4.0" in="blurOut2" result="blurOut3"/><feBlend in="SourceGraphic" in2="blurOut3" mode="normal"/></filter></defs><g><!--entity Client--><rect fill="#FEFECE" filter="url(#fgymzjl75zvbt)" height="36.2969" style="stroke: #A80036; stroke-width: 1.5;" width="59" x="122" y="8"/><rect fill="#FEFECE" height="5" style="stroke: #A80036; stroke-width: 1.5;" width="10" x="117" y="13"/><rect fill="#FEFECE" height="5" style="stroke: #A80036; stroke-width: 1.5;" width="10" x="117" y="34.2969"/><text fill="#000000" font-family="sans-serif" font-size="14" lengthAdjust="spacingAndGlyphs" textLength="39" x="132" y="30.9951">Client</text><path d="M20,13.5 L20,38.6328 A0,0 0 0 0 20,38.6328 L87,38.6328 A0,0 0 0 0 87,38.6328 L87,31.5 L121.856,26 L87,23.5 L87,23.5 L77,13.5 L20,13.5 A0,0 0 0 0 20,13.5 " fill="#FBFB77" filter="url(#fgymzjl75zvbt)" style="stroke: #A80036; stroke-width: 1.0;"/><path d="M77,13.5 L77,23.5 L87,23.5 L77,13.5 " fill="#FBFB77" style="stroke: #A80036; stroke-width: 1.0;"/><text fill="#000000" font-family="sans-serif" font-size="13" lengthAdjust="spacingAndGlyphs" textLength="46" x="26" y="30.5669">inspect</text><!--entity Server--><rect fill="#FEFECE" filter="url(#fgymzjl75zvbt)" height="36.2969" style="stroke: #A80036; stroke-width: 1.5;" width="64" x="119.5" y="104"/><rect fill="#FEFECE" height="5" style="stroke: #A80036; stroke-width: 1.5;" width="10" x="114.5" y="109"/><rect fill="#FEFECE" height="5" style="stroke: #A80036; stroke-width: 1.5;" width="10" x="114.5" y="130.2969"/><text fill="#000000" font-family="sans-serif" font-size="14" lengthAdjust="spacingAndGlyphs" textLength="44" x="129.5" y="126.9951">Server</text><path d="M17,109.5 L17,134.6328 A0,0 0 0 0 17,134.6328 L84,134.6328 A0,0 0 0 0 84,134.6328 L84,127.5 L119.3488,122 L84,119.5 L84,119.5 L74,109.5 L17,109.5 A0,0 0 0 0 17,109.5 " fill="#FBFB77" filter="url(#fgymzjl75zvbt)" style="stroke: #A80036; stroke-width: 1.0;"/><path d="M74,109.5 L74,119.5 L84,119.5 L74,109.5 " fill="#FBFB77" style="stroke: #A80036; stroke-width: 1.0;"/><text fill="#000000" font-family="sans-serif" font-size="13" lengthAdjust="spacingAndGlyphs" textLength="46" x="23" y="126.5669">inspect</text><!--entity Database--><rect fill="#FEFECE" filter="url(#fgymzjl75zvbt)" height="36.2969" style="stroke: #A80036; stroke-width: 1.5;" width="86" x="108.5" y="200"/><rect fill="#FEFECE" height="5" style="stroke: #A80036; stroke-width: 1.5;" width="10" x="103.5" y="205"/><rect fill="#FEFECE" height="5" style="stroke: #A80036; stroke-width: 1.5;" width="10" x="103.5" y="226.2969"/><text fill="#000000" font-family="sans-serif" font-size="14" lengthAdjust="spacingAndGlyphs" textLength="66" x="118.5" y="222.9951">Database</text><path d="M6,205.5 L6,230.6328 A0,0 0 0 0 6,230.6328 L73,230.6328 A0,0 0 0 0 73,230.6328 L73,223.5 L108.3669,218 L73,215.5 L73,215.5 L63,205.5 L6,205.5 A0,0 0 0 0 6,205.5 " fill="#FBFB77" filter="url(#fgymzjl75zvbt)" style="stroke: #A80036; stroke-width: 1.0;"/><path d="M63,205.5 L63,215.5 L73,215.5 L63,205.5 " fill="#FBFB77" style="stroke: #A80036; stroke-width: 1.0;"/><text fill="#000000" font-family="sans-serif" font-size="13" lengthAdjust="spacingAndGlyphs" textLength="46" x="12" y="222.5669">inspect</text><!--link Client to Server--><path d="M151.5,44.0569 C151.5,61.1115 151.5,86.5631 151.5,103.6977 " fill="none" id="Client-Server" style="stroke: #A80036; stroke-width: 1.0;"/><ellipse cx="151.5" cy="73.8473" fill="#FFFFFF" rx="10" ry="10" style="stroke: #FFFFFF; stroke-width: 1.0;"/><path d="M144.4289,80.9184 A10,10 0 0 0 158.5711 80.9184" fill="#FFFFFF" style="stroke: #A80036; stroke-width: 1.5;"/><path d="M158.5711,66.7762 A10,10 0 0 0 144.4289 66.7762" fill="#FFFFFF" style="stroke: #A80036; stroke-width: 1.5;"/><ellipse cx="151.5" cy="73.8473" fill="#FFFFFF" rx="6" ry="6" style="stroke: #A80036; stroke-width: 1.5;"/><!--link Server to Database--><path d="M151.5,140.0569 C151.5,157.1115 151.5,182.5631 151.5,199.6977 " fill="none" id="Server-Database" style="stroke: #A80036; stroke-width: 1.0;"/><ellipse cx="151.5" cy="169.8473" fill="#FFFFFF" rx="10" ry="10" style="stroke: #FFFFFF; stroke-width: 1.0;"/><path d="M144.4289,176.9184 A10,10 0 0 0 158.5711 176.9184" fill="#FFFFFF" style="stroke: #A80036; stroke-width: 1.5;"/><path d="M158.5711,162.7762 A10,10 0 0 0 144.4289 162.7762" fill="#FFFFFF" style="stroke: #A80036; stroke-width: 1.5;"/><ellipse cx="151.5" cy="169.8473" fill="#FFFFFF" rx="6" ry="6" style="stroke: #A80036; stroke-width: 1.5;"/><!--
@startuml debug2
component Client 
note left: inspect
component Server
note left: inspect
component Database
note left: inspect

Client -(0)- Server
Server -(0)- Database
@enduml

PlantUML version 1.2019.06(Sat May 25 03:10:25 AEST 2019)
(GPL source distribution)
Java Runtime: OpenJDK Runtime Environment
JVM: OpenJDK 64-Bit Server VM
Java Version: 11.0.4+11
Operating System: Linux
OS Version: 5.2.7-200.fc30.x86_64
Default Encoding: UTF-8
Language: en
Country: AU
--></g></svg>