<?xml version="1.0" encoding="UTF-8" standalone="no"?><svg xmlns="http://www.w3.org/2000/svg" xmlns:xlink="http://www.w3.org/1999/xlink" contentScriptType="application/ecmascript" contentStyleType="text/css" height="558px" preserveAspectRatio="none" style="width:532px;height:558px;" version="1.1" viewBox="0 0 532 558" width="532px" zoomAndPan="magnify"><defs><filter height="300%" id="fclb7dfdwyhw" width="300%" x="-1" y="-1"><feGaussianBlur result="blurOut" stdDeviation="2.0"/><feColorMatrix in="blurOut" result="blurOut2" type="matrix" values="0 0 0 0 0 0 0 0 0 0 0 0 0 0 0 0 0 0 .4 0"/><feOffset dx="4.0" dy="4.0" in="blurOut2" result="blurOut3"/><feBlend in="SourceGraphic" in2="blurOut3" mode="normal"/></filter></defs><g><!--class Parent--><rect fill="#FFFFFF" filter="url(#fclb7dfdwyhw)" height="25.0938" id="Parent" style="stroke: #708090; stroke-width: 1.5;" width="75" x="446" y="97"/><text fill="#000000" font-family="sans-serif" font-size="12" lengthAdjust="spacingAndGlyphs" textLength="0" x="485" y="114.457"/><!--class Decorator--><rect fill="#FFFFFF" filter="url(#fclb7dfdwyhw)" height="25.0938" id="Decorator" style="stroke: #708090; stroke-width: 1.5;" width="75" x="446" y="182"/><text fill="#000000" font-family="sans-serif" font-size="12" lengthAdjust="spacingAndGlyphs" textLength="0" x="485" y="199.457"/><!--class Composite--><rect fill="#FFFFFF" filter="url(#fclb7dfdwyhw)" height="25.0938" id="Composite" style="stroke: #708090; stroke-width: 1.5;" width="75" x="446" y="267"/><text fill="#000000" font-family="sans-serif" font-size="12" font-style="italic" lengthAdjust="spacingAndGlyphs" textLength="0" x="485" y="284.457"/><!--class Leaf--><rect fill="#FFFFFF" filter="url(#fclb7dfdwyhw)" height="25.0938" id="Leaf" style="stroke: #708090; stroke-width: 1.5;" width="75" x="226" y="352"/><text fill="#000000" font-family="sans-serif" font-size="12" lengthAdjust="spacingAndGlyphs" textLength="0" x="265" y="369.457"/><!--class Comp--><rect fill="#FFFFFF" filter="url(#fclb7dfdwyhw)" height="25.0938" id="Comp" style="stroke: #708090; stroke-width: 1.5;" width="75" x="446" y="352"/><text fill="#000000" font-family="sans-serif" font-size="12" lengthAdjust="spacingAndGlyphs" textLength="0" x="485" y="369.457"/><!--class Listener--><rect fill="#FFE4B5" filter="url(#fclb7dfdwyhw)" height="25.0938" id="Listener" style="stroke: #CD5C5C; stroke-width: 1.5;" width="75" x="116" y="12"/><text fill="#000000" font-family="sans-serif" font-size="12" font-style="italic" lengthAdjust="spacingAndGlyphs" textLength="0" x="155" y="29.457"/><!--class Observable--><rect fill="#FFE4B5" filter="url(#fclb7dfdwyhw)" height="25.0938" id="Observable" style="stroke: #CD5C5C; stroke-width: 1.5;" width="75" x="6" y="12"/><text fill="#000000" font-family="sans-serif" font-size="12" font-style="italic" lengthAdjust="spacingAndGlyphs" textLength="0" x="45" y="29.457"/><!--class ConcListener--><rect fill="#FFE4B5" filter="url(#fclb7dfdwyhw)" height="25.0938" id="ConcListener" style="stroke: #CD5C5C; stroke-width: 1.5;" width="75" x="116" y="97"/><text fill="#000000" font-family="sans-serif" font-size="12" lengthAdjust="spacingAndGlyphs" textLength="0" x="155" y="114.457"/><!--class ConcObservable--><rect fill="#FFE4B5" filter="url(#fclb7dfdwyhw)" height="25.0938" id="ConcObservable" style="stroke: #CD5C5C; stroke-width: 1.5;" width="75" x="6" y="97"/><text fill="#000000" font-family="sans-serif" font-size="12" lengthAdjust="spacingAndGlyphs" textLength="0" x="45" y="114.457"/><!--class A--><rect fill="#FFFFFF" filter="url(#fclb7dfdwyhw)" height="25.0938" id="A" style="stroke: #708090; stroke-width: 1.5;" width="75" x="336" y="12"/><text fill="#000000" font-family="sans-serif" font-size="12" lengthAdjust="spacingAndGlyphs" textLength="0" x="375" y="29.457"/><!--class B--><rect fill="#FFFFFF" filter="url(#fclb7dfdwyhw)" height="25.0938" id="B" style="stroke: #708090; stroke-width: 1.5;" width="75" x="446" y="12"/><text fill="#000000" font-family="sans-serif" font-size="12" lengthAdjust="spacingAndGlyphs" textLength="0" x="485" y="29.457"/><!--class C--><rect fill="#FFFFFF" filter="url(#fclb7dfdwyhw)" height="25.0938" id="C" style="stroke: #708090; stroke-width: 1.5;" width="75" x="336" y="97"/><text fill="#000000" font-family="sans-serif" font-size="12" lengthAdjust="spacingAndGlyphs" textLength="0" x="375" y="114.457"/><!--class D--><rect fill="#FFFFFF" filter="url(#fclb7dfdwyhw)" height="25.0938" id="D" style="stroke: #708090; stroke-width: 1.5;" width="75" x="226" y="97"/><text fill="#000000" font-family="sans-serif" font-size="12" lengthAdjust="spacingAndGlyphs" textLength="0" x="265" y="114.457"/><!--class E--><rect fill="#FFFFFF" filter="url(#fclb7dfdwyhw)" height="25.0938" id="E" style="stroke: #708090; stroke-width: 1.5;" width="75" x="336" y="267"/><text fill="#000000" font-family="sans-serif" font-size="12" lengthAdjust="spacingAndGlyphs" textLength="0" x="375" y="284.457"/><!--class F--><rect fill="#FFFFFF" filter="url(#fclb7dfdwyhw)" height="25.0938" id="F" style="stroke: #708090; stroke-width: 1.5;" width="75" x="226" y="267"/><text fill="#000000" font-family="sans-serif" font-size="12" lengthAdjust="spacingAndGlyphs" textLength="0" x="265" y="284.457"/><!--class G--><rect fill="#FFFFFF" filter="url(#fclb7dfdwyhw)" height="25.0938" id="G" style="stroke: #708090; stroke-width: 1.5;" width="75" x="116" y="267"/><text fill="#000000" font-family="sans-serif" font-size="12" lengthAdjust="spacingAndGlyphs" textLength="0" x="155" y="284.457"/><!--class I--><rect fill="#FFFFFF" filter="url(#fclb7dfdwyhw)" height="25.0938" id="I" style="stroke: #708090; stroke-width: 1.5;" width="75" x="336" y="352"/><text fill="#000000" font-family="sans-serif" font-size="12" lengthAdjust="spacingAndGlyphs" textLength="0" x="375" y="369.457"/><!--class J--><rect fill="#FFFFFF" filter="url(#fclb7dfdwyhw)" height="25.0938" id="J" style="stroke: #708090; stroke-width: 1.5;" width="75" x="317" y="437"/><text fill="#000000" font-family="sans-serif" font-size="12" lengthAdjust="spacingAndGlyphs" textLength="0" x="356" y="454.457"/><!--class K--><rect fill="#FFFFFF" filter="url(#fclb7dfdwyhw)" height="25.0938" id="K" style="stroke: #708090; stroke-width: 1.5;" width="75" x="271" y="522"/><text fill="#000000" font-family="sans-serif" font-size="12" lengthAdjust="spacingAndGlyphs" textLength="0" x="310" y="539.457"/><!--link Parent to Decorator--><path d="M471.09,141.932 C470.132,155.881 471.201,171.446 474.297,181.79 " fill="none" id="Parent-Decorator" style="stroke: #708090; stroke-width: 1.0;"/><polygon fill="none" points="464.207,140.646,474.348,122.041,478.023,142.909,464.207,140.646" style="stroke: #708090; stroke-width: 1.0;"/><!--link Parent to Decorator--><path d="M495.918,134.847 C497.354,145.604 495.718,170.0478 495.718,170.0478 " fill="none" id="Parent-Decorator-1" style="stroke: #708090; stroke-width: 1.0;"/><polygon fill="#708090" points="493.244,181.79,498.3951,176.7436,495.718,170.0478,490.5669,175.0942,493.244,181.79" style="stroke: #708090; stroke-width: 1.0;"/><polygon fill="#708090" points="493.19,122.041,491.1528,131.6769,494.2317,126.9313,498.9773,130.0102,493.19,122.041" style="stroke: #708090; stroke-width: 1.0;"/><line style="stroke: #708090; stroke-width: 1.0;" x1="494.2317" x2="495.8985" y1="126.9313" y2="134.756"/><text fill="#000000" font-family="sans-serif" font-size="13" lengthAdjust="spacingAndGlyphs" textLength="7" x="488.6273" y="143.6749">1</text><!--link Decorator to Composite--><path d="M483.5,207.041 C483.5,221.208 483.5,245.348 483.5,261.605 " fill="none" id="Decorator-Composite" style="stroke: #708090; stroke-width: 1.0;"/><polygon fill="#708090" points="483.5,266.79,487.5,257.79,483.5,261.79,479.5,257.79,483.5,266.79" style="stroke: #708090; stroke-width: 1.0;"/><text fill="#000000" font-family="sans-serif" font-size="13" lengthAdjust="spacingAndGlyphs" textLength="7" x="475.1219" y="256.1813">1</text><!--link Composite to Leaf--><path d="M434.04,299.16 C391.144,315.343 330.41,338.257 294.184,351.924 " fill="none" id="Composite-Leaf" style="stroke: #708090; stroke-width: 1.0; stroke-dasharray: 7.0,7.0;"/><polygon fill="none" points="431.726,292.551,452.91,292.041,436.668,305.65,431.726,292.551" style="stroke: #708090; stroke-width: 1.0;"/><!--link Composite to Comp--><path d="M471.09,311.932 C470.132,325.881 471.201,341.446 474.297,351.79 " fill="none" id="Composite-Comp" style="stroke: #708090; stroke-width: 1.0; stroke-dasharray: 7.0,7.0;"/><polygon fill="none" points="464.207,310.646,474.348,292.041,478.023,312.909,464.207,310.646" style="stroke: #708090; stroke-width: 1.0;"/><!--link Composite to Comp--><path d="M494.576,297.202 C498.204,313.395 497.76,337.544 493.244,351.79 " fill="none" id="Composite-Comp-1" style="stroke: #708090; stroke-width: 1.0;"/><polygon fill="#708090" points="493.19,292.041,491.6619,301.7706,494.4872,296.8698,499.388,299.6951,493.19,292.041" style="stroke: #708090; stroke-width: 1.0;"/><text fill="#000000" font-family="sans-serif" font-size="13" lengthAdjust="spacingAndGlyphs" textLength="5" x="491.0211" y="313.6749">*</text><!--link Observable to Listener--><path d="M81.3125,24.5 C91.1577,24.5 101.0028,24.5 110.848,24.5 " fill="none" id="Observable-Listener" style="stroke: #CD5C5C; stroke-width: 1.0;"/><polygon fill="#CD5C5C" points="115.996,24.5,106.996,20.5,110.996,24.5,106.996,28.5,115.996,24.5" style="stroke: #CD5C5C; stroke-width: 1.0;"/><text fill="#000000" font-family="sans-serif" font-size="13" lengthAdjust="spacingAndGlyphs" textLength="5" x="103.1202" y="20.4455">*</text><!--link Listener to ConcListener--><path d="M153.5,57.183 C153.5,71.068 153.5,86.508 153.5,96.79 " fill="none" id="Listener-ConcListener" style="stroke: #CD5C5C; stroke-width: 1.0;"/><polygon fill="none" points="146.5,57.041,153.5,37.041,160.5,57.041,146.5,57.041" style="stroke: #CD5C5C; stroke-width: 1.0;"/><!--link Observable to ConcObservable--><path d="M43.5,57.183 C43.5,71.068 43.5,86.508 43.5,96.79 " fill="none" id="Observable-ConcObservable" style="stroke: #CD5C5C; stroke-width: 1.0;"/><polygon fill="none" points="36.5001,57.041,43.5,37.041,50.5001,57.041,36.5001,57.041" style="stroke: #CD5C5C; stroke-width: 1.0;"/><!--link B to Parent--><path d="M483.5,37.041 C483.5,52.809 483.5,80.933 483.5,96.79 " fill="none" id="B-Parent" style="stroke: #708090; stroke-width: 1.0;"/><!--link A to B--><path d="M411.313,24.5 C422.874,24.5 434.435,24.5 445.996,24.5 " fill="none" id="A-B" style="stroke: #708090; stroke-width: 1.0;"/><!--link A to C--><path d="M373.5,37.041 C373.5,52.809 373.5,80.933 373.5,96.79 " fill="none" id="A-C" style="stroke: #708090; stroke-width: 1.0;"/><!--link D to C--><path d="M301.313,109.5 C312.874,109.5 324.435,109.5 335.996,109.5 " fill="none" id="D-C" style="stroke: #708090; stroke-width: 1.0;"/><!--link C to E--><path d="M373.5,122.047 C373.5,152.738 373.5,236.089 373.5,266.872 " fill="none" id="C-E" style="stroke: #708090; stroke-width: 1.0;"/><!--link F to E--><path d="M301.313,279.5 C312.874,279.5 324.435,279.5 335.996,279.5 " fill="none" id="F-E" style="stroke: #708090; stroke-width: 1.0;"/><!--link G to E--><path d="M169.354,266.829 C183.335,256.522 204.739,242.772 226,237 C258.169,228.266 268.831,228.266 301,237 C322.261,242.772 343.665,256.522 357.646,266.829 " fill="none" id="G-E" style="stroke: #708090; stroke-width: 1.0;"/><!--link E to Composite--><path d="M411.313,279.5 C422.874,279.5 434.435,279.5 445.996,279.5 " fill="none" id="E-Composite" style="stroke: #708090; stroke-width: 1.0;"/><!--link Leaf to I--><path d="M314.319,364.5 C321.545,364.5 328.771,364.5 335.996,364.5 " fill="none" id="Leaf-I" style="stroke: #708090; stroke-width: 1.0;"/><polygon fill="#708090" points="301.313,364.5,307.313,368.5,313.313,364.5,307.313,360.5,301.313,364.5" style="stroke: #708090; stroke-width: 1.0;"/><!--link Leaf to J--><path d="M286.131,386.141 C303.643,402.114 327.264,423.659 341.661,436.79 " fill="none" id="Leaf-J" style="stroke: #708090; stroke-width: 1.0;"/><polygon fill="#708090" points="276.153,377.041,277.8905,384.0397,285.019,385.1276,283.2816,378.129,276.153,377.041" style="stroke: #708090; stroke-width: 1.0;"/><!--link Leaf to K--><path d="M270.019,389.837 C279.853,426.552 298.106,494.6961 305.385,521.8719 " fill="none" id="Leaf-K" style="stroke: #708090; stroke-width: 1.0;"/><polygon fill="#708090" points="266.593,377.047,264.282,383.8778,269.6985,388.6382,272.0095,381.8074,266.593,377.047" style="stroke: #708090; stroke-width: 1.0;"/><!--link I to J--><!--link J to K--><!--link Listener to A--><path d="M196.391,24.5 C242.855,24.5 289.318,24.5 335.781,24.5 " fill="none" id="Listener-A" style="stroke: #708090; stroke-width: 1.0;"/><polygon fill="#708090" points="191.313,24.5,200.313,28.5,196.313,24.5,200.313,20.5,191.313,24.5" style="stroke: #708090; stroke-width: 1.0;"/><!--
@startuml programgrp1
hide circle
hide stereotype
hide members
skinparam MinClassWidth 75

skinparam class {
    ArrowColor SlateGray
    BorderColor SlateGray
    BackgroundColor White
    BackgroundColor<<highlight>> Moccasin
    BorderColor<<highlight>> IndianRed
    ArrowColor<<highlight>> IndianRed
}


class " " as Parent 
class " " as Decorator extends Parent
Decorator *-up-> "1" Parent

interface " " as Composite
Decorator -right-> "1" Composite 
class " " as Leaf implements Composite
class " " as Comp implements Composite
Comp -up-> "*" Composite

interface " " as Listener <<highlight>> 
interface " " as Observable <<highlight>>
Observable -right-> "*" Listener #IndianRed 
class " " as ConcListener <<highlight>>
Listener <|- - ConcListener #IndianRed
class " " as ConcObservable <<highlight>>
Observable <|- - ConcObservable #IndianRed

class " " as A
class " " as B
class " " as C
class " " as D
class " " as E
class " " as F
class " " as G
class " " as I
class " " as J
class " " as K

B - - Parent

A - B
A - - C
D -right- C

C - - - E
E -left- - F
E -left- - G

E - -right- Composite

Leaf *-right- I
Leaf *-right- J
Leaf *-right- K
I -[hidden]- J
J -[hidden]- K

Listener <- A
@enduml

PlantUML version 1.2019.06(Sat May 25 03:10:25 AEST 2019)
(GPL source distribution)
Java Runtime: OpenJDK Runtime Environment
JVM: OpenJDK 64-Bit Server VM
Java Version: 11.0.4+11
Operating System: Windows 10
OS Version: 10.0
Default Encoding: Cp1252
Language: en
Country: AU
--></g></svg>