<?xml version="1.0" encoding="UTF-8" standalone="no"?><svg xmlns="http://www.w3.org/2000/svg" xmlns:xlink="http://www.w3.org/1999/xlink" contentScriptType="application/ecmascript" contentStyleType="text/css" height="127px" preserveAspectRatio="none" style="width:206px;height:127px;" version="1.1" viewBox="0 0 206 127" width="206px" zoomAndPan="magnify"><defs><filter height="300%" id="flscvroscjhhi" width="300%" x="-1" y="-1"><feGaussianBlur result="blurOut" stdDeviation="2.0"/><feColorMatrix in="blurOut" result="blurOut2" type="matrix" values="0 0 0 0 0 0 0 0 0 0 0 0 0 0 0 0 0 0 .4 0"/><feOffset dx="4.0" dy="4.0" in="blurOut2" result="blurOut3"/><feBlend in="SourceGraphic" in2="blurOut3" mode="normal"/></filter></defs><g><!--class AbstractClass--><rect fill="#FEFECE" filter="url(#flscvroscjhhi)" height="108.375" id="AbstractClass" style="stroke: #A80036; stroke-width: 1.5;" width="189" x="6" y="8"/><ellipse cx="47.1" cy="24" fill="#A9DCDF" rx="11" ry="11" style="stroke: #A80036; stroke-width: 1.0;"/><path d="M48.8656,25.4219 L44.975,25.4219 L44.5844,26.3906 L44.975,26.3906 Q45.5531,26.3906 45.7875,26.625 Q46.0375,26.8438 46.0375,27.2031 Q46.0375,27.5469 45.7875,27.7813 Q45.5531,28 44.975,28 L42.8188,28 Q42.2406,28 41.9906,27.7813 Q41.7406,27.5469 41.7406,27.1875 Q41.7406,26.8281 42.0063,26.6094 Q42.2563,26.375 42.85,26.3906 L45.3656,20.125 L44.3188,20.125 Q43.7406,20.125 43.4906,19.9063 Q43.2563,19.6875 43.2563,19.3281 Q43.2563,18.9688 43.4906,18.75 Q43.7406,18.5156 44.3188,18.5156 L47.7875,18.5313 L50.975,26.3906 Q51.5375,26.3906 51.7094,26.5156 Q52.0688,26.7813 52.0688,27.2031 Q52.0688,27.5469 51.8188,27.7813 Q51.5844,28 51.0063,28 L48.85,28 Q48.2719,28 48.0219,27.7813 Q47.7875,27.5469 47.7875,27.1875 Q47.7875,26.8438 48.0219,26.625 Q48.2719,26.3906 48.85,26.3906 L49.2406,26.3906 L48.8656,25.4219 Z M48.1938,23.8125 L46.9125,20.6406 L45.6156,23.8125 L48.1938,23.8125 Z "/><text fill="#000000" font-family="sans-serif" font-size="16" font-style="italic" lengthAdjust="spacingAndGlyphs" textLength="99" x="66.9" y="30.5469">AbstractClass</text><line style="stroke: #A80036; stroke-width: 1.5;" x1="7" x2="194" y1="40" y2="40"/><line style="stroke: #A80036; stroke-width: 1.5;" x1="7" x2="194" y1="48" y2="48"/><ellipse cx="17" cy="63.5625" fill="#84BE84" rx="3" ry="3" style="stroke: #038048; stroke-width: 1.0;"/><text fill="#000000" font-family="sans-serif" font-size="16" lengthAdjust="spacingAndGlyphs" textLength="163" x="26" y="68.6094">concreteMethod(): Void</text><ellipse cx="17" cy="83.6875" fill="#84BE84" rx="3" ry="3" style="stroke: #038048; stroke-width: 1.0;"/><text fill="#000000" font-family="sans-serif" font-size="16" font-style="italic" lengthAdjust="spacingAndGlyphs" textLength="161" x="26" y="88.7344">abstractMethod(): Void</text><ellipse cx="17" cy="103.8125" fill="#84BE84" rx="3" ry="3" style="stroke: #038048; stroke-width: 1.0;"/><text fill="#000000" font-family="sans-serif" font-size="16" lengthAdjust="spacingAndGlyphs" text-decoration="underline" textLength="136" x="26" y="108.8594">staticMethod():Void</text><!--
@startuml abstractmethoditplantuml
skinparam defaultFontSize 16

abstract class AbstractClass {
    + concreteMethod(): Void
    + {abstract} abstractMethod(): Void
    + {static} staticMethod():Void
}
@enduml

PlantUML version 1.2019.06(Sat May 25 03:10:25 AEST 2019)
(GPL source distribution)
Java Runtime: OpenJDK Runtime Environment
JVM: OpenJDK 64-Bit Server VM
Java Version: 11.0.3+7
Operating System: Windows 10
OS Version: 10.0
Default Encoding: Cp1252
Language: en
Country: AU
--></g></svg>