<?xml version="1.0" encoding="UTF-8" standalone="no"?><svg xmlns="http://www.w3.org/2000/svg" xmlns:xlink="http://www.w3.org/1999/xlink" contentScriptType="application/ecmascript" contentStyleType="text/css" height="87px" preserveAspectRatio="none" style="width:103px;height:87px;" version="1.1" viewBox="0 0 103 87" width="103px" zoomAndPan="magnify"><defs><filter height="300%" id="fj3pf9jg6w5wl" width="300%" x="-1" y="-1"><feGaussianBlur result="blurOut" stdDeviation="2.0"/><feColorMatrix in="blurOut" result="blurOut2" type="matrix" values="0 0 0 0 0 0 0 0 0 0 0 0 0 0 0 0 0 0 .4 0"/><feOffset dx="4.0" dy="4.0" in="blurOut2" result="blurOut3"/><feBlend in="SourceGraphic" in2="blurOut3" mode="normal"/></filter></defs><g><!--class Vehicle--><rect fill="#FEFECE" filter="url(#fj3pf9jg6w5wl)" height="68.125" id="Vehicle" style="stroke: #A80036; stroke-width: 1.5;" width="86" x="6" y="8"/><ellipse cx="21" cy="24" fill="#A9DCDF" rx="11" ry="11" style="stroke: #A80036; stroke-width: 1.0;"/><path d="M22.7656,25.4219 L18.875,25.4219 L18.4844,26.3906 L18.875,26.3906 Q19.4531,26.3906 19.6875,26.625 Q19.9375,26.8438 19.9375,27.2031 Q19.9375,27.5469 19.6875,27.7813 Q19.4531,28 18.875,28 L16.7188,28 Q16.1406,28 15.8906,27.7813 Q15.6406,27.5469 15.6406,27.1875 Q15.6406,26.8281 15.9063,26.6094 Q16.1563,26.375 16.75,26.3906 L19.2656,20.125 L18.2188,20.125 Q17.6406,20.125 17.3906,19.9063 Q17.1563,19.6875 17.1563,19.3281 Q17.1563,18.9688 17.3906,18.75 Q17.6406,18.5156 18.2188,18.5156 L21.6875,18.5313 L24.875,26.3906 Q25.4375,26.3906 25.6094,26.5156 Q25.9688,26.7813 25.9688,27.2031 Q25.9688,27.5469 25.7188,27.7813 Q25.4844,28 24.9063,28 L22.75,28 Q22.1719,28 21.9219,27.7813 Q21.6875,27.5469 21.6875,27.1875 Q21.6875,26.8438 21.9219,26.625 Q22.1719,26.3906 22.75,26.3906 L23.1406,26.3906 L22.7656,25.4219 Z M22.0938,23.8125 L20.8125,20.6406 L19.5156,23.8125 L22.0938,23.8125 Z "/><text fill="#000000" font-family="sans-serif" font-size="16" font-style="italic" lengthAdjust="spacingAndGlyphs" textLength="54" x="35" y="30.5469">Vehicle</text><line style="stroke: #A80036; stroke-width: 1.5;" x1="7" x2="91" y1="40" y2="40"/><line style="stroke: #A80036; stroke-width: 1.5;" x1="7" x2="91" y1="48" y2="48"/><ellipse cx="17" cy="63.5625" fill="#84BE84" rx="3" ry="3" style="stroke: #038048; stroke-width: 1.0;"/><text fill="#000000" font-family="sans-serif" font-size="16" lengthAdjust="spacingAndGlyphs" textLength="44" x="26" y="68.6094">drive()</text><!--
@startuml abstractitplantuml
skinparam defaultFontSize 16

abstract class Vehicle {
    +drive()
}
@enduml

PlantUML version 1.2019.06(Sat May 25 03:10:25 AEST 2019)
(GPL source distribution)
Java Runtime: OpenJDK Runtime Environment
JVM: OpenJDK 64-Bit Server VM
Java Version: 11.0.3+7
Operating System: Windows 10
OS Version: 10.0
Default Encoding: Cp1252
Language: en
Country: AU
--></g></svg>