<?xml version="1.0" encoding="UTF-8" standalone="no"?><svg xmlns="http://www.w3.org/2000/svg" xmlns:xlink="http://www.w3.org/1999/xlink" contentScriptType="application/ecmascript" contentStyleType="text/css" height="157px" preserveAspectRatio="none" style="width:301px;height:157px;" version="1.1" viewBox="0 0 301 157" width="301px" zoomAndPan="magnify"><defs><filter height="300%" id="f1uih2b09est7y" width="300%" x="-1" y="-1"><feGaussianBlur result="blurOut" stdDeviation="2.0"/><feColorMatrix in="blurOut" result="blurOut2" type="matrix" values="0 0 0 0 0 0 0 0 0 0 0 0 0 0 0 0 0 0 .4 0"/><feOffset dx="4.0" dy="4.0" in="blurOut2" result="blurOut3"/><feBlend in="SourceGraphic" in2="blurOut3" mode="normal"/></filter></defs><g><!--class Car--><rect fill="#FEFECE" filter="url(#f1uih2b09est7y)" height="30.125" id="Car" style="stroke: #A80036; stroke-width: 1.5;" width="32" x="137" y="8"/><text fill="#000000" font-family="sans-serif" font-size="16" lengthAdjust="spacingAndGlyphs" textLength="26" x="140" y="29.6094">Car</text><!--class Driver--><rect fill="#FEFECE" filter="url(#f1uih2b09est7y)" height="30.125" id="Driver" style="stroke: #A80036; stroke-width: 1.5;" width="48" x="6" y="8"/><text fill="#000000" font-family="sans-serif" font-size="16" lengthAdjust="spacingAndGlyphs" textLength="42" x="9" y="29.6094">Driver</text><!--class Wheel--><rect fill="#FEFECE" filter="url(#f1uih2b09est7y)" height="30.125" id="Wheel" style="stroke: #A80036; stroke-width: 1.5;" width="50" x="240" y="8"/><text fill="#000000" font-family="sans-serif" font-size="16" lengthAdjust="spacingAndGlyphs" textLength="44" x="243" y="29.6094">Wheel</text><!--class Person--><rect fill="#FEFECE" filter="url(#f1uih2b09est7y)" height="30.125" id="Person" style="stroke: #A80036; stroke-width: 1.5;" width="56" x="63" y="116"/><text fill="#000000" font-family="sans-serif" font-size="16" lengthAdjust="spacingAndGlyphs" textLength="50" x="66" y="137.6094">Person</text><!--link Driver to Car--><path d="M54.0076,23 C78.477,23 115.751,23 136.889,23 " fill="none" id="Driver-Car" style="stroke: #A80036; stroke-width: 1.0;"/><text fill="#000000" font-family="sans-serif" font-size="13" lengthAdjust="spacingAndGlyphs" textLength="33" x="72.5" y="16.4951">drives</text><polygon fill="#000000" points="108.5,9.6758,114.5,12.6758,108.5,15.6758,108.5,9.6758" style="stroke: #000000; stroke-width: 1.0;"/><!--link Car to Wheel--><path d="M182.183,23 C200.09,23 222.786,23 239.889,23 " fill="none" id="Car-Wheel" style="stroke: #A80036; stroke-width: 1.0;"/><polygon fill="#A80036" points="169.047,23,175.047,27,181.047,23,175.047,19,169.047,23" style="stroke: #A80036; stroke-width: 1.0;"/><text fill="#000000" font-family="sans-serif" font-size="13" lengthAdjust="spacingAndGlyphs" textLength="21" x="187.5" y="16.4951">has</text><polygon fill="#000000" points="211.5,9.6758,217.5,12.6758,211.5,15.6758,211.5,9.6758" style="stroke: #000000; stroke-width: 1.0;"/><text fill="#000000" font-family="sans-serif" font-size="13" lengthAdjust="spacingAndGlyphs" textLength="22" x="209.9897" y="38.2699">3..4</text><!--link Car to Person--><path d="M144.638,38.296 C132.739,58.6395 111.055,95.712 99.2291,115.9309 " fill="none" id="Car-Person" style="stroke: #A80036; stroke-width: 1.0;"/><polygon fill="#000000" points="137.5,79,140.5,73,143.5,79,137.5,79" style="stroke: #000000; stroke-width: 1.0;"/><text fill="#000000" font-family="sans-serif" font-size="13" lengthAdjust="spacingAndGlyphs" textLength="30" x="127" y="95.4951">owns</text><!--link Driver to Person--><path d="M36.7039,38.018 C42.9103,50.735 52.5761,69.9014 62,86 C64.5348,90.3302 67.3145,94.8245 70.1179,99.2138 " fill="none" id="Driver-Person" style="stroke: #A80036; stroke-width: 1.0;"/><polygon fill="none" points="76.0095,95.4325,81.2065,115.975,64.3334,103.157,76.0095,95.4325" style="stroke: #A80036; stroke-width: 1.0;"/><text fill="#000000" font-family="sans-serif" font-size="13" lengthAdjust="spacingAndGlyphs" textLength="21" x="63" y="82.4951">is a</text><polygon fill="#000000" points="69,91.3516,72,97.3516,75,91.3516,69,91.3516" style="stroke: #000000; stroke-width: 1.0;"/><!--
@startuml carexample
hide circle
hide members
skinparam classFontSize 16

class Car

Driver - Car : drives >
Car *- "3..4" Wheel : has >
Car - - Person : < owns
Driver -|> Person: is a >
@enduml

PlantUML version 1.2019.06(Sat May 25 03:10:25 AEST 2019)
(GPL source distribution)
Java Runtime: OpenJDK Runtime Environment
JVM: OpenJDK 64-Bit Server VM
Java Version: 11.0.3+7
Operating System: Windows 10
OS Version: 10.0
Default Encoding: Cp1252
Language: en
Country: AU
--></g></svg>