<?xml version="1.0" encoding="UTF-8" standalone="no"?><svg xmlns="http://www.w3.org/2000/svg" xmlns:xlink="http://www.w3.org/1999/xlink" contentScriptType="application/ecmascript" contentStyleType="text/css" height="147px" preserveAspectRatio="none" style="width:160px;height:147px;" version="1.1" viewBox="0 0 160 147" width="160px" zoomAndPan="magnify"><defs><filter height="300%" id="frt3bweut2cn" width="300%" x="-1" y="-1"><feGaussianBlur result="blurOut" stdDeviation="2.0"/><feColorMatrix in="blurOut" result="blurOut2" type="matrix" values="0 0 0 0 0 0 0 0 0 0 0 0 0 0 0 0 0 0 .4 0"/><feOffset dx="4.0" dy="4.0" in="blurOut2" result="blurOut3"/><feBlend in="SourceGraphic" in2="blurOut3" mode="normal"/></filter></defs><g><!--class Dog--><rect fill="#FEFECE" filter="url(#frt3bweut2cn)" height="128.5" id="Dog" style="stroke: #A80036; stroke-width: 1.5;" width="143" x="6" y="8"/><ellipse cx="58.25" cy="24" fill="#ADD1B2" rx="11" ry="11" style="stroke: #A80036; stroke-width: 1.0;"/><path d="M60.8125,19.9375 Q60.9688,19.7344 61.1406,19.6406 Q61.3125,19.5313 61.5156,19.5313 Q61.875,19.5313 62.0938,19.7813 Q62.3125,20.0156 62.3125,20.5938 L62.3125,21.9531 Q62.3125,22.5313 62.0938,22.7813 Q61.875,23.0156 61.5156,23.0156 Q61.2031,23.0156 61,22.8438 Q60.8125,22.6563 60.7188,22.1719 Q60.6563,21.8438 60.5,21.6563 Q60.1719,21.3125 59.5938,21.1094 Q59.0313,20.8906 58.4531,20.8906 Q57.7344,20.8906 57.125,21.2031 Q56.5313,21.5156 56.0625,22.2188 Q55.6094,22.9219 55.6094,23.8906 L55.6094,24.9219 Q55.6094,26.0781 56.4375,26.8594 Q57.2813,27.625 58.7813,27.625 Q59.6719,27.625 60.2813,27.3906 Q60.6406,27.25 61.0469,26.8281 Q61.2969,26.5781 61.4375,26.5156 Q61.5781,26.4375 61.7656,26.4375 Q62.0781,26.4375 62.3125,26.6875 Q62.5625,26.9219 62.5625,27.25 Q62.5625,27.5781 62.2344,27.9531 Q61.7656,28.5 61.0156,28.8125 Q60,29.2344 58.7813,29.2344 Q57.3594,29.2344 56.2188,28.6406 Q55.2969,28.1719 54.6406,27.1719 Q54,26.1563 54,24.9531 L54,23.875 Q54,22.625 54.5781,21.5469 Q55.1719,20.4531 56.2031,19.875 Q57.2344,19.2813 58.3906,19.2813 Q59.0781,19.2813 59.6875,19.4531 Q60.2969,19.6094 60.8125,19.9375 Z "/><text fill="#000000" font-family="sans-serif" font-size="16" lengthAdjust="spacingAndGlyphs" textLength="30" x="78.75" y="30.5469">Dog</text><line style="stroke: #A80036; stroke-width: 1.5;" x1="7" x2="148" y1="40" y2="40"/><rect fill="none" height="6" style="stroke: #C82930; stroke-width: 1.0;" width="6" x="14" y="52.5625"/><text fill="#000000" font-family="sans-serif" font-size="16" lengthAdjust="spacingAndGlyphs" textLength="96" x="26" y="60.6094">colour: Colour</text><polygon fill="none" points="17,70.6875,21,74.6875,17,78.6875,13,74.6875" style="stroke: #B38D22; stroke-width: 1.0;"/><text fill="#000000" font-family="sans-serif" font-size="16" lengthAdjust="spacingAndGlyphs" textLength="69" x="26" y="80.7344">weight: int</text><line style="stroke: #A80036; stroke-width: 1.5;" x1="7" x2="148" y1="88.25" y2="88.25"/><ellipse cx="17" cy="103.8125" fill="#84BE84" rx="3" ry="3" style="stroke: #038048; stroke-width: 1.0;"/><text fill="#000000" font-family="sans-serif" font-size="16" lengthAdjust="spacingAndGlyphs" textLength="117" x="26" y="108.8594">feed(food: Food)</text><ellipse cx="17" cy="123.9375" fill="#84BE84" rx="3" ry="3" style="stroke: #038048; stroke-width: 1.0;"/><text fill="#000000" font-family="sans-serif" font-size="16" lengthAdjust="spacingAndGlyphs" textLength="32" x="26" y="128.9844">pat()</text><!--
@startuml classplantuml
skinparam defaultFontSize 16
class Dog {
    -colour: Colour
    #weight: int

    +feed(food: Food)
    +pat()
}
@enduml

PlantUML version 1.2019.06(Sat May 25 03:10:25 AEST 2019)
(GPL source distribution)
Java Runtime: OpenJDK Runtime Environment
JVM: OpenJDK 64-Bit Server VM
Java Version: 11.0.3+7
Operating System: Windows 10
OS Version: 10.0
Default Encoding: Cp1252
Language: en
Country: AU
--></g></svg>