<?xml version="1.0" encoding="UTF-8" standalone="no"?><svg xmlns="http://www.w3.org/2000/svg" xmlns:xlink="http://www.w3.org/1999/xlink" contentScriptType="application/ecmascript" contentStyleType="text/css" height="255px" preserveAspectRatio="none" style="width:425px;height:255px;" version="1.1" viewBox="0 0 425 255" width="425px" zoomAndPan="magnify"><defs><filter height="300%" id="fd79bavjzz60l" width="300%" x="-1" y="-1"><feGaussianBlur result="blurOut" stdDeviation="2.0"/><feColorMatrix in="blurOut" result="blurOut2" type="matrix" values="0 0 0 0 0 0 0 0 0 0 0 0 0 0 0 0 0 0 .4 0"/><feOffset dx="4.0" dy="4.0" in="blurOut2" result="blurOut3"/><feBlend in="SourceGraphic" in2="blurOut3" mode="normal"/></filter></defs><g><!--class Messageable--><rect fill="#FEFECE" filter="url(#fd79bavjzz60l)" height="68.125" id="Messageable" style="stroke: #A80036; stroke-width: 1.5;" width="258" x="6" y="28"/><ellipse cx="82.25" cy="44" fill="#B4A7E5" rx="11" ry="11" style="stroke: #A80036; stroke-width: 1.0;"/><path d="M82.8594,40.625 L82.8594,46.8906 L84.4688,46.8906 Q85.0469,46.8906 85.2969,47.125 Q85.5469,47.3438 85.5469,47.7031 Q85.5469,48.0469 85.2969,48.2813 Q85.0469,48.5 84.4688,48.5 L79.6406,48.5 Q79.0625,48.5 78.8125,48.2813 Q78.5625,48.0469 78.5625,47.6875 Q78.5625,47.3438 78.8125,47.125 Q79.0625,46.8906 79.6406,46.8906 L81.25,46.8906 L81.25,40.625 L79.6406,40.625 Q79.0625,40.625 78.8125,40.4063 Q78.5625,40.1875 78.5625,39.8281 Q78.5625,39.4688 78.8125,39.25 Q79.0625,39.0156 79.6406,39.0156 L84.4688,39.0313 Q85.0469,39.0313 85.2969,39.25 Q85.5469,39.4688 85.5469,39.8281 Q85.5469,40.1875 85.2969,40.4063 Q85.0469,40.625 84.4688,40.625 L82.8594,40.625 Z "/><text fill="#000000" font-family="sans-serif" font-size="16" font-style="italic" lengthAdjust="spacingAndGlyphs" textLength="97" x="102.75" y="50.5469">Messageable</text><line style="stroke: #A80036; stroke-width: 1.5;" x1="7" x2="263" y1="60" y2="60"/><line style="stroke: #A80036; stroke-width: 1.5;" x1="7" x2="263" y1="68" y2="68"/><ellipse cx="17" cy="83.5625" fill="#84BE84" rx="3" ry="3" style="stroke: #038048; stroke-width: 1.0;"/><text fill="#000000" font-family="sans-serif" font-size="16" lengthAdjust="spacingAndGlyphs" textLength="232" x="26" y="88.6094">sendMessage(m: Message):Void</text><!--class User--><rect fill="#FEFECE" filter="url(#fd79bavjzz60l)" height="108.375" id="User" style="stroke: #A80036; stroke-width: 1.5;" width="115" x="299.5" y="8"/><ellipse cx="337" cy="24" fill="#ADD1B2" rx="11" ry="11" style="stroke: #A80036; stroke-width: 1.0;"/><path d="M339.5625,19.9375 Q339.7188,19.7344 339.8906,19.6406 Q340.0625,19.5313 340.2656,19.5313 Q340.625,19.5313 340.8438,19.7813 Q341.0625,20.0156 341.0625,20.5938 L341.0625,21.9531 Q341.0625,22.5313 340.8438,22.7813 Q340.625,23.0156 340.2656,23.0156 Q339.9531,23.0156 339.75,22.8438 Q339.5625,22.6563 339.4688,22.1719 Q339.4063,21.8438 339.25,21.6563 Q338.9219,21.3125 338.3438,21.1094 Q337.7813,20.8906 337.2031,20.8906 Q336.4844,20.8906 335.875,21.2031 Q335.2813,21.5156 334.8125,22.2188 Q334.3594,22.9219 334.3594,23.8906 L334.3594,24.9219 Q334.3594,26.0781 335.1875,26.8594 Q336.0313,27.625 337.5313,27.625 Q338.4219,27.625 339.0313,27.3906 Q339.3906,27.25 339.7969,26.8281 Q340.0469,26.5781 340.1875,26.5156 Q340.3281,26.4375 340.5156,26.4375 Q340.8281,26.4375 341.0625,26.6875 Q341.3125,26.9219 341.3125,27.25 Q341.3125,27.5781 340.9844,27.9531 Q340.5156,28.5 339.7656,28.8125 Q338.75,29.2344 337.5313,29.2344 Q336.1094,29.2344 334.9688,28.6406 Q334.0469,28.1719 333.3906,27.1719 Q332.75,26.1563 332.75,24.9531 L332.75,23.875 Q332.75,22.625 333.3281,21.5469 Q333.9219,20.4531 334.9531,19.875 Q335.9844,19.2813 337.1406,19.2813 Q337.8281,19.2813 338.4375,19.4531 Q339.0469,19.6094 339.5625,19.9375 Z "/><text fill="#000000" font-family="sans-serif" font-size="16" lengthAdjust="spacingAndGlyphs" textLength="33" x="356" y="30.5469">User</text><line style="stroke: #A80036; stroke-width: 1.5;" x1="300.5" x2="413.5" y1="40" y2="40"/><ellipse cx="310.5" cy="55.5625" fill="none" rx="3" ry="3" style="stroke: #038048; stroke-width: 1.0;"/><text fill="#000000" font-family="sans-serif" font-size="16" lengthAdjust="spacingAndGlyphs" textLength="88" x="319.5" y="60.6094">name: String</text><line style="stroke: #A80036; stroke-width: 1.5;" x1="300.5" x2="413.5" y1="68.125" y2="68.125"/><ellipse cx="310.5" cy="83.6875" fill="#84BE84" rx="3" ry="3" style="stroke: #038048; stroke-width: 1.0;"/><text fill="#000000" font-family="sans-serif" font-size="16" lengthAdjust="spacingAndGlyphs" textLength="80" x="319.5" y="88.7344">login():Void</text><ellipse cx="310.5" cy="103.8125" fill="#84BE84" rx="3" ry="3" style="stroke: #038048; stroke-width: 1.0;"/><text fill="#000000" font-family="sans-serif" font-size="16" lengthAdjust="spacingAndGlyphs" textLength="89" x="319.5" y="108.8594">logout():Void</text><!--class Moderator--><rect fill="#FEFECE" filter="url(#fd79bavjzz60l)" height="68.125" id="Moderator" style="stroke: #A80036; stroke-width: 1.5;" width="111" x="190.5" y="176"/><ellipse cx="208.65" cy="192" fill="#ADD1B2" rx="11" ry="11" style="stroke: #A80036; stroke-width: 1.0;"/><path d="M211.2125,187.9375 Q211.3688,187.7344 211.5406,187.6406 Q211.7125,187.5313 211.9156,187.5313 Q212.275,187.5313 212.4938,187.7813 Q212.7125,188.0156 212.7125,188.5938 L212.7125,189.9531 Q212.7125,190.5313 212.4938,190.7813 Q212.275,191.0156 211.9156,191.0156 Q211.6031,191.0156 211.4,190.8438 Q211.2125,190.6563 211.1188,190.1719 Q211.0563,189.8438 210.9,189.6563 Q210.5719,189.3125 209.9938,189.1094 Q209.4313,188.8906 208.8531,188.8906 Q208.1344,188.8906 207.525,189.2031 Q206.9313,189.5156 206.4625,190.2188 Q206.0094,190.9219 206.0094,191.8906 L206.0094,192.9219 Q206.0094,194.0781 206.8375,194.8594 Q207.6813,195.625 209.1813,195.625 Q210.0719,195.625 210.6813,195.3906 Q211.0406,195.25 211.4469,194.8281 Q211.6969,194.5781 211.8375,194.5156 Q211.9781,194.4375 212.1656,194.4375 Q212.4781,194.4375 212.7125,194.6875 Q212.9625,194.9219 212.9625,195.25 Q212.9625,195.5781 212.6344,195.9531 Q212.1656,196.5 211.4156,196.8125 Q210.4,197.2344 209.1813,197.2344 Q207.7594,197.2344 206.6188,196.6406 Q205.6969,196.1719 205.0406,195.1719 Q204.4,194.1563 204.4,192.9531 L204.4,191.875 Q204.4,190.625 204.9781,189.5469 Q205.5719,188.4531 206.6031,187.875 Q207.6344,187.2813 208.7906,187.2813 Q209.4781,187.2813 210.0875,187.4531 Q210.6969,187.6094 211.2125,187.9375 Z "/><text fill="#000000" font-family="sans-serif" font-size="16" lengthAdjust="spacingAndGlyphs" textLength="72" x="223.35" y="198.5469">Moderator</text><line style="stroke: #A80036; stroke-width: 1.5;" x1="191.5" x2="300.5" y1="208" y2="208"/><line style="stroke: #A80036; stroke-width: 1.5;" x1="191.5" x2="300.5" y1="216" y2="216"/><ellipse cx="201.5" cy="231.5625" fill="#84BE84" rx="3" ry="3" style="stroke: #038048; stroke-width: 1.0;"/><text fill="#000000" font-family="sans-serif" font-size="16" lengthAdjust="spacingAndGlyphs" textLength="85" x="210.5" y="236.6094">ban(u: User)</text><!--link User to Moderator--><path d="M304.31,132.304 C292.828,147.4061 281.186,162.7197 271.355,175.6505 " fill="none" id="User-Moderator" style="stroke: #A80036; stroke-width: 1.0;"/><polygon fill="none" points="298.936,127.807,316.612,116.122,310.08,136.28,298.936,127.807" style="stroke: #A80036; stroke-width: 1.0;"/><!--link Messageable to Moderator--><path d="M172.355,112.133 C188.269,133.066 206.42,156.9399 220.72,175.7491 " fill="none" id="Messageable-Moderator" style="stroke: #A80036; stroke-width: 1.0; stroke-dasharray: 7.0,7.0;"/><polygon fill="none" points="166.72,116.287,160.188,96.13,177.864,107.814,166.72,116.287" style="stroke: #A80036; stroke-width: 1.0;"/><!--
@startuml inheritanceplantuml
skinparam defaultFontSize 16

interface Messageable {
    + sendMessage(m: Message):Void
}

class User {
    +name: String

    +login():Void
    +logout():Void
}

class Moderator extends User implements Messageable {
    +ban(u: User)
}

@enduml

PlantUML version 1.2019.06(Sat May 25 03:10:25 AEST 2019)
(GPL source distribution)
Java Runtime: OpenJDK Runtime Environment
JVM: OpenJDK 64-Bit Server VM
Java Version: 11.0.3+7
Operating System: Windows 10
OS Version: 10.0
Default Encoding: Cp1252
Language: en
Country: AU
--></g></svg>