<?xml version="1.0" encoding="UTF-8" standalone="no"?><svg xmlns="http://www.w3.org/2000/svg" xmlns:xlink="http://www.w3.org/1999/xlink" contentScriptType="application/ecmascript" contentStyleType="text/css" height="87px" preserveAspectRatio="none" style="width:119px;height:87px;" version="1.1" viewBox="0 0 119 87" width="119px" zoomAndPan="magnify"><defs><filter height="300%" id="fx65vow26oabv" width="300%" x="-1" y="-1"><feGaussianBlur result="blurOut" stdDeviation="2.0"/><feColorMatrix in="blurOut" result="blurOut2" type="matrix" values="0 0 0 0 0 0 0 0 0 0 0 0 0 0 0 0 0 0 .4 0"/><feOffset dx="4.0" dy="4.0" in="blurOut2" result="blurOut3"/><feBlend in="SourceGraphic" in2="blurOut3" mode="normal"/></filter></defs><g><!--class Runnable--><rect fill="#FEFECE" filter="url(#fx65vow26oabv)" height="68.125" id="Runnable" style="stroke: #A80036; stroke-width: 1.5;" width="102" x="6" y="8"/><ellipse cx="21" cy="24" fill="#B4A7E5" rx="11" ry="11" style="stroke: #A80036; stroke-width: 1.0;"/><path d="M21.6094,20.625 L21.6094,26.8906 L23.2188,26.8906 Q23.7969,26.8906 24.0469,27.125 Q24.2969,27.3438 24.2969,27.7031 Q24.2969,28.0469 24.0469,28.2813 Q23.7969,28.5 23.2188,28.5 L18.3906,28.5 Q17.8125,28.5 17.5625,28.2813 Q17.3125,28.0469 17.3125,27.6875 Q17.3125,27.3438 17.5625,27.125 Q17.8125,26.8906 18.3906,26.8906 L20,26.8906 L20,20.625 L18.3906,20.625 Q17.8125,20.625 17.5625,20.4063 Q17.3125,20.1875 17.3125,19.8281 Q17.3125,19.4688 17.5625,19.25 Q17.8125,19.0156 18.3906,19.0156 L23.2188,19.0313 Q23.7969,19.0313 24.0469,19.25 Q24.2969,19.4688 24.2969,19.8281 Q24.2969,20.1875 24.0469,20.4063 Q23.7969,20.625 23.2188,20.625 L21.6094,20.625 Z "/><text fill="#000000" font-family="sans-serif" font-size="16" font-style="italic" lengthAdjust="spacingAndGlyphs" textLength="70" x="35" y="30.5469">Runnable</text><line style="stroke: #A80036; stroke-width: 1.5;" x1="7" x2="107" y1="40" y2="40"/><line style="stroke: #A80036; stroke-width: 1.5;" x1="7" x2="107" y1="48" y2="48"/><ellipse cx="17" cy="63.5625" fill="#84BE84" rx="3" ry="3" style="stroke: #038048; stroke-width: 1.0;"/><text fill="#000000" font-family="sans-serif" font-size="16" lengthAdjust="spacingAndGlyphs" textLength="31" x="26" y="68.6094">run()</text><!--
@startuml interfaceitplantuml
skinparam defaultFontSize 16

interface Runnable {
    +run()
}
@enduml

PlantUML version 1.2019.06(Sat May 25 03:10:25 AEST 2019)
(GPL source distribution)
Java Runtime: OpenJDK Runtime Environment
JVM: OpenJDK 64-Bit Server VM
Java Version: 11.0.3+7
Operating System: Windows 10
OS Version: 10.0
Default Encoding: Cp1252
Language: en
Country: AU
--></g></svg>