<?xml version="1.0" encoding="UTF-8" standalone="no"?><svg xmlns="http://www.w3.org/2000/svg" xmlns:xlink="http://www.w3.org/1999/xlink" contentScriptType="application/ecmascript" contentStyleType="text/css" height="301px" preserveAspectRatio="none" style="width:176px;height:301px;" version="1.1" viewBox="0 0 176 301" width="176px" zoomAndPan="magnify"><defs><filter height="300%" id="f1vksjihjw0bwy" width="300%" x="-1" y="-1"><feGaussianBlur result="blurOut" stdDeviation="2.0"/><feColorMatrix in="blurOut" result="blurOut2" type="matrix" values="0 0 0 0 0 0 0 0 0 0 0 0 0 0 0 0 0 0 .4 0"/><feOffset dx="4.0" dy="4.0" in="blurOut2" result="blurOut3"/><feBlend in="SourceGraphic" in2="blurOut3" mode="normal"/></filter></defs><g><rect fill="#FFFFFF" filter="url(#f1vksjihjw0bwy)" height="183.1094" style="stroke: #A80036; stroke-width: 1.0;" width="10" x="19" y="97.6094"/><rect fill="#FFFFFF" filter="url(#f1vksjihjw0bwy)" height="30.3516" style="stroke: #A80036; stroke-width: 1.0;" width="10" x="134" y="119.9609"/><rect fill="#FFFFFF" filter="url(#f1vksjihjw0bwy)" height="30.3516" style="stroke: #A80036; stroke-width: 1.0;" width="10" x="134" y="180.6641"/><rect fill="#FFFFFF" filter="url(#f1vksjihjw0bwy)" height="30.3516" style="stroke: #A80036; stroke-width: 1.0;" width="10" x="134" y="241.3672"/><line style="stroke: #A80036; stroke-width: 1.0; stroke-dasharray: 5.0,5.0;" x1="24" x2="24" y1="87.6094" y2="289.7188"/><line style="stroke: #A80036; stroke-width: 1.0; stroke-dasharray: 5.0,5.0;" x1="139" x2="139" y1="87.6094" y2="289.7188"/><text fill="#000000" font-family="sans-serif" font-size="14" lengthAdjust="spacingAndGlyphs" textLength="26" x="8" y="84.5332">Dad</text><ellipse cx="24" cy="13" fill="#FEFECE" filter="url(#f1vksjihjw0bwy)" rx="8" ry="8" style="stroke: #A80036; stroke-width: 2.0;"/><path d="M24,21 L24,48 M11,29 L37,29 M24,48 L11,63 M24,48 L37,63 " fill="none" filter="url(#f1vksjihjw0bwy)" style="stroke: #A80036; stroke-width: 2.0;"/><text fill="#000000" font-family="sans-serif" font-size="14" lengthAdjust="spacingAndGlyphs" textLength="56" x="108" y="84.5332">Rebecca</text><ellipse cx="139" cy="13" fill="#FEFECE" filter="url(#f1vksjihjw0bwy)" rx="8" ry="8" style="stroke: #A80036; stroke-width: 2.0;"/><path d="M139,21 L139,48 M126,29 L152,29 M139,48 L126,63 M139,48 L152,63 " fill="none" filter="url(#f1vksjihjw0bwy)" style="stroke: #A80036; stroke-width: 2.0;"/><rect fill="#FFFFFF" filter="url(#f1vksjihjw0bwy)" height="183.1094" style="stroke: #A80036; stroke-width: 1.0;" width="10" x="19" y="97.6094"/><rect fill="#FFFFFF" filter="url(#f1vksjihjw0bwy)" height="30.3516" style="stroke: #A80036; stroke-width: 1.0;" width="10" x="134" y="119.9609"/><rect fill="#FFFFFF" filter="url(#f1vksjihjw0bwy)" height="30.3516" style="stroke: #A80036; stroke-width: 1.0;" width="10" x="134" y="180.6641"/><rect fill="#FFFFFF" filter="url(#f1vksjihjw0bwy)" height="30.3516" style="stroke: #A80036; stroke-width: 1.0;" width="10" x="134" y="241.3672"/><polygon fill="#A80036" points="122,115.9609,132,119.9609,122,123.9609,126,119.9609" style="stroke: #A80036; stroke-width: 1.0;"/><line style="stroke: #A80036; stroke-width: 1.0;" x1="29" x2="128" y1="119.9609" y2="119.9609"/><text fill="#000000" font-family="sans-serif" font-size="13" lengthAdjust="spacingAndGlyphs" textLength="78" x="36" y="115.1045">Knock Knock</text><polygon fill="#A80036" points="40,146.3125,30,150.3125,40,154.3125,36,150.3125" style="stroke: #A80036; stroke-width: 1.0;"/><line style="stroke: #A80036; stroke-width: 1.0; stroke-dasharray: 2.0,2.0;" x1="34" x2="138" y1="150.3125" y2="150.3125"/><text fill="#000000" font-family="sans-serif" font-size="13" lengthAdjust="spacingAndGlyphs" textLength="76" x="46" y="145.4561">Who's there?</text><polygon fill="#A80036" points="122,176.6641,132,180.6641,122,184.6641,126,180.6641" style="stroke: #A80036; stroke-width: 1.0;"/><line style="stroke: #A80036; stroke-width: 1.0;" x1="29" x2="128" y1="180.6641" y2="180.6641"/><text fill="#000000" font-family="sans-serif" font-size="13" lengthAdjust="spacingAndGlyphs" textLength="47" x="36" y="175.8076">Owls go</text><polygon fill="#A80036" points="40,207.0156,30,211.0156,40,215.0156,36,211.0156" style="stroke: #A80036; stroke-width: 1.0;"/><line style="stroke: #A80036; stroke-width: 1.0; stroke-dasharray: 2.0,2.0;" x1="34" x2="138" y1="211.0156" y2="211.0156"/><text fill="#000000" font-family="sans-serif" font-size="13" lengthAdjust="spacingAndGlyphs" textLength="81" x="46" y="206.1592">Owls go who?</text><polygon fill="#A80036" points="122,237.3672,132,241.3672,122,245.3672,126,241.3672" style="stroke: #A80036; stroke-width: 1.0;"/><line style="stroke: #A80036; stroke-width: 1.0;" x1="29" x2="128" y1="241.3672" y2="241.3672"/><text fill="#000000" font-family="sans-serif" font-size="13" lengthAdjust="spacingAndGlyphs" textLength="74" x="36" y="236.5107">Yes, they do</text><polygon fill="#A80036" points="40,267.7188,30,271.7188,40,275.7188,36,271.7188" style="stroke: #A80036; stroke-width: 1.0;"/><line style="stroke: #A80036; stroke-width: 1.0; stroke-dasharray: 2.0,2.0;" x1="34" x2="138" y1="271.7188" y2="271.7188"/><text fill="#000000" font-family="sans-serif" font-size="13" lengthAdjust="spacingAndGlyphs" textLength="32" x="46" y="266.8623">groan</text><!--
@startuml knockknock
hide footbox

actor Dad
actor Rebecca

activate Dad
Dad -> Rebecca : Knock Knock
activate Rebecca
return Who's there?

Dad -> Rebecca : Owls go
activate Rebecca
return Owls go who?

Dad -> Rebecca : Yes, they do
activate Rebecca
return groan
@enduml

PlantUML version 1.2019.06(Sat May 25 03:10:25 AEST 2019)
(GPL source distribution)
Java Runtime: OpenJDK Runtime Environment
JVM: OpenJDK 64-Bit Server VM
Java Version: 11.0.3+7
Operating System: Windows 10
OS Version: 10.0
Default Encoding: Cp1252
Language: en
Country: AU
--></g></svg>