<?xml version="1.0" encoding="UTF-8" standalone="no"?><svg xmlns="http://www.w3.org/2000/svg" xmlns:xlink="http://www.w3.org/1999/xlink" contentScriptType="application/ecmascript" contentStyleType="text/css" height="499px" preserveAspectRatio="none" style="width:361px;height:499px;" version="1.1" viewBox="0 0 361 499" width="361px" zoomAndPan="magnify"><defs><filter height="300%" id="fjay8j47ipqp8" width="300%" x="-1" y="-1"><feGaussianBlur result="blurOut" stdDeviation="2.0"/><feColorMatrix in="blurOut" result="blurOut2" type="matrix" values="0 0 0 0 0 0 0 0 0 0 0 0 0 0 0 0 0 0 .4 0"/><feOffset dx="4.0" dy="4.0" in="blurOut2" result="blurOut3"/><feBlend in="SourceGraphic" in2="blurOut3" mode="normal"/></filter></defs><g><rect fill="#FFFFFF" filter="url(#fjay8j47ipqp8)" height="99.3125" style="stroke: #A80036; stroke-width: 1.0;" width="10" x="34.5" y="97.6094"/><rect fill="#FFFFFF" filter="url(#fjay8j47ipqp8)" height="30.3516" style="stroke: #A80036; stroke-width: 1.0;" width="10" x="34.5" y="378.6797"/><rect fill="#FFFFFF" filter="url(#fjay8j47ipqp8)" height="76.9609" style="stroke: #A80036; stroke-width: 1.0;" width="10" x="146.5" y="119.9609"/><rect fill="#FFFFFF" filter="url(#fjay8j47ipqp8)" height="130.4063" style="stroke: #A80036; stroke-width: 1.0;" width="10" x="146.5" y="348.3281"/><rect fill="#FFFFFF" filter="url(#fjay8j47ipqp8)" height="30.3516" style="stroke: #A80036; stroke-width: 1.0;" width="10" x="261" y="287.625"/><rect fill="#FFFFFF" filter="url(#fjay8j47ipqp8)" height="121.0547" style="stroke: #A80036; stroke-width: 1.0;" width="10" x="329" y="227.2734"/><rect fill="#FEFECE" filter="url(#fjay8j47ipqp8)" height="31.6094" style="stroke: #A80036; stroke-width: 1.5;" width="64" x="232" y="127.9609"/><text fill="#000000" font-family="sans-serif" font-size="14" lengthAdjust="spacingAndGlyphs" textLength="50" x="239" y="149.4941">t: Ticket</text><line style="stroke: #A80036; stroke-width: 1.0; stroke-dasharray: 5.0,5.0;" x1="39" x2="39" y1="87.6094" y2="487.7344"/><line style="stroke: #A80036; stroke-width: 1.0; stroke-dasharray: 5.0,5.0;" x1="151" x2="151" y1="87.6094" y2="487.7344"/><line style="stroke: #A80036; stroke-width: 1.0; stroke-dasharray: 5.0,5.0;" x1="266" x2="266" y1="161.2656" y2="487.7344"/><line style="stroke: #A80036; stroke-width: 1.0; stroke-dasharray: 5.0,5.0;" x1="333.5" x2="333.5" y1="87.6094" y2="487.7344"/><text fill="#000000" font-family="sans-serif" font-size="14" lengthAdjust="spacingAndGlyphs" textLength="57" x="8" y="84.5332">Algernon</text><ellipse cx="39.5" cy="13" fill="#FEFECE" filter="url(#fjay8j47ipqp8)" rx="8" ry="8" style="stroke: #A80036; stroke-width: 2.0;"/><path d="M39.5,21 L39.5,48 M26.5,29 L52.5,29 M39.5,48 L26.5,63 M39.5,48 L52.5,63 " fill="none" filter="url(#fjay8j47ipqp8)" style="stroke: #A80036; stroke-width: 2.0;"/><rect fill="#FEFECE" filter="url(#fjay8j47ipqp8)" height="31.6094" style="stroke: #A80036; stroke-width: 1.5;" width="137" x="81" y="51"/><text fill="#000000" font-family="sans-serif" font-size="14" lengthAdjust="spacingAndGlyphs" textLength="123" x="88" y="72.5332">helpdesk: Helpdesk</text><text fill="#000000" font-family="sans-serif" font-size="14" lengthAdjust="spacingAndGlyphs" textLength="37" x="312.5" y="84.5332">Bertie</text><ellipse cx="334" cy="13" fill="#FEFECE" filter="url(#fjay8j47ipqp8)" rx="8" ry="8" style="stroke: #A80036; stroke-width: 2.0;"/><path d="M334,21 L334,48 M321,29 L347,29 M334,48 L321,63 M334,48 L347,63 " fill="none" filter="url(#fjay8j47ipqp8)" style="stroke: #A80036; stroke-width: 2.0;"/><rect fill="#FFFFFF" filter="url(#fjay8j47ipqp8)" height="99.3125" style="stroke: #A80036; stroke-width: 1.0;" width="10" x="34.5" y="97.6094"/><rect fill="#FFFFFF" filter="url(#fjay8j47ipqp8)" height="30.3516" style="stroke: #A80036; stroke-width: 1.0;" width="10" x="34.5" y="378.6797"/><rect fill="#FFFFFF" filter="url(#fjay8j47ipqp8)" height="76.9609" style="stroke: #A80036; stroke-width: 1.0;" width="10" x="146.5" y="119.9609"/><rect fill="#FFFFFF" filter="url(#fjay8j47ipqp8)" height="130.4063" style="stroke: #A80036; stroke-width: 1.0;" width="10" x="146.5" y="348.3281"/><rect fill="#FFFFFF" filter="url(#fjay8j47ipqp8)" height="30.3516" style="stroke: #A80036; stroke-width: 1.0;" width="10" x="261" y="287.625"/><rect fill="#FFFFFF" filter="url(#fjay8j47ipqp8)" height="121.0547" style="stroke: #A80036; stroke-width: 1.0;" width="10" x="329" y="227.2734"/><polygon fill="#A80036" points="134.5,115.9609,144.5,119.9609,134.5,123.9609,138.5,119.9609" style="stroke: #A80036; stroke-width: 1.0;"/><line style="stroke: #A80036; stroke-width: 1.0;" x1="44.5" x2="140.5" y1="119.9609" y2="119.9609"/><text fill="#000000" font-family="sans-serif" font-size="13" lengthAdjust="spacingAndGlyphs" textLength="52" x="51.5" y="115.1045">complain</text><polygon fill="#A80036" points="220,146.3125,230,150.3125,220,154.3125,224,150.3125" style="stroke: #A80036; stroke-width: 1.0;"/><line style="stroke: #A80036; stroke-width: 1.0;" x1="156.5" x2="226" y1="150.3125" y2="150.3125"/><text fill="#000000" font-family="sans-serif" font-size="13" lengthAdjust="spacingAndGlyphs" textLength="23" x="163.5" y="145.4561">new</text><rect fill="#FEFECE" filter="url(#fjay8j47ipqp8)" height="31.6094" style="stroke: #A80036; stroke-width: 1.5;" width="64" x="232" y="127.9609"/><text fill="#000000" font-family="sans-serif" font-size="14" lengthAdjust="spacingAndGlyphs" textLength="50" x="239" y="149.4941">t: Ticket</text><polygon fill="#A80036" points="50.5,192.9219,40.5,196.9219,50.5,200.9219,46.5,196.9219" style="stroke: #A80036; stroke-width: 1.0;"/><line style="stroke: #A80036; stroke-width: 1.0; stroke-dasharray: 2.0,2.0;" x1="44.5" x2="150.5" y1="196.9219" y2="196.9219"/><text fill="#000000" font-family="sans-serif" font-size="13" lengthAdjust="spacingAndGlyphs" textLength="75" x="56.5" y="192.0654">ticketnumber</text><polygon fill="#A80036" points="317,223.2734,327,227.2734,317,231.2734,321,227.2734" style="stroke: #A80036; stroke-width: 1.0;"/><line style="stroke: #A80036; stroke-width: 1.0;" x1="266" x2="323" y1="227.2734" y2="227.2734"/><text fill="#000000" font-family="sans-serif" font-size="13" lengthAdjust="spacingAndGlyphs" textLength="31" x="273" y="222.417">notify</text><polygon fill="#A80036" points="282,283.625,272,287.625,282,291.625,278,287.625" style="stroke: #A80036; stroke-width: 1.0;"/><line style="stroke: #A80036; stroke-width: 1.0;" x1="276" x2="328" y1="287.625" y2="287.625"/><text fill="#000000" font-family="sans-serif" font-size="13" lengthAdjust="spacingAndGlyphs" textLength="39" x="288" y="282.7686">update</text><polygon fill="#A80036" points="317,313.9766,327,317.9766,317,321.9766,321,317.9766" style="stroke: #A80036; stroke-width: 1.0;"/><line style="stroke: #A80036; stroke-width: 1.0; stroke-dasharray: 2.0,2.0;" x1="266" x2="323" y1="317.9766" y2="317.9766"/><text fill="#000000" font-family="sans-serif" font-size="13" lengthAdjust="spacingAndGlyphs" textLength="14" x="273" y="313.1201">ok</text><polygon fill="#A80036" points="167.5,344.3281,157.5,348.3281,167.5,352.3281,163.5,348.3281" style="stroke: #A80036; stroke-width: 1.0;"/><line style="stroke: #A80036; stroke-width: 1.0;" x1="161.5" x2="333" y1="348.3281" y2="348.3281"/><text fill="#000000" font-family="sans-serif" font-size="13" lengthAdjust="spacingAndGlyphs" textLength="59" x="173.5" y="343.4717">resolved(t)</text><polygon fill="#A80036" points="55.5,374.6797,45.5,378.6797,55.5,382.6797,51.5,378.6797" style="stroke: #A80036; stroke-width: 1.0;"/><line style="stroke: #A80036; stroke-width: 1.0;" x1="49.5" x2="145.5" y1="378.6797" y2="378.6797"/><text fill="#000000" font-family="sans-serif" font-size="13" lengthAdjust="spacingAndGlyphs" textLength="59" x="61.5" y="373.8232">resolved(t)</text><polygon fill="#A80036" points="134.5,405.0313,144.5,409.0313,134.5,413.0313,138.5,409.0313" style="stroke: #A80036; stroke-width: 1.0;"/><line style="stroke: #A80036; stroke-width: 1.0; stroke-dasharray: 2.0,2.0;" x1="39.5" x2="140.5" y1="409.0313" y2="409.0313"/><text fill="#000000" font-family="sans-serif" font-size="13" lengthAdjust="spacingAndGlyphs" textLength="14" x="46.5" y="404.1748">ok</text><polygon fill="#A80036" points="254,435.3828,264,439.3828,254,443.3828,258,439.3828" style="stroke: #A80036; stroke-width: 1.0;"/><line style="stroke: #A80036; stroke-width: 1.0;" x1="156.5" x2="260" y1="439.3828" y2="439.3828"/><text fill="#000000" font-family="sans-serif" font-size="13" lengthAdjust="spacingAndGlyphs" textLength="31" x="163.5" y="434.5264">close</text><line style="stroke: #A80036; stroke-width: 2.0;" x1="257" x2="275" y1="430.3828" y2="448.3828"/><line style="stroke: #A80036; stroke-width: 2.0;" x1="257" x2="275" y1="448.3828" y2="430.3828"/><polygon fill="#A80036" points="322,465.7344,332,469.7344,322,473.7344,326,469.7344" style="stroke: #A80036; stroke-width: 1.0;"/><line style="stroke: #A80036; stroke-width: 1.0;" x1="156.5" x2="328" y1="469.7344" y2="469.7344"/><text fill="#000000" font-family="sans-serif" font-size="13" lengthAdjust="spacingAndGlyphs" textLength="50" x="163.5" y="464.8779">closed(t)</text><!--
@startuml message_create
hide footbox

actor Algernon
participant "helpdesk: Helpdesk" as Helpdesk
participant "t: Ticket" as Ticket
actor Bertie


activate Algernon
Algernon -> Helpdesk : complain
activate Helpdesk
create Ticket
Helpdesk -> Ticket : new
return ticketnumber
deactivate Algernon

Ticket -> Bertie : notify
activate Bertie
deactivate Ticket

Bertie -> Ticket : update
activate Ticket
return ok
Bertie -> Helpdesk : resolved(t)
deactivate Bertie
activate Helpdesk
Helpdesk -> Algernon : resolved(t)
activate Algernon
return ok
Helpdesk -> Ticket : close
destroy Ticket
Helpdesk -> Bertie : closed(t)

@enduml

PlantUML version 1.2019.06(Sat May 25 03:10:25 AEST 2019)
(GPL source distribution)
Java Runtime: OpenJDK Runtime Environment
JVM: OpenJDK 64-Bit Server VM
Java Version: 11.0.3+7
Operating System: Windows 10
OS Version: 10.0
Default Encoding: Cp1252
Language: en
Country: AU
--></g></svg>